<svg width="62" height="61" viewBox="0 0 62 61" fill="none" xmlns="http://www.w3.org/2000/svg">
<path d="M24.0496 49.7423L25.533 11.81C25.533 8.48227 21.1875 8.55124 21.1875 12.1721L24.0496 49.7423Z" fill="#00A651"/>
<path d="M31.1334 49.1739L32.8786 10.5001C32.8786 7.18964 28.3063 7.18965 28.2539 10.7932L31.1334 49.1739Z" fill="#00A651"/>
<path d="M38.026 49.5017L40.0154 12.0177C40.0154 8.70723 35.4606 8.70722 35.4082 12.3108L38.026 49.5017Z" fill="#00A651"/>
<path d="M44.5914 45.5167L46.5111 16.4122C46.5111 13.1018 42.1656 13.1018 42.1133 16.7053L44.5914 45.5167Z" fill="#00A651"/>
<path d="M17.6617 45.5877L19.0229 16.1557C19.0229 12.828 14.66 12.897 14.6426 16.5005L17.6617 45.5877Z" fill="#00A651"/>
<path d="M49.8225 39.0174L50.7125 22.4823C50.7125 21.0857 48.8103 21.0512 48.7754 22.4823L49.8225 39.0174Z" fill="#00A651"/>
<path d="M40.6625 12.1035L43.0359 45.9668C43.0359 48.9669 39.1965 49.0531 39.0918 45.7771L40.6625 12.1035Z" fill="#00A651"/>
<path d="M20.1544 12.5176L22.7722 46.3636C22.8769 49.3637 18.9677 49.4844 18.8281 46.2084L20.1544 12.5176Z" fill="#00A651"/>
<path d="M34.3613 9.08398L36.7172 48.1198C36.8045 51.5682 32.2845 51.5682 32.1973 47.8612L34.3613 9.08398Z" fill="#00A651"/>
<path d="M26.7359 9.31055L29.8422 48.2947C29.9993 51.743 25.4793 51.8982 25.3223 48.1395L26.7359 9.31055Z" fill="#00A651"/>
<path d="M47.6788 16.6211L49.1622 39.7771C49.1622 42.4841 45.6719 42.4668 45.6719 39.5357L47.6788 16.6211Z" fill="#00A651"/>
<path d="M13.804 17.4629L16.1251 41.0154C16.2473 43.7052 12.6348 43.8259 12.6348 40.8947L13.804 17.4629Z" fill="#00A651"/>
<path d="M19.3735 27.1209C19.729 27.1109 20.0836 27.1635 20.4206 27.2761C20.5899 27.3752 20.7263 27.521 20.8131 27.6956C20.8999 27.8701 20.9333 28.0659 20.9092 28.2589C20.928 28.4317 20.9045 28.6065 20.8407 28.7685C20.777 28.9305 20.6748 29.0751 20.5427 29.19C20.264 29.372 19.9342 29.4625 19.6003 29.4486H17.4189V27.1209H19.3735ZM19.6178 31.1728C19.9253 31.1672 20.23 31.2321 20.5078 31.3625C20.7046 31.4727 20.8642 31.6378 20.9666 31.8371C21.069 32.0364 21.1097 32.2611 21.0837 32.4832C21.1141 32.7342 21.075 32.9887 20.9705 33.2195C20.866 33.4502 20.7001 33.6487 20.4904 33.7936C20.209 33.9306 19.8956 33.9901 19.5829 33.966H17.4189V31.1728H19.6178ZM19.9494 25.3278H15.6562V35.6729H19.6701C20.0871 35.6725 20.5026 35.6263 20.9092 35.535C21.2858 35.4413 21.6333 35.2578 21.9214 35.0005C22.1806 34.7719 22.3938 34.497 22.5497 34.1901C22.8285 33.6581 22.9666 33.0649 22.9511 32.4659C22.9654 31.9337 22.8455 31.4064 22.602 30.9314C22.378 30.5232 22.0215 30.2013 21.5898 30.0176C21.8495 29.8623 22.075 29.6571 22.253 29.4141C22.5471 28.9572 22.6876 28.4201 22.6544 27.8796C22.6751 27.3185 22.536 26.7629 22.253 26.2761C21.9814 25.9386 21.6276 25.6746 21.2248 25.5088C20.822 25.343 20.3832 25.2807 19.9494 25.3278Z" stroke="white" stroke-width="0.56"/>
<path d="M30.9599 25.3262V27.1711H28.3072V35.7921H26.4748V27.1711H23.8047V25.3262H30.9599Z" stroke="white" stroke-width="0.56"/>
<path d="M35.9856 27.1213C36.2813 27.0997 36.5773 27.1593 36.8407 27.2937C37.0291 27.4492 37.1743 27.6495 37.2629 27.8757C37.3514 28.1019 37.3803 28.3466 37.3468 28.5869C37.3777 28.811 37.3452 29.0392 37.2527 29.2462C37.1603 29.4531 37.0117 29.6308 36.8233 29.7593C36.5472 29.8933 36.2401 29.9528 35.9332 29.9317H33.9438V27.1213H35.9856ZM36.3521 25.3971H32.1113V35.7423H33.9438V31.6732H35.6889C35.877 31.6507 36.0678 31.6683 36.2484 31.7249C36.429 31.7814 36.5953 31.8755 36.736 32.0008C36.9598 32.4068 37.0627 32.8671 37.0327 33.3284V34.294C37.0436 34.6 37.0728 34.9051 37.12 35.2078C37.12 35.3457 37.12 35.5354 37.2421 35.7595H39.3538V35.5009C39.2553 35.4292 39.1723 35.339 39.1094 35.2354C39.0465 35.1318 39.005 35.017 38.9873 34.8974C38.9873 34.725 38.9873 34.4147 38.9873 33.9319V33.225C39.0191 32.6724 38.9298 32.1195 38.7255 31.6042C38.5604 31.2349 38.2617 30.9397 37.8878 30.7766C38.353 30.5843 38.7228 30.2188 38.9175 29.7593C39.123 29.2973 39.2299 28.7984 39.2316 28.2937C39.2383 27.9257 39.1852 27.559 39.0745 27.2075C38.9732 26.8918 38.8199 26.5947 38.6208 26.3282C38.4102 26.0208 38.1292 25.7668 37.8006 25.5868C37.3418 25.3998 36.848 25.3116 36.3521 25.3281V25.3971Z" stroke="white" stroke-width="0.56"/>
<path d="M41.7952 26.3963C42.1153 25.964 42.5363 25.6144 43.0224 25.3773C43.5085 25.1401 44.0454 25.0224 44.5875 25.0342C45.2375 24.9937 45.8859 25.1338 46.4596 25.4385C47.0332 25.7432 47.5091 26.2004 47.8335 26.7584C48.1859 27.3528 48.3949 28.0195 48.4443 28.7067H46.5246C46.4554 28.2949 46.3009 27.9016 46.0708 27.5515C45.9014 27.3278 45.6794 27.1481 45.424 27.028C45.1686 26.9078 44.8875 26.8508 44.6049 26.8618C44.2778 26.8612 43.9571 26.9513 43.6794 27.1221C43.4017 27.2928 43.1782 27.5372 43.0343 27.8274C42.6061 28.6768 42.4077 29.6212 42.4583 30.5688C42.3915 31.492 42.5977 32.4145 43.0517 33.2241C43.2047 33.493 43.4279 33.7164 43.698 33.8711C43.9681 34.0257 44.2753 34.106 44.5875 34.1034C44.8778 34.1048 45.164 34.0346 45.42 33.8991C45.676 33.7636 45.8937 33.5672 46.0534 33.3275C46.2702 32.9462 46.4235 32.5329 46.5071 32.1034H48.3396C48.2324 33.1312 47.8057 34.1009 47.1179 34.8793C46.8057 35.2262 46.4207 35.5015 45.9897 35.6862C45.5586 35.8708 45.092 35.9603 44.6224 35.9483C44.0452 35.9683 43.472 35.8464 42.9542 35.5936C42.4364 35.3408 41.9902 34.9651 41.6556 34.5C40.9242 33.2509 40.5508 31.8287 40.5754 30.3859C40.6 28.9431 41.0216 27.5341 41.7952 26.3101V26.3963Z" stroke="white" stroke-width="0.56"/>
<path d="M19.3735 27.1209C19.729 27.1109 20.0836 27.1635 20.4206 27.2761C20.5899 27.3752 20.7263 27.521 20.8131 27.6956C20.8999 27.8701 20.9333 28.0659 20.9092 28.2589C20.928 28.4317 20.9045 28.6065 20.8407 28.7685C20.777 28.9305 20.6748 29.0751 20.5427 29.19C20.264 29.372 19.9342 29.4625 19.6003 29.4486H17.4189V27.1209H19.3735ZM19.6178 31.1728C19.9253 31.1672 20.23 31.2321 20.5078 31.3625C20.7046 31.4727 20.8642 31.6378 20.9666 31.8371C21.069 32.0364 21.1097 32.2611 21.0837 32.4832C21.1141 32.7342 21.075 32.9887 20.9705 33.2195C20.866 33.4502 20.7001 33.6487 20.4904 33.7936C20.209 33.9306 19.8956 33.9901 19.5829 33.966H17.4189V31.1728H19.6178ZM19.9494 25.3278H15.6562V35.6729H19.6701C20.0871 35.6725 20.5026 35.6263 20.9092 35.535C21.2858 35.4413 21.6333 35.2578 21.9214 35.0005C22.1806 34.7719 22.3938 34.497 22.5497 34.1901C22.8285 33.6581 22.9666 33.0649 22.9511 32.4659C22.9654 31.9337 22.8455 31.4064 22.602 30.9314C22.378 30.5232 22.0215 30.2013 21.5898 30.0176C21.8495 29.8623 22.075 29.6571 22.253 29.4141C22.5471 28.9572 22.6876 28.4201 22.6544 27.8796C22.6751 27.3185 22.536 26.7629 22.253 26.2761C21.9814 25.9386 21.6276 25.6746 21.2248 25.5088C20.822 25.343 20.3832 25.2807 19.9494 25.3278Z" fill="#ED1C24"/>
<path d="M30.9599 25.3262V27.1711H28.3072V35.7921H26.4748V27.1711H23.8047V25.3262H30.9599Z" fill="#ED1C24"/>
<path d="M35.9856 27.1213C36.2813 27.0997 36.5773 27.1593 36.8407 27.2937C37.0291 27.4492 37.1743 27.6495 37.2629 27.8757C37.3514 28.1019 37.3803 28.3466 37.3468 28.5869C37.3777 28.811 37.3452 29.0392 37.2527 29.2462C37.1603 29.4531 37.0117 29.6308 36.8233 29.7593C36.5472 29.8933 36.2401 29.9528 35.9332 29.9317H33.9438V27.1213H35.9856ZM36.3521 25.3971H32.1113V35.7423H33.9438V31.6732H35.6889C35.877 31.6507 36.0678 31.6683 36.2484 31.7249C36.429 31.7814 36.5953 31.8755 36.736 32.0008C36.9598 32.4068 37.0627 32.8671 37.0327 33.3284V34.294C37.0436 34.6 37.0728 34.9051 37.12 35.2078C37.12 35.3457 37.12 35.5354 37.2421 35.7595H39.3538V35.5009C39.2553 35.4292 39.1723 35.339 39.1094 35.2354C39.0465 35.1318 39.005 35.017 38.9873 34.8974C38.9873 34.725 38.9873 34.4147 38.9873 33.9319V33.225C39.0191 32.6724 38.9298 32.1195 38.7255 31.6042C38.5604 31.2349 38.2617 30.9397 37.8878 30.7766C38.353 30.5843 38.7228 30.2188 38.9175 29.7593C39.123 29.2973 39.2299 28.7984 39.2316 28.2937C39.2383 27.9257 39.1852 27.559 39.0745 27.2075C38.9732 26.8918 38.8199 26.5947 38.6208 26.3282C38.4102 26.0208 38.1292 25.7668 37.8006 25.5868C37.3418 25.3998 36.848 25.3116 36.3521 25.3281V25.3971Z" fill="#ED1C24"/>
<path d="M41.7952 26.3963C42.1153 25.964 42.5363 25.6144 43.0224 25.3773C43.5085 25.1401 44.0454 25.0224 44.5875 25.0342C45.2375 24.9937 45.8859 25.1338 46.4596 25.4385C47.0332 25.7432 47.5091 26.2004 47.8335 26.7584C48.1859 27.3528 48.3949 28.0195 48.4443 28.7067H46.5246C46.4554 28.2949 46.3009 27.9016 46.0708 27.5515C45.9014 27.3278 45.6794 27.1481 45.424 27.028C45.1686 26.9078 44.8875 26.8508 44.6049 26.8618C44.2778 26.8612 43.9571 26.9513 43.6794 27.1221C43.4017 27.2928 43.1782 27.5372 43.0343 27.8274C42.6061 28.6768 42.4077 29.6212 42.4583 30.5688C42.3915 31.492 42.5977 32.4145 43.0517 33.2241C43.2047 33.493 43.4279 33.7164 43.698 33.8711C43.9681 34.0257 44.2753 34.106 44.5875 34.1034C44.8778 34.1048 45.164 34.0346 45.42 33.8991C45.676 33.7636 45.8937 33.5672 46.0534 33.3275C46.2702 32.9462 46.4235 32.5329 46.5071 32.1034H48.3396C48.2324 33.1312 47.8057 34.1009 47.1179 34.8793C46.8057 35.2262 46.4207 35.5015 45.9897 35.6862C45.5586 35.8708 45.092 35.9603 44.6224 35.9483C44.0452 35.9683 43.472 35.8464 42.9542 35.5936C42.4364 35.3408 41.9902 34.9651 41.6556 34.5C40.9242 33.2509 40.5508 31.8287 40.5754 30.3859C40.6 28.9431 41.0216 27.5341 41.7952 26.3101V26.3963Z" fill="#ED1C24"/>
<path d="M4.03131 19.4654C3.57757 19.3102 2.61773 19.4654 2.37341 19.9827C2.4139 19.9366 2.46553 19.9013 2.5235 19.8802C2.58147 19.8591 2.6439 19.8528 2.70499 19.862C2.78561 19.8905 2.85949 19.9349 2.92209 19.9926C2.98469 20.0504 3.03468 20.1201 3.06901 20.1976C3.10333 20.2751 3.12125 20.3588 3.12168 20.4434C3.1221 20.528 3.10501 20.6118 3.07147 20.6896C2.93186 21.0862 2.58283 21.4482 2.21634 21.3103C1.84986 21.1724 1.65789 20.4827 1.81495 19.9827C1.91879 19.7332 2.07307 19.5072 2.26835 19.3187C2.46363 19.1301 2.69579 18.9829 2.95065 18.8861C3.2055 18.7892 3.47767 18.7448 3.75051 18.7555C4.02335 18.7661 4.29111 18.8317 4.53741 18.9481C5.17517 19.179 5.70507 19.633 6.02671 20.2241C6.34835 20.8151 6.43939 21.5022 6.28258 22.1552L5.4449 22.6207C5.4798 21.0517 5.42744 19.9827 4.03131 19.4654Z" fill="#ED1C24"/>
<path d="M5.88231 21C6.04688 21.3324 6.1812 21.6786 6.2837 22.0345C5.86919 23.3769 5.55996 24.7488 5.35876 26.1381C5.35876 26.1381 5.35876 26.1381 5.49837 26.1381C5.98702 26.1381 6.03937 24.4139 6.09173 24.0173C6.21389 23.2932 6.70254 22.2931 7.4006 22.4483C7.57343 22.4889 7.72723 22.5861 7.83689 22.7242V23.0518L7.66238 23.1897C7.66238 23.0863 7.52276 22.9828 7.4006 22.9656C7.33765 22.9495 7.2716 22.9495 7.20864 22.9656C7.05057 23.1282 6.94175 23.3312 6.89451 23.5518C6.80725 24.0691 6.80725 24.6036 6.73744 25.1208C6.58038 26.0347 6.07428 26.983 5.20169 26.845V27.0692L4.46872 27.5347C4.58775 26.3367 4.76832 25.1455 5.00973 23.9656L2.25236 23.4656C2.17642 23.4607 2.10146 23.4848 2.04299 23.5329C1.98453 23.581 1.94702 23.6495 1.93823 23.7242C1.94564 24.063 2.03313 24.3953 2.19373 24.6947C2.35433 24.9941 2.58359 25.2522 2.86317 25.4484C2.86317 25.0691 3.1773 24.7243 3.52634 24.776C3.72576 24.836 3.89372 24.9703 3.99469 25.1505C4.09566 25.3307 4.12171 25.5427 4.06733 25.7415C4.02997 25.9807 3.90755 26.1989 3.72203 26.3569C3.53652 26.5149 3.30007 26.6024 3.05514 26.6036C2.46314 26.4102 1.96122 26.0129 1.64087 25.4844C1.32053 24.9559 1.20309 24.3312 1.30997 23.7242C1.43213 22.9656 2.39197 22.8621 2.86317 22.9483L5.2366 23.3621C5.37621 22.5 5.60308 21.7759 5.88231 21Z" fill="#ED1C24"/>
<path d="M6.36986 30.4645C6.41167 30.0911 6.34129 29.7137 6.1675 29.3795C5.99371 29.0453 5.72421 28.769 5.39257 28.5851L5.07844 28.7403V29.3093L4.43273 30.0507V28.9472L0 28.8093L0.610806 28.0679L4.43273 28.1886V27.4644L5.2355 26.7402L5.11334 28.0506C5.27041 27.8782 5.32276 27.7575 5.54963 27.7575C6.40477 27.7575 6.99812 28.9989 6.98067 29.9472C6.88276 31.1608 6.40037 32.3131 5.60199 33.2405L5.06098 33.4646C5.78125 32.6104 6.23584 31.5684 6.36986 30.4645Z" fill="#ED1C24"/>
<path d="M4.44956 28.5703H5.16508C5.08783 30.6045 5.24592 32.6407 5.63627 34.6395L5.13017 35.7257L4.93821 34.8464L0.453125 35.3809L0.924321 34.5188L3.29775 34.2084C3.47227 34.2084 3.71659 33.8291 3.69914 33.5877C3.68169 33.3463 3.24539 33.3118 3.00107 33.3981L2.70439 32.8463C2.76744 32.8617 2.83331 32.8617 2.89636 32.8463C3.2803 32.8463 3.45481 32.1221 3.41991 31.7256C3.38501 31.329 3.01852 30.8807 2.61714 30.9325C2.51519 30.9691 2.42624 31.0342 2.36116 31.12C2.29608 31.2057 2.25768 31.3083 2.25065 31.4152H2.44262C2.73929 31.4152 3.00107 31.6911 3.03597 32.0359C3.04304 32.1438 3.02821 32.2519 2.99235 32.354C2.95648 32.4561 2.90031 32.5501 2.82713 32.6304C2.75396 32.7108 2.66526 32.7758 2.56625 32.8218C2.46725 32.8677 2.35995 32.8937 2.25065 32.898C1.95397 32.898 1.70965 32.3118 1.67474 32.0532C1.57003 31.1566 1.97142 30.329 2.7393 30.329C3.07486 30.2901 3.4123 30.3846 3.6774 30.5915C3.94249 30.7984 4.11353 31.1009 4.15289 31.4325C4.21339 31.8308 4.11994 32.2371 3.89111 32.5705C4.09645 32.7744 4.25168 33.0221 4.34485 33.2946C4.34485 33.8808 4.34485 33.7946 4.06562 34.1222H3.90856L4.67643 34.0188C4.38739 32.2174 4.31125 30.389 4.44956 28.5703Z" fill="#ED1C24"/>
<path d="M5.58624 34.4844C5.85001 35.8077 6.21165 37.11 6.66824 38.3811C6.66824 38.6569 6.31921 39.4501 6.31921 39.4501C6.31921 39.4501 6.2145 39.2087 6.1796 39.088C5.2023 37.7259 4.6613 37.1224 3.17791 37.6224C2.74161 37.7603 1.88648 38.2259 2.16571 38.9673C2.17017 38.8931 2.19325 38.8211 2.23285 38.7579C2.27245 38.6947 2.32734 38.6422 2.39258 38.6052C2.47628 38.5848 2.56326 38.5812 2.6484 38.5945C2.73354 38.6079 2.81511 38.6379 2.88831 38.6829C2.9615 38.7279 3.02483 38.787 3.07457 38.8565C3.12431 38.9261 3.15944 39.0048 3.17791 39.088C3.25082 39.2695 3.25179 39.4714 3.18063 39.6536C3.10946 39.8358 2.97139 39.9847 2.79397 40.0708C2.34022 40.2259 1.90393 39.8121 1.74687 39.2949C1.61982 38.7511 1.71298 38.1799 2.00644 37.7031C2.29991 37.2263 2.77043 36.8818 3.31752 36.7431C3.67892 36.6329 4.06063 36.6035 4.43493 36.6572C4.80924 36.7109 5.16675 36.8463 5.48153 37.0534L5.08014 35.6568L5.46408 34.7258L5.58624 34.4844Z" fill="#ED1C24"/>
<path d="M5.07772 43.6913C5.31437 43.0461 5.3863 42.3532 5.28714 41.6739C5.77579 41.8636 6.22953 42.1222 6.70073 42.3291C6.88341 41.8855 6.9782 41.4114 6.97995 40.9325L7.69547 42.2947L5.07772 43.6913ZM8.56806 42.3981C7.78361 41.0514 7.12359 39.6376 6.59601 38.1738C6.59601 38.5532 6.14227 38.829 6.21208 39.2083C6.33094 39.8633 6.40093 40.5261 6.4215 41.1912C5.86581 40.8453 5.2821 40.5454 4.67633 40.2946L4.3273 41.3981C5.16498 43.3637 4.3273 43.5878 3.94336 45.0879L7.9747 42.9498L8.58551 43.8982L8.4808 42.3981" fill="#ED1C24"/>
<path d="M9.38908 44.9327L5.67188 47.6224V46.6569L8.06275 44.9327C8.56885 44.5534 8.88298 44.1913 8.32453 43.4843L8.4816 42.3809L9.04005 43.3119C9.10053 43.4538 9.13168 43.6063 9.13168 43.7602C9.13168 43.9142 9.10053 44.0666 9.04005 44.2085C8.90875 44.5177 8.74496 44.8124 8.5514 45.0878C8.97024 44.7775 9.16221 44.1051 9.5985 43.7947C9.71803 43.6974 9.85387 43.6215 9.99989 43.5706V44.0016L9.73811 44.5016L9.94754 44.8292L9.82538 45.812L9.38908 44.9327Z" fill="#ED1C24"/>
<path d="M12.9825 48.9143L9.68409 52.1213V51.0351L11.1675 49.604C11.4856 49.3221 11.6879 48.9346 11.7362 48.5151C11.7844 48.0957 11.6752 47.6733 11.4293 47.328C11.3143 47.1785 11.1626 47.0604 10.9885 46.985C10.8144 46.9095 10.6237 46.8793 10.4345 46.897C10.5475 46.9857 10.6526 47.0837 10.7486 47.1901C11.0628 47.5522 11.3071 48.1729 10.9581 48.5177C10.609 48.8626 9.71899 48.8453 9.21289 48.8281V47.7591C9.70521 47.9023 10.2188 47.9606 10.7312 47.9315C10.7312 47.9315 10.7312 47.6901 10.7312 47.6211C10.7312 47.5522 10.0331 47.397 9.77134 47.1039C9.66795 46.9669 9.61209 46.8006 9.61209 46.6297C9.61209 46.4589 9.66795 46.2925 9.77134 46.1556C10.2949 45.6383 11.2896 45.9314 11.8132 46.5349C12.1483 46.899 12.3589 47.358 12.4153 47.8469C12.4716 48.3358 12.3709 48.8299 12.1273 49.2591C12.4341 48.6252 12.8405 48.0433 13.3315 47.5349L13.7154 47.1728L13.8201 47.9142C13.748 47.9313 13.6818 47.967 13.6282 48.0177C13.6183 48.0979 13.6183 48.1789 13.6282 48.2591C13.6919 48.3995 13.7948 48.5192 13.9248 48.6039L14.1517 49.6384L12.9825 48.9143Z" fill="#ED1C24"/>
<path d="M14.9232 50.4498L12.0437 54.1741L11.8691 53.2085L13.6143 50.8119C13.9982 50.2946 14.1902 49.8464 13.4572 49.3463L13.3002 48.2773L14.0855 48.967C14.2856 49.2024 14.3856 49.5052 14.3647 49.8119C14.3321 50.1461 14.2619 50.4758 14.1553 50.7947C14.4869 50.3636 14.4694 49.6739 14.801 49.2256L15.1326 48.898L15.2548 49.2601L15.1326 49.8464L15.4642 50.0877L15.2897 50.8464L14.9232 50.4498Z" fill="#ED1C24"/>
<path d="M15.2538 50.7408L15.5505 50.0684C16.3174 50.6329 17.122 51.1455 17.9588 51.6029C18.1658 51.7856 18.3322 52.0087 18.4474 52.2581C18.4474 52.5512 18.4474 52.6719 18.4474 52.7236C16.8768 52.3443 16.0915 52.3271 15.2538 53.7064C15.0269 54.103 14.643 55.0513 15.2538 55.4306C15.217 55.3677 15.1977 55.2964 15.1977 55.2237C15.1977 55.1511 15.217 55.0797 15.2538 55.0168C15.2996 54.9464 15.3593 54.8858 15.4294 54.8388C15.4994 54.7917 15.5784 54.7591 15.6616 54.743C15.7447 54.7269 15.8303 54.7276 15.9132 54.745C15.9961 54.7624 16.0745 54.7962 16.1438 54.8444C16.3115 54.948 16.4357 55.1081 16.4934 55.295C16.5512 55.4819 16.5386 55.6832 16.458 55.8617C16.3835 55.9539 16.2911 56.0305 16.1861 56.0867C16.0811 56.1429 15.9657 56.1777 15.8469 56.189C15.728 56.2002 15.6081 56.1877 15.4942 56.1522C15.3803 56.1167 15.2748 56.059 15.184 55.9824C14.7603 55.5992 14.4981 55.0725 14.4496 54.507C14.4011 53.9415 14.5698 53.3787 14.9222 52.9305C15.1143 52.6206 15.368 52.3523 15.6679 52.1419C15.9679 51.9315 16.3079 51.7833 16.6674 51.7064C16.1613 51.396 15.725 51.0512 15.2538 50.7408Z" fill="#ED1C24"/>
<path d="M20.2956 56.847C20.0776 56.196 19.7069 55.6051 19.2135 55.1228C19.7022 54.9504 20.2083 54.847 20.7144 54.6745C20.5742 54.2233 20.3492 53.8021 20.0512 53.4331L21.4474 53.9849L20.2956 56.847ZM22.2676 53.5538C20.7652 53.0564 19.3203 52.4033 17.957 51.6055C18.1141 51.9676 18.1839 52.5193 18.498 52.7434C18.9887 53.1181 19.4235 53.5592 19.7895 54.0538C19.1971 54.1434 18.6133 54.2818 18.0443 54.4676L18.4631 55.5539C20.2956 56.4849 19.7371 57.2781 20.4352 58.6402L22.1803 54.2607L22.7039 54.4504L22.5992 53.8124L22.32 53.5538" fill="#ED1C24"/>
<path d="M24.2222 54.8637L23.0181 59.519L22.4945 58.7086L23.2624 55.7602C23.4194 55.1395 23.4369 54.6395 22.5818 54.4843L22.0059 53.5188L23.0879 53.8809C23.3671 53.8809 23.4893 54.2947 23.594 54.5361C23.6816 54.8631 23.7343 55.1982 23.751 55.5361C23.8906 55.0016 23.6289 54.3809 23.751 53.8119C23.7909 53.6617 23.8496 53.5169 23.9255 53.3809L24.1873 53.6567L24.292 54.3119L24.8505 54.4843L25.1472 55.174L24.2222 54.8637Z" fill="#ED1C24"/>
<path d="M29.2662 55.6071L28.8823 60.2969L28.1319 59.521C28.1319 58.8313 28.2715 58.1072 28.3413 57.4175C28.4111 56.7278 28.0272 55.6933 27.1022 55.5036C26.9147 55.4752 26.723 55.4952 26.5456 55.5617C26.3682 55.6281 26.2113 55.7388 26.09 55.8829C26.2291 55.8663 26.3698 55.8663 26.5089 55.8829C26.9801 55.8829 27.556 56.245 27.5036 56.7278C27.4513 57.2106 26.7881 57.8313 26.3344 58.2279L25.6363 57.452C25.8806 57.3313 26.8579 56.6933 26.8754 56.5209C26.8928 56.3485 26.7183 56.3485 26.6136 56.3485C26.5089 56.3485 25.9679 56.6588 25.5839 56.6243C25.4212 56.5788 25.2782 56.4814 25.1773 56.3474C25.0763 56.2133 25.0229 56.05 25.0255 55.8829C25.1208 55.5127 25.3525 55.1908 25.6752 54.9804C25.998 54.7699 26.3886 54.686 26.7706 54.745C28.0097 54.8657 28.3937 55.6243 28.7252 56.5899C28.5808 55.91 28.5397 55.2127 28.6031 54.5208V53.9863L29.1441 54.4519C29.1212 54.5249 29.1212 54.603 29.1441 54.676C29.1441 54.676 29.1441 54.8657 29.1441 54.9002C29.3207 54.9514 29.5085 54.9514 29.6851 54.9002L30.2261 55.6071H29.2662Z" fill="#ED1C24"/>
<path d="M34.12 55.3818L34.661 60.0026L33.8582 59.4854L33.4044 55.468L32.7064 55.5714L32.0781 54.8645H33.195C33.0205 54.7266 32.846 54.6576 32.8285 54.4162C32.7238 53.5369 33.7709 52.692 34.5737 52.692C35.7538 52.597 36.9296 52.921 37.8895 53.6059L38.1862 54.1576C37.29 53.5621 36.2294 53.2549 35.1496 53.2783C34.775 53.2972 34.4165 53.4349 34.1273 53.6709C33.8381 53.9069 33.6336 54.2288 33.5441 54.5886L33.7186 54.8473H34.2596H34.8704L34.9751 55.5542C34.6868 55.5137 34.4013 55.4561 34.12 55.3818Z" fill="#ED1C24"/>
<path d="M38.2552 54.485L38.7613 56.4679C38.7613 56.4679 37.5048 55.4851 36.7194 55.7092C36.3918 55.7683 36.0999 55.9502 35.9048 56.2169C35.7097 56.4835 35.6264 56.8144 35.6723 57.1403C35.8294 57.7438 36.3006 57.8989 36.9463 57.7093C37.592 57.5196 37.6618 57.3127 37.5571 56.8989C37.4524 56.4851 37.0336 56.4678 37.0336 56.4334C38.1854 56.123 39.407 57.6575 39.5641 58.5196V58.6231L40.0527 58.9507L38.866 54.2954L39.8258 53.9333L39.1976 53.416C37.5967 53.9934 35.9426 54.415 34.2588 54.6747L34.1191 55.3816C35.5208 55.1975 36.9043 54.8976 38.2552 54.485Z" fill="#ED1C24"/>
<path d="M43.9078 55.3997C43.3261 55.1091 42.6649 55.0123 42.023 55.1238C42.2149 54.6065 42.4767 54.1582 42.7036 53.6582C42.285 53.4745 41.8456 53.3413 41.3947 53.2617L42.7036 52.6064L43.9078 55.3997ZM44.0997 51.8133L43.105 51.5547C41.7472 52.3446 40.3154 53.0028 38.8293 53.5203L38.7246 53.7789C40.3127 54.3651 40.208 53.8996 41.5692 53.9168C41.2302 54.4721 40.9271 55.0479 40.6617 55.641L41.7088 56.0721C43.5587 55.2962 43.803 56.1928 45.1992 56.6411L43.3319 52.2789L44.0997 51.8133ZM43.4017 57.4859C43.5455 57.4215 43.6596 57.3058 43.721 57.1621C43.7825 57.0183 43.7868 56.8569 43.7332 56.71C43.6922 56.6418 43.6376 56.5824 43.5727 56.5356C43.5077 56.4889 43.4339 56.4556 43.3555 56.4379C43.2772 56.4201 43.196 56.4183 43.117 56.4325C43.0379 56.4467 42.9626 56.4766 42.8956 56.5204C42.7543 56.5878 42.6428 56.7038 42.5818 56.8466C42.5207 56.9894 42.5144 57.1492 42.564 57.2963C42.6502 57.4305 42.7865 57.5258 42.9433 57.5613C43.1002 57.5968 43.2649 57.5697 43.4017 57.4859Z" fill="#ED1C24"/>
<path d="M43.8921 51.9472L43.0195 51.6196C44.5234 50.782 45.9282 49.7816 47.2079 48.6367L48.1678 48.7574C47.9241 48.9787 47.6677 49.186 47.3999 49.3781C47.5395 49.2747 47.9409 49.654 48.0107 49.7574C48.1055 49.8886 48.1636 50.0423 48.1789 50.2027C48.1942 50.3632 48.1663 50.5249 48.098 50.6713C48.2243 50.6849 48.3455 50.7279 48.4517 50.7969C48.5579 50.8658 48.646 50.9587 48.7088 51.0678L50.3492 53.4817H50.0002C49.8135 53.3446 49.5871 53.2705 49.3545 53.2705C49.1219 53.2705 48.8954 53.3446 48.7088 53.4817C48.4121 53.7059 48.1852 54.0335 47.8711 54.2748C47.75 54.4191 47.5994 54.5364 47.4292 54.6191C47.2589 54.7017 47.0729 54.7478 46.8833 54.7544C46.6937 54.7609 46.5049 54.7276 46.3292 54.6569C46.1536 54.5861 45.9951 54.4794 45.8642 54.3438C45.7567 54.1894 45.6827 54.0148 45.6466 53.8309C45.6106 53.6469 45.6134 53.4576 45.6547 53.2748H46.0387C46.028 53.4312 46.0644 53.5872 46.1434 53.7231C46.6844 54.5162 47.3999 53.8093 48.0107 53.3438C48.1435 53.2096 48.3047 53.1061 48.4827 53.0405C48.6606 52.975 48.8511 52.949 49.0404 52.9644L48.0805 51.6023C47.9913 51.4742 47.8921 51.3531 47.7838 51.2402C47.7442 51.2271 47.7013 51.2271 47.6617 51.2402C47.5513 51.3602 47.4691 51.5028 47.4208 51.6578C47.3726 51.8127 47.3595 51.9763 47.3825 52.1368C47.4201 52.0932 47.467 52.0581 47.5197 52.0341C47.5724 52.01 47.6298 51.9976 47.6879 51.9976C47.7459 51.9976 47.8033 52.01 47.856 52.0341C47.9088 52.0581 47.9556 52.0932 47.9933 52.1368C48.064 52.3022 48.0785 52.4858 48.0344 52.66C47.9904 52.8341 47.8901 52.9894 47.7489 53.1024C47.6607 53.1765 47.5572 53.2309 47.4456 53.2618C47.3341 53.2926 47.2171 53.2993 47.1027 53.2813C46.9883 53.2632 46.8792 53.221 46.7829 53.1574C46.6866 53.0937 46.6054 53.0103 46.5448 52.9127C46.1957 52.3955 46.632 51.4472 46.5448 51.3954C46.4575 51.3437 46.0736 51.3954 46.0038 51.4816C45.934 51.5678 46.0038 51.6196 46.0038 51.7058C46.0724 51.8406 46.089 51.9954 46.0504 52.1414C46.0119 52.2873 45.9209 52.4144 45.7944 52.4989C45.727 52.5565 45.6484 52.5998 45.5634 52.6259C45.4783 52.652 45.3888 52.6605 45.3003 52.6508C45.2118 52.6411 45.1262 52.6134 45.0491 52.5694C44.9719 52.5255 44.9048 52.4663 44.852 52.3955C44.7278 52.1912 44.6894 51.9471 44.7448 51.7152C44.8002 51.4833 44.9451 51.2819 45.1486 51.154C45.6528 50.8988 46.2059 50.7519 46.7716 50.723C46.8784 50.6468 46.9544 50.5358 46.9863 50.4096C47.0182 50.2834 47.004 50.1502 46.9462 50.0333C46.8065 49.8264 46.5448 49.8954 46.3354 50.0333C45.5619 50.7207 44.7459 51.3598 43.8921 51.9472Z" fill="#ED1C24"/>
<path d="M50.7335 45.9839L54.1016 49.0702L53.1243 49.2426L51.3792 47.5184C51.1313 47.3063 50.8085 47.1999 50.4813 47.2225C50.1542 47.2451 49.8495 47.3949 49.634 47.6391C49.4734 47.8137 49.3843 48.0411 49.3843 48.2771C49.3843 48.513 49.4734 48.7404 49.634 48.915C49.7387 49.0012 50.175 49.2771 50.3321 49.1047C50.4891 48.9322 50.2274 49.1047 50.0878 48.9322C49.9481 48.7598 50.0878 48.3805 50.2274 48.1391C50.2698 48.0709 50.3272 48.013 50.3954 47.9697C50.4635 47.9264 50.5407 47.8987 50.6211 47.8888C50.7015 47.8788 50.7831 47.8869 50.86 47.9123C50.9368 47.9377 51.0069 47.9799 51.065 48.0357C51.4141 48.3633 51.2221 48.9322 50.908 49.3116C50.7998 49.4565 50.6632 49.5785 50.5063 49.6703C50.3494 49.7621 50.1755 49.8219 49.9948 49.846C49.8141 49.8701 49.6304 49.8581 49.4545 49.8108C49.2786 49.7634 49.1141 49.6816 48.9708 49.5702C48.6563 49.2487 48.4805 48.819 48.4805 48.3719C48.4805 47.9247 48.6563 47.4951 48.9708 47.1736C49.5817 46.4494 50.4717 46.7425 51.1523 46.8632C50.4609 46.4629 49.8119 45.995 49.2152 45.4666C49.609 45.4511 50.0004 45.3992 50.3844 45.3114L50.5415 45.1562H51.3966L50.7335 45.9839Z" fill="#ED1C24"/>
<path d="M56.9617 40.9822C56.318 41.136 55.746 41.5007 55.3388 42.0167C55.2658 41.4442 55.2658 40.865 55.3388 40.2925L56.9617 40.9822ZM54.4836 39.8442H54.5883C54.4188 40.9876 54.4188 42.1493 54.5883 43.2926L55.6529 42.8271C55.8602 42.3144 56.2193 41.8756 56.6833 41.5679C57.1473 41.2603 57.6944 41.0982 58.2532 41.1029L58.672 40.8787L55.4784 39.4477V39.3442C55.6082 39.0628 55.8169 38.8239 56.0798 38.6559C56.3426 38.4879 56.6487 38.3976 56.9617 38.3959C56.7517 38.4996 56.5895 38.6784 56.508 38.8959C56.4252 39.0451 56.4043 39.2203 56.4499 39.3845C56.4955 39.5486 56.604 39.6887 56.7523 39.7753C57.0665 39.9132 57.4504 39.6028 57.59 39.258C57.6931 39.0364 57.7091 38.7848 57.6349 38.5522C57.5608 38.3196 57.4017 38.1225 57.1886 37.9993C56.7136 37.8512 56.1994 37.8863 55.7494 38.0974C55.2994 38.3085 54.947 38.68 54.7628 39.1373C55.1538 38.1516 55.486 37.1441 55.7576 36.12L55.0595 35.8613C54.4203 38.4122 53.3715 40.8454 51.9531 43.0685H52.8606C53.4636 42.0253 54.0055 40.9488 54.4836 39.8442Z" fill="#ED1C24"/>
<path d="M55.0619 36.0876C54.8699 36.2255 54.7129 36.398 54.5035 36.3462C53.6658 36.1221 53.3167 34.8289 53.5262 33.8979C53.8372 32.7322 54.5307 31.7013 55.4982 30.9667L56.0741 30.8633C55.2441 31.5696 54.6381 32.4975 54.3289 33.5358C54.2231 33.8957 54.2227 34.2778 54.3277 34.6379C54.4328 34.998 54.6389 35.3213 54.9223 35.5703H55.219L55.3411 35.0358L56.2137 34.4151L55.9345 35.3807L60.2101 36.4497L59.4772 37.0704L55.76 36.1221L55.0619 36.0876Z" fill="#ED1C24"/>
<path d="M56.5451 30.9302L59.1279 31.1888C58.8669 31.369 58.632 31.5837 58.4299 31.8268C58.1656 31.7682 57.8914 31.7682 57.6271 31.8268C57.0828 32.0327 56.631 32.4241 56.3531 32.9303C56.4526 32.2674 56.5166 31.5997 56.5451 30.9302ZM56.0041 28.0508C55.8405 28.8737 55.7877 29.7143 55.847 30.5509C55.7852 32.1755 55.575 33.7914 55.2188 35.3786C55.5852 35.0338 56.2484 34.6717 56.6149 34.3269C56.9814 33.982 56.8418 32.6027 57.8714 32.6027C57.6969 33.2579 57.8714 34.1027 58.4997 34.1717C59.1279 34.2407 59.3024 33.7924 59.3548 33.2234C59.3548 32.9475 59.2326 32.2406 59.0058 32.1716C59.0058 31.4647 60.7509 31.0164 61.0127 30.6543L56.5625 30.206V29.3439L55.9692 28.0508" fill="#ED1C24"/>
<path d="M56.0197 24.3288L60.2953 23.777L59.8067 24.6219L57.2064 24.9322C56.8574 24.9322 56.4385 25.5702 56.3513 25.9323L56.4734 26.2599L56.6305 26.3806C56.7701 25.9668 57.0668 25.5357 57.4507 25.484C57.8347 25.4323 58.079 25.8116 58.1313 26.1909C58.1514 26.3495 58.1299 26.5105 58.0688 26.6585C58.0076 26.8064 57.909 26.9364 57.7823 27.0358C57.926 27.1119 58.0498 27.2201 58.1437 27.3518C58.2377 27.4835 58.2992 27.6351 58.3233 27.7944C58.367 27.9861 58.3355 28.187 58.2351 28.3566C58.1346 28.5263 57.9728 28.6519 57.7823 28.7082C57.5566 28.6811 57.3417 28.597 57.1584 28.4642C56.975 28.3313 56.8293 28.1541 56.7352 27.9496C56.3513 28.4668 56.456 28.5875 56.5607 29.3462L56.0197 30.1738L55.8626 28.7944C55.827 28.544 55.8601 28.2888 55.9583 28.0553C56.0565 27.8217 56.2163 27.6185 56.4211 27.4668C56.0182 27.2088 55.7213 26.8176 55.5834 26.3633C55.5834 25.5185 56.5607 24.984 57.0144 24.6391C56.388 24.9044 55.7318 25.0954 55.0598 25.2081H54.6934C55.0947 24.5184 55.4438 24.5702 55.4089 24.0701L55.8452 23.2598L56.0197 24.3288Z" fill="#ED1C24"/>
<path d="M53.6641 19.3627L54.0306 18.4144L54.4843 19.4144L58.8472 17.8281L58.5854 18.3799H58.5505C57.7303 18.604 56.3691 19.9834 56.8054 21.1731C56.8054 21.1731 56.9275 20.6903 57.2068 20.5868C57.486 20.4834 57.8874 20.742 58.027 21.1731C58.1666 21.6041 58.1317 22.3283 57.5732 22.5352C57.0148 22.7421 56.3516 22.2421 56.1248 21.5524C56.0079 21.1704 55.9998 20.7639 56.1014 20.3776C56.203 19.9913 56.4103 19.6402 56.7007 19.3627L54.8508 20.0523C55.3086 21.2687 55.6875 22.5126 55.9851 23.7766L55.3918 24.3801C54.9924 22.6533 54.4134 20.9719 53.6641 19.3627Z" fill="#ED1C24"/>
<path d="M17.4849 7.98195C16.8387 7.7442 16.1404 7.67879 15.4605 7.79229C15.7935 7.25601 16.1793 6.75356 16.6123 6.29224L17.4849 7.98195ZM17.0137 4.05078C15.4987 4.85184 14.0565 5.7806 12.7031 6.82673L13.7153 6.96467C14.2563 6.55087 15.8444 5.53359 16.1062 5.39565C15.3225 6.2636 14.6432 7.21826 14.0818 8.24058L15.1464 8.67162C17.3802 7.60262 18.0433 9.27509 18.9159 9.17164L16.7868 4.99909L17.7816 4.46458L17.0137 4.05078Z" fill="#ED1C24"/>
<path d="M17.5408 3.77469C17.8762 3.63864 18.2524 3.63864 18.5879 3.77469C18.8845 3.92987 19.059 4.24022 19.2859 4.46437C19.094 3.96435 18.518 3.61951 18.3086 3.10225C18.2572 2.95116 18.2221 2.79511 18.2039 2.63672H18.553L19.0241 3.08501L19.3732 2.94707L20.2632 3.24019L19.3034 3.654L21.0485 8.08518L20.1585 7.89553L19.059 5.0506C18.902 4.70576 18.4308 4.10229 17.82 4.46437H17.2964L16.9648 4.03332L17.5408 3.77469Z" fill="#ED1C24"/>
<path d="M22.4443 3.55289C22.4538 3.72525 22.406 3.89595 22.3084 4.03908C22.2108 4.18222 22.0685 4.28999 21.9033 4.34602C21.8698 4.35675 21.8342 4.35961 21.7993 4.35438C21.7645 4.34915 21.7313 4.33598 21.7026 4.3159C21.6738 4.29582 21.6501 4.26939 21.6334 4.23871C21.6168 4.20802 21.6076 4.17392 21.6066 4.13912C21.5814 3.96236 21.62 3.78247 21.7158 3.6311C21.8116 3.47972 21.9583 3.36655 22.1302 3.3115C22.1672 3.30399 22.2055 3.3045 22.2423 3.31299C22.2791 3.32148 22.3137 3.33776 22.3435 3.3607C22.3734 3.38364 22.3978 3.4127 22.4152 3.44588C22.4326 3.47906 22.4425 3.51557 22.4443 3.55289ZM22.3047 4.89776C22.5977 4.8204 22.8511 4.63811 23.0157 4.38634C23.1802 4.13457 23.244 3.83134 23.1947 3.53565C23.1525 3.38948 23.0815 3.25298 22.9859 3.13396C22.8902 3.01494 22.7716 2.91574 22.6371 2.84206C22.5025 2.76838 22.3546 2.72167 22.2017 2.70459C22.0488 2.6875 21.894 2.70039 21.7462 2.74252C21.4453 2.82621 21.184 3.01224 21.0083 3.26777C20.8327 3.52329 20.7541 3.8319 20.7864 4.13912C20.8936 4.43316 21.1106 4.67555 21.3929 4.81661C21.6752 4.95766 22.0014 4.9867 22.3047 4.89776ZM25.1144 7.58751L24.9573 7.00129C23.8639 6.23639 22.6944 5.58356 21.467 5.05294L21.7113 6.27712C22.8863 6.6031 24.0261 7.042 25.1144 7.58751Z" fill="#ED1C24"/>
<path d="M28.3566 1.55229L28.8104 6.38004L28.0076 5.86279L27.7807 3.3627C27.7323 3.24335 27.6511 3.13974 27.5463 3.06357C27.4414 2.9874 27.3171 2.94171 27.1874 2.93165C26.7511 2.93165 26.9081 3.39718 26.978 3.65581L26.4544 3.86272C26.467 3.83567 26.4735 3.80626 26.4735 3.7765C26.4735 3.74675 26.467 3.71734 26.4544 3.69029C26.4544 3.27649 25.7912 3.06958 25.4073 3.10407C25.1974 3.11303 24.9995 3.20291 24.856 3.35441C24.7124 3.50591 24.6347 3.70697 24.6394 3.91444C24.6394 4.12134 24.8663 4.25928 25.0932 4.311C25.0706 4.24385 25.0706 4.17126 25.0932 4.1041C25.0931 3.947 25.1551 3.79606 25.2659 3.68337C25.3767 3.57068 25.5276 3.50512 25.6865 3.50063C26.1926 3.50063 26.4719 3.98341 26.5068 4.36273C26.5417 4.74205 25.9309 4.89723 25.6865 4.93172C25.4945 4.97961 25.2944 4.9871 25.0993 4.9537C24.9041 4.92031 24.7183 4.84677 24.5537 4.73785C24.3892 4.62893 24.2496 4.48707 24.1441 4.32146C24.0387 4.15585 23.9696 3.97018 23.9414 3.7765C23.9008 3.4417 23.9925 3.10435 24.1972 2.8346C24.402 2.56485 24.7041 2.38347 25.0408 2.32818C25.2291 2.29493 25.4226 2.30401 25.6069 2.35475C25.7912 2.4055 25.9616 2.4966 26.1054 2.62129C26.303 2.41606 26.5487 2.2621 26.8209 2.173C27.3793 2.173 27.2921 2.173 27.6062 2.48335V2.65578L27.519 1.69022C26.1264 1.8384 24.7449 2.07452 23.3829 2.39714L22.3184 1.94886C24.5613 1.29891 26.8763 0.922536 29.2118 0.828125L29.7353 1.53505L28.3566 1.55229Z" fill="#ED1C24"/>
<path d="M29.493 0.758645C29.8831 0.790217 30.2457 0.969347 30.5052 1.25866C30.6994 1.5382 30.8303 1.85575 30.8892 2.18973C30.8892 1.63799 30.5052 1.08625 30.5227 0.465534C30.4973 0.311372 30.4973 0.154163 30.5227 0L30.8194 0.206902L31.0288 0.741406H31.4127L32.1457 1.46557H31.1161L30.9764 6.24159L30.2958 5.5864V2.53457C30.2958 2.22422 30.0864 1.5173 29.7199 1.46557C29.7199 1.46557 28.9695 1.46557 28.5332 1.46557V0.741406L29.493 0.758645Z" fill="#ED1C24"/>
<path d="M35.8639 1.82648C34.2758 2.2058 33.5254 2.48168 33.3509 4.10242C33.3509 4.5852 33.3509 5.60247 34.1187 5.61972C34.0514 5.58988 33.9941 5.54147 33.9539 5.48031C33.9137 5.41915 33.8921 5.34782 33.8919 5.27488C33.9026 5.18853 33.9306 5.10515 33.9743 5.02962C34.018 4.95409 34.0765 4.88791 34.1463 4.83495C34.2162 4.78198 34.296 4.74329 34.3812 4.72113C34.4663 4.69898 34.5551 4.69379 34.6423 4.70589C34.8352 4.72344 35.0137 4.81399 35.1405 4.9586C35.2674 5.10321 35.3327 5.29067 35.3229 5.48178C35.2647 5.71444 35.118 5.91598 34.9132 6.04445C34.7084 6.17291 34.4613 6.2184 34.2235 6.17146C32.932 5.99904 32.4783 4.60244 32.6354 3.6024C32.6899 3.21535 32.8232 2.84321 33.0271 2.50837C33.2311 2.17354 33.5015 1.88293 33.8221 1.65406C33.2985 1.65406 31.85 1.48164 31.2567 1.4644L31.0996 0.740234C32.7874 0.775875 34.4689 0.954702 36.1257 1.27474C36.1257 1.27474 35.9861 1.70579 35.8639 1.82648Z" fill="#ED1C24"/>
<path d="M37.4338 2.32837L36.98 4.05257C37.6994 3.5049 38.585 3.21327 39.4931 3.22495L40.3307 4.13878C39.7264 4.66956 39.2952 5.36566 39.0917 6.13885C38.9961 6.60382 38.961 7.07893 38.987 7.55269L38.4809 7.15612C38.4339 6.49275 38.4749 5.82614 38.603 5.17329C38.6946 4.85498 38.8235 4.54831 38.987 4.25947C38.5445 4.29289 38.1139 4.41755 37.7232 4.62543C37.3324 4.83331 36.9901 5.1198 36.7183 5.46641L36.0725 4.53534L36.6659 2.08698L34.7637 1.74215L35.6188 1.13867C37.9041 1.55106 40.1307 2.23417 42.2504 3.17323L42.1457 3.91463C40.6283 3.24244 39.0509 2.71139 37.4338 2.32837Z" fill="#ED1C24"/>
<path d="M42.5298 3.34423C42.7484 3.4828 42.9274 3.67444 43.0496 3.90085C43.1718 4.12725 43.2332 4.38084 43.2279 4.63738C43.6494 4.44452 44.1285 4.41378 44.5717 4.55117C45.2872 4.94774 45.0778 6.27537 45.0952 6.75815C45.2499 6.02953 45.4961 5.32288 45.8282 4.65462L46.0027 4.32703C46.3168 5.05119 46.1074 5.39603 46.5437 5.60293L46.8055 6.63745L45.9329 6.05123L43.8911 10.0858L43.5071 9.18927L44.7462 6.75815C44.8017 6.53464 44.8038 6.30143 44.7523 6.07698C44.7008 5.85254 44.5971 5.64302 44.4495 5.465H44.1354H43.9434C44.087 5.62774 44.1839 5.82556 44.2238 6.03784C44.2637 6.25013 44.2452 6.4691 44.1703 6.67193C44.0709 6.81567 43.919 6.91575 43.7465 6.95112C43.574 6.98649 43.3944 6.9544 43.2453 6.8616C43.1133 6.77638 43.0066 6.65804 42.9361 6.51868C42.8655 6.37932 42.8337 6.22395 42.844 6.06847C42.704 6.14097 42.5483 6.17884 42.3902 6.17884C42.2322 6.17884 42.0765 6.14097 41.9365 6.06847C41.7559 5.98547 41.614 5.83779 41.5395 5.65533C41.465 5.47286 41.4634 5.26924 41.5351 5.08567C41.6743 4.9113 41.8566 4.77528 42.0644 4.69072C42.2723 4.60616 42.4987 4.57592 42.7218 4.6029C42.7218 4.29255 42.4949 4.03391 41.9016 3.68907L42.0412 3.06836L42.5298 3.34423Z" fill="#ED1C24"/>
<path d="M11.429 39.1364L10.5215 21.8944C10.5215 20.4978 12.4063 20.4633 12.4586 21.8944L11.429 39.1364Z" fill="#00A651"/>
<path d="M51.5687 24.3613L52.005 33.6548C52.005 34.5686 50.8008 34.5686 50.8008 33.6548L51.5687 24.3613Z" fill="#00A651"/>
<path d="M9.8426 24.3613L10.3487 33.6548C10.3487 34.5686 9.14453 34.5686 9.14453 33.6548L9.8426 24.3613Z" fill="#00A651"/>
</svg>
