<svg width="130" height="130" viewBox="0 0 130 130" fill="none" xmlns="http://www.w3.org/2000/svg">
<circle cx="65" cy="65" r="65" fill="#F5F5F5"/>
<path d="M95.6693 85.0134L74.7376 48.755C74.4319 48.2211 73.9284 47.8289 73.336 47.663C72.7435 47.4971 72.1095 47.5708 71.571 47.8684L55.3893 57.1784C54.8608 57.4894 54.4752 57.9951 54.3154 58.5872C54.1555 59.1792 54.2341 59.8103 54.5343 60.345L75.466 96.6667C75.8744 97.3805 76.4646 97.9734 77.1766 98.385C77.8886 98.7967 78.6969 99.0123 79.5193 99.01H79.836C80.7094 98.9576 81.5511 98.6632 82.2669 98.1599C82.9827 97.6566 83.5444 96.9642 83.8893 96.16L85.8843 91.3784L91.0776 92.0117C91.959 92.133 92.8566 92.0044 93.6684 91.6405C94.4802 91.2766 95.1735 90.692 95.6693 89.9534C96.1258 89.2104 96.3675 88.3554 96.3675 87.4834C96.3675 86.6113 96.1258 85.7564 95.6693 85.0134Z" fill="#FFD503"/>
<path d="M74.9893 58.6676C74.9117 58.3628 74.7736 58.0768 74.5832 57.8265C74.3928 57.5763 74.1539 57.3669 73.8809 57.2109L57.6676 47.8692C57.1273 47.5799 56.4961 47.5106 55.906 47.6759C55.3158 47.8411 54.8124 48.2281 54.5009 48.7559L33.5693 85.0142C33.1128 85.7572 32.8711 86.6122 32.8711 87.4842C32.8711 88.3563 33.1128 89.2112 33.5693 89.9542C34.0536 90.683 34.7298 91.2638 35.5232 91.6326C36.3167 92.0014 37.1966 92.1438 38.0659 92.0442L43.1959 91.3792L45.2543 96.1926C45.5992 96.9967 46.1609 97.6892 46.8767 98.1925C47.5925 98.6957 48.4341 98.9901 49.3076 99.0426H49.7509C50.5758 99.0384 51.385 98.8166 52.0967 98.3996C52.8084 97.9826 53.3974 97.3851 53.8043 96.6676L74.7359 60.3776C75.0383 59.8618 75.1291 59.2489 74.9893 58.6676Z" fill="#FFD503"/>
<path d="M90.2832 53.3157L87.4648 50.4973C87.1713 50.2014 86.9392 49.8505 86.7816 49.4647C86.624 49.0789 86.5441 48.6658 86.5465 48.249V45.0823C86.5465 42.9714 85.7101 40.9464 84.2204 39.4508C82.7307 37.9552 80.7091 37.1107 78.5982 37.1023H75.4315C75.0148 37.1047 74.6016 37.0249 74.2158 36.8673C73.83 36.7097 73.4791 36.4775 73.1832 36.184L70.3332 33.334C68.8138 31.8859 66.7954 31.0781 64.6965 31.0781C62.5976 31.0781 60.5792 31.8859 59.0598 33.334L56.2732 36.1207C55.9773 36.4142 55.6264 36.6464 55.2405 36.8039C54.8547 36.9615 54.4416 37.0414 54.0248 37.039H50.8582C49.7996 37.018 48.7475 37.2078 47.7631 37.5975C46.7786 37.9871 45.8815 38.5687 45.1241 39.3085C44.3667 40.0482 43.764 40.9313 43.3512 41.9063C42.9385 42.8812 42.7238 43.9286 42.7198 44.9873V48.154C42.7392 48.5844 42.6706 49.0142 42.5181 49.4171C42.3657 49.82 42.1326 50.1876 41.8332 50.4973L39.0148 53.3157C38.2787 54.0512 37.6955 54.9251 37.2987 55.8871C36.902 56.8491 36.6996 57.8801 36.7032 58.9207C36.7014 61.0307 37.5321 63.0562 39.0148 64.5573L41.8332 67.344C42.1305 67.6437 42.3649 67.9997 42.5226 68.3913C42.6803 68.7828 42.7581 69.2019 42.7515 69.624V72.7907C42.7432 73.8386 42.9413 74.878 43.3346 75.8493C43.728 76.8207 44.3088 77.7051 45.0439 78.452C45.7791 79.1989 46.6541 79.7937 47.6191 80.2024C48.5841 80.6111 49.6202 80.8257 50.6682 80.834H53.8348C54.2538 80.8357 54.6683 80.9206 55.0542 81.0837C55.4401 81.2468 55.7899 81.4848 56.0832 81.784L58.8698 84.5707C60.3739 86.0482 62.3981 86.8761 64.5065 86.8761C66.6149 86.8761 68.6391 86.0482 70.1432 84.5707L72.9298 81.784C73.2231 81.4848 73.5729 81.2468 73.9588 81.0837C74.3447 80.9206 74.7592 80.8357 75.1782 80.834H78.3448C80.4503 80.8257 82.4672 79.9856 83.956 78.4968C85.4447 77.008 86.2848 74.9911 86.2932 72.8857V69.719C86.2866 69.2969 86.3644 68.8778 86.5221 68.4863C86.6798 68.0947 86.9142 67.7387 87.2115 67.439L90.0298 64.6523C90.7916 63.925 91.4025 63.0547 91.8276 62.0911C92.2527 61.1275 92.4836 60.0895 92.5071 59.0365C92.5307 57.9836 92.3463 56.9363 91.9647 55.9547C91.5831 54.973 91.0117 54.0763 90.2832 53.3157Z" fill="#00B140"/>
<path d="M62.5441 66.3303C61.9061 66.3246 61.2944 66.0754 60.8341 65.6336L55.5774 60.3453C55.1326 59.9 54.8828 59.2964 54.8828 58.667C54.8828 58.0376 55.1326 57.434 55.5774 56.9886C56.032 56.5494 56.6394 56.304 57.2716 56.304C57.9037 56.304 58.5111 56.5494 58.9657 56.9886L62.5441 60.5986L71.4107 51.7003C71.8653 51.2611 72.4728 51.0156 73.1049 51.0156C73.737 51.0156 74.3444 51.2611 74.7991 51.7003C75.2438 52.1456 75.4936 52.7493 75.4936 53.3786C75.4936 54.008 75.2438 54.6117 74.7991 55.057L64.2224 65.6336C63.7736 66.0734 63.1724 66.323 62.5441 66.3303Z" fill="white"/>
</svg>
