<svg width="188" height="46" viewBox="0 0 188 46" fill="none" xmlns="http://www.w3.org/2000/svg">
<path fill-rule="evenodd" clip-rule="evenodd" d="M154.656 13.58C154.38 13.9352 154.027 14.2239 153.622 14.424C153.217 14.6241 152.771 14.7305 152.318 14.735C151.559 14.735 150.831 14.4371 150.294 13.9068C149.757 13.3764 149.455 12.6572 149.455 11.9072C149.455 11.1572 149.757 10.4379 150.294 9.90752C150.831 9.37719 151.559 9.07926 152.318 9.07926C152.75 9.09209 153.173 9.20078 153.557 9.39727C153.941 9.59377 154.275 9.87303 154.535 10.2144C154.606 10.2802 154.7 10.3168 154.797 10.3168C154.894 10.3168 154.988 10.2802 155.059 10.2144L156.047 9.37798C156.115 9.30455 156.152 9.20864 156.152 9.10913C156.152 9.00961 156.115 8.91371 156.047 8.84029C155.592 8.2778 155.016 7.82306 154.36 7.50946C153.704 7.19586 152.986 7.03136 152.257 7.02805C151.615 7.01709 150.978 7.13456 150.383 7.37338C149.789 7.61221 149.249 7.96746 148.797 8.41772C148.345 8.86799 147.99 9.40397 147.754 9.99338C147.517 10.5828 147.403 11.2135 147.42 11.8474C147.406 12.4901 147.524 13.1288 147.768 13.7248C148.012 14.3208 148.376 14.8616 148.837 15.3142C149.299 15.7669 149.85 16.122 150.455 16.3579C151.06 16.5939 151.708 16.7057 152.358 16.6867C153.141 16.6914 153.914 16.5135 154.615 16.1675C155.315 15.8214 155.923 15.317 156.389 14.6952C156.457 14.6218 156.495 14.5259 156.495 14.4264C156.495 14.3268 156.457 14.2309 156.389 14.1575L155.381 13.4207C155.336 13.3567 155.272 13.3075 155.198 13.2793C155.123 13.2511 155.043 13.2451 154.965 13.2621C154.888 13.2791 154.817 13.3184 154.762 13.3749C154.707 13.4315 154.67 13.5028 154.656 13.58Z" fill="#000035"/>
<path fill-rule="evenodd" clip-rule="evenodd" d="M158.163 16.5677H159.493C159.544 16.5706 159.595 16.5628 159.643 16.5448C159.691 16.5268 159.734 16.4991 159.77 16.4633C159.806 16.4276 159.835 16.3847 159.853 16.3375C159.871 16.2903 159.879 16.2398 159.876 16.1893V7.64595C159.876 7.54559 159.836 7.44936 159.764 7.3784C159.692 7.30744 159.595 7.26758 159.493 7.26758H158.163C158.061 7.26758 157.964 7.30744 157.892 7.3784C157.82 7.44936 157.78 7.54559 157.78 7.64595V16.1694C157.774 16.2215 157.779 16.2742 157.796 16.3238C157.813 16.3735 157.841 16.4189 157.877 16.4568C157.914 16.4948 157.958 16.5244 158.007 16.5436C158.057 16.5627 158.11 16.571 158.163 16.5677Z" fill="#000035"/>
<path fill-rule="evenodd" clip-rule="evenodd" d="M178.346 7.58729L182.095 15.5532L179.777 20.8903C179.676 21.0695 179.777 21.2288 179.999 21.2288H181.47C181.583 21.2244 181.693 21.1908 181.788 21.1314C181.884 21.072 181.962 20.9888 182.014 20.8903L187.739 7.68687C187.84 7.50764 187.739 7.34832 187.517 7.34832H186.046C185.937 7.35614 185.831 7.39131 185.739 7.45054C185.648 7.50978 185.573 7.59111 185.522 7.68687L183.244 13.0041L180.624 7.60721C180.569 7.50992 180.491 7.42784 180.396 7.36864C180.3 7.30943 180.192 7.27503 180.079 7.26866H178.527C178.488 7.26461 178.449 7.27196 178.414 7.28981C178.379 7.30766 178.35 7.33522 178.331 7.36909C178.311 7.40297 178.302 7.44167 178.305 7.48045C178.308 7.51922 178.322 7.55635 178.346 7.58729Z" fill="#000035"/>
<path fill-rule="evenodd" clip-rule="evenodd" d="M131.861 9.18004C130.652 8.66226 129.584 8.24405 129.584 7.18857C129.593 6.96306 129.65 6.74192 129.75 6.53912C129.85 6.33631 129.992 6.15625 130.166 6.01029C130.341 5.86432 130.544 5.75564 130.762 5.69108C130.981 5.62653 131.211 5.60751 131.438 5.63523C132.16 5.63881 132.864 5.86125 133.454 6.2725C133.518 6.33574 133.605 6.37124 133.696 6.37124C133.786 6.37124 133.873 6.33574 133.938 6.2725L134.704 5.31659C134.768 5.25313 134.804 5.16721 134.804 5.07762C134.804 4.98803 134.768 4.9021 134.704 4.83864C133.785 4.10439 132.64 3.7037 131.458 3.7035C130.975 3.67118 130.49 3.73473 130.032 3.89042C129.575 4.0461 129.153 4.29077 128.792 4.60999C128.432 4.92921 128.139 5.31653 127.932 5.74912C127.726 6.18172 127.609 6.65084 127.588 7.12883C127.588 7.69971 127.739 8.26072 128.025 8.75659C128.311 9.25247 128.724 9.66609 129.221 9.95671C129.772 10.3052 130.36 10.5924 130.975 10.813C132.224 11.3308 133.333 11.8287 133.333 13.0236C133.331 13.27 133.275 13.5131 133.168 13.7358C133.061 13.9585 132.906 14.1554 132.714 14.3129C132.522 14.4703 132.297 14.5844 132.056 14.6472C131.815 14.71 131.563 14.72 131.317 14.6765C130.784 14.6578 130.261 14.5315 129.779 14.3055C129.297 14.0794 128.867 13.7584 128.515 13.3621C128.485 13.3314 128.449 13.307 128.409 13.2903C128.37 13.2736 128.327 13.265 128.284 13.265C128.24 13.265 128.198 13.2736 128.158 13.2903C128.118 13.307 128.082 13.3314 128.052 13.3621L127.145 14.2583C127.079 14.3251 127.043 14.4143 127.043 14.5072C127.043 14.6001 127.079 14.6893 127.145 14.7561C127.667 15.3755 128.32 15.8746 129.059 16.2186C129.797 16.5626 130.602 16.7431 131.418 16.7476C131.935 16.7862 132.455 16.7183 132.944 16.5483C133.434 16.3782 133.882 16.1097 134.261 15.7597C134.64 15.4097 134.941 14.9858 135.146 14.5148C135.35 14.0438 135.454 13.5361 135.449 13.0236C135.464 12.436 135.324 11.8547 135.041 11.3375C134.758 10.8204 134.343 10.3856 133.837 10.0762C133.211 9.71239 132.549 9.41214 131.861 9.18004Z" fill="#000035"/>
<path fill-rule="evenodd" clip-rule="evenodd" d="M176.591 14.7167H176.208C176.001 14.7285 175.794 14.6973 175.599 14.6253C175.405 14.5533 175.228 14.442 175.08 14.2985C174.877 13.9853 174.791 13.612 174.838 13.243V9.2601H176.853C177.055 9.2601 177.277 9.2601 177.196 8.90164L176.813 7.70676C176.791 7.60973 176.738 7.52229 176.662 7.45763C176.586 7.39297 176.49 7.3546 176.39 7.34829H174.737V5.15767C174.737 5.05731 174.697 4.96108 174.625 4.89012C174.553 4.81916 174.455 4.7793 174.354 4.7793H173.165C173.063 4.7793 172.966 4.81916 172.894 4.89012C172.822 4.96108 172.782 5.05731 172.782 5.15767V7.26863H171.149C170.826 7.26863 170.726 7.42794 170.786 7.647L170.968 8.80206C170.968 8.98129 171.149 9.18044 171.351 9.18044H172.681V13.1634C172.608 14.0591 172.881 14.9489 173.447 15.6527C173.779 16.0148 174.188 16.3005 174.644 16.4897C175.1 16.679 175.593 16.7671 176.087 16.748H176.511C176.612 16.7385 176.707 16.6929 176.778 16.6197C176.848 16.5465 176.889 16.4506 176.894 16.3497V15.0752C176.899 14.9885 176.871 14.903 176.815 14.8363C176.759 14.7695 176.679 14.7268 176.591 14.7167Z" fill="#000035"/>
<path fill-rule="evenodd" clip-rule="evenodd" d="M158.734 3.42593C158.466 3.42198 158.203 3.49685 157.978 3.64104C157.754 3.78523 157.577 3.99221 157.472 4.23565C157.367 4.47908 157.337 4.74797 157.387 5.0081C157.437 5.26822 157.564 5.50782 157.752 5.69642C157.94 5.88502 158.18 6.0141 158.443 6.06722C158.705 6.12034 158.978 6.09509 159.226 5.99471C159.474 5.89434 159.686 5.72336 159.835 5.50353C159.985 5.2837 160.064 5.02495 160.064 4.76021C160.067 4.58594 160.035 4.41287 159.969 4.2511C159.903 4.08933 159.806 3.94208 159.682 3.81791C159.558 3.69374 159.411 3.59514 159.248 3.52785C159.085 3.46055 158.91 3.42591 158.734 3.42593Z" fill="#000035"/>
<path fill-rule="evenodd" clip-rule="evenodd" d="M141.393 7.09087C140.42 7.07108 139.462 7.3385 138.643 7.85895C137.824 8.37941 137.181 9.12929 136.795 10.0128C136.409 10.8963 136.299 11.8733 136.478 12.8191C136.657 13.7648 137.118 14.6364 137.8 15.3224C138.483 16.0084 139.358 16.4777 140.312 16.6704C141.266 16.863 142.256 16.7703 143.157 16.4041C144.058 16.0379 144.827 15.4147 145.368 14.6143C145.908 13.8138 146.195 12.8724 146.191 11.9102C146.21 11.279 146.099 10.6504 145.866 10.0624C145.633 9.47442 145.281 8.93917 144.833 8.48889C144.385 8.0386 143.849 7.6826 143.258 7.44234C142.667 7.20208 142.033 7.08252 141.393 7.09087ZM141.393 14.7381C140.821 14.774 140.251 14.6392 139.757 14.3511C139.263 14.063 138.868 13.6349 138.623 13.1224C138.379 12.6098 138.295 12.0365 138.384 11.4767C138.474 10.9168 138.731 10.3964 139.123 9.98278C139.515 9.56917 140.024 9.28148 140.583 9.15704C141.143 9.03261 141.728 9.07714 142.261 9.28488C142.795 9.49263 143.253 9.85401 143.576 10.3221C143.9 10.7902 144.073 11.3435 144.074 11.9102C144.093 12.2715 144.038 12.6329 143.913 12.9727C143.787 13.3124 143.593 13.6237 143.343 13.8877C143.093 14.1518 142.791 14.3632 142.456 14.5093C142.121 14.6554 141.76 14.7332 141.393 14.7381Z" fill="#000035"/>
<path fill-rule="evenodd" clip-rule="evenodd" d="M165.905 7.08984C165.283 7.09375 164.667 7.22384 164.097 7.4721C163.527 7.72036 163.014 8.08151 162.591 8.5332C162.168 8.98489 161.843 9.51753 161.637 10.0982C161.43 10.6789 161.346 11.2953 161.39 11.9092C161.368 12.5421 161.477 13.1728 161.709 13.7632C161.941 14.3535 162.292 14.8911 162.74 15.3436C163.189 15.796 163.726 16.1538 164.318 16.3953C164.911 16.6368 165.547 16.7569 166.188 16.7485C166.885 16.767 167.579 16.638 168.222 16.3701C168.865 16.1022 169.443 15.7016 169.917 15.1951C169.986 15.1184 170.025 15.0192 170.025 14.9163C170.025 14.8134 169.986 14.7142 169.917 14.6375L169.07 13.8409C168.999 13.7751 168.905 13.7385 168.808 13.7385C168.711 13.7385 168.617 13.7751 168.546 13.8409C168.257 14.1659 167.9 14.4251 167.5 14.6004C167.1 14.7758 166.666 14.8632 166.228 14.8566C165.543 14.8557 164.883 14.6053 164.373 14.1533C163.864 13.7014 163.541 13.0796 163.467 12.4071H169.997C170.199 12.4071 170.38 12.4071 170.4 12.1482V11.8893C170.439 11.2793 170.351 10.6679 170.144 10.0921C169.936 9.51642 169.612 8.98829 169.192 8.53967C168.772 8.09105 168.264 7.73126 167.699 7.48207C167.134 7.23288 166.524 7.09945 165.905 7.08984ZM163.426 10.794C163.608 10.2601 163.955 9.79596 164.417 9.46722C164.88 9.13848 165.436 8.9617 166.006 8.96183C166.55 8.98101 167.074 9.16809 167.504 9.49675C167.934 9.82542 168.249 10.2791 168.405 10.794H163.426Z" fill="#000035"/>
<path fill-rule="evenodd" clip-rule="evenodd" d="M59.64 15.0147V16.1698C59.64 16.2701 59.5996 16.3664 59.5278 16.4373C59.456 16.5083 59.3586 16.5481 59.257 16.5481H53.8953C53.8442 16.551 53.7931 16.5432 53.7454 16.5252C53.6976 16.5072 53.6542 16.4795 53.618 16.4437C53.5818 16.408 53.5537 16.3651 53.5355 16.3179C53.5173 16.2707 53.5094 16.2202 53.5123 16.1698V15.0147C53.5094 14.9643 53.5173 14.9138 53.5355 14.8666C53.5537 14.8193 53.5818 14.7765 53.618 14.7407C53.6542 14.705 53.6976 14.6772 53.7454 14.6592C53.7931 14.6412 53.8442 14.6334 53.8953 14.6363H55.528V5.73446H53.9558C53.8558 5.72963 53.7612 5.68823 53.6904 5.61829C53.6196 5.54835 53.5777 5.45489 53.5728 5.35609V4.18112C53.5777 4.08233 53.6196 3.98886 53.6904 3.91892C53.7612 3.84898 53.8558 3.80756 53.9558 3.80273H59.1562C59.2578 3.80273 59.3552 3.84261 59.4271 3.91357C59.4989 3.98453 59.5392 4.08077 59.5392 4.18112V5.35609C59.5392 5.45645 59.4989 5.55268 59.4271 5.62364C59.3552 5.6946 59.2578 5.73446 59.1562 5.73446H57.6243V14.5766H59.257C59.3129 14.5759 59.3681 14.5873 59.419 14.6099C59.4699 14.6325 59.5152 14.6659 59.5517 14.7076C59.5882 14.7494 59.615 14.7985 59.6302 14.8515C59.6455 14.9046 59.6488 14.9603 59.64 15.0147Z" fill="#000035"/>
<path fill-rule="evenodd" clip-rule="evenodd" d="M67.7419 11.9094V16.1711C67.7419 16.2715 67.7823 16.3677 67.8541 16.4387C67.9259 16.5096 68.0233 16.5495 68.1249 16.5495H69.4553C69.5063 16.5524 69.5574 16.5446 69.6052 16.5266C69.653 16.5086 69.6964 16.4808 69.7326 16.4451C69.7687 16.4094 69.7968 16.3665 69.8151 16.3193C69.8333 16.272 69.8412 16.2216 69.8382 16.1711V12.0089C69.9363 10.8423 69.6151 9.67891 68.9312 8.72302C68.572 8.21824 68.0951 7.80633 67.5407 7.52209C66.9864 7.23786 66.3709 7.08965 65.7464 7.09001C64.8772 7.08149 64.0361 7.39399 63.388 7.96626V7.62772C63.3828 7.53086 63.3403 7.43966 63.269 7.37295C63.1977 7.30624 63.1032 7.26912 63.0051 7.26925H61.715C61.615 7.27408 61.5204 7.3155 61.4496 7.38544C61.3788 7.45538 61.3369 7.54883 61.332 7.64762V16.1711C61.332 16.2715 61.3724 16.3677 61.4442 16.4387C61.516 16.5096 61.6134 16.5495 61.715 16.5495H63.0655C63.1671 16.5495 63.2645 16.5096 63.3363 16.4387C63.4081 16.3677 63.4485 16.2715 63.4485 16.1711V10.1967C63.6947 9.83257 64.0273 9.53336 64.4172 9.32511C64.8071 9.11687 65.2427 9.00589 65.6859 9.00182C65.9957 8.99695 66.3015 9.07145 66.5735 9.21803C66.8455 9.36461 67.0744 9.57828 67.238 9.83825C67.6632 10.4416 67.8431 11.181 67.7419 11.9094Z" fill="#000035"/>
<path fill-rule="evenodd" clip-rule="evenodd" d="M76.168 14.7167H75.785C75.3682 14.7267 74.9637 14.5769 74.6563 14.2985C74.4636 13.9816 74.3854 13.6095 74.4345 13.243V9.2601H76.2486C76.3502 9.2601 76.4476 9.22024 76.5195 9.14928C76.5913 9.07832 76.6316 8.98207 76.6316 8.88172L76.8937 7.72666C76.8888 7.62787 76.8469 7.5344 76.7761 7.46446C76.7053 7.39452 76.6107 7.35312 76.5107 7.34829H74.495V5.15767C74.4901 5.05887 74.4482 4.96542 74.3774 4.89548C74.3066 4.82554 74.212 4.78412 74.112 4.7793H72.7615C72.6615 4.78412 72.5669 4.82554 72.4961 4.89548C72.4253 4.96542 72.3834 5.05887 72.3785 5.15767V7.26863H70.8668C70.5443 7.26863 70.4233 7.42794 70.4838 7.647C70.5442 7.86606 70.6854 8.80206 70.6854 8.80206C70.6854 8.80206 70.8466 9.18044 71.0683 9.18044H72.3785V13.1634C72.3189 14.0576 72.5912 14.9426 73.1445 15.6527C73.4809 16.0153 73.8931 16.301 74.3526 16.4902C74.8121 16.6794 75.3078 16.7673 75.8052 16.748H76.2083C76.2613 16.7455 76.3132 16.7326 76.3612 16.7102C76.4091 16.6878 76.4521 16.6563 76.4877 16.6174C76.5232 16.5786 76.5507 16.5332 76.5685 16.4838C76.5863 16.4345 76.594 16.3821 76.5913 16.3298V15.0752C76.6015 15.0204 76.597 14.9638 76.5781 14.9113C76.5593 14.8587 76.5268 14.812 76.484 14.7757C76.4412 14.7394 76.3894 14.7149 76.334 14.7045C76.2786 14.6942 76.2213 14.6984 76.168 14.7167Z" fill="#000035"/>
<path fill-rule="evenodd" clip-rule="evenodd" d="M93.0619 7.09099H92.7394C92.2717 7.07912 91.8063 7.15929 91.3702 7.32681C90.9342 7.49434 90.5363 7.7459 90.1996 8.06682V7.6486C90.1947 7.54981 90.1528 7.45636 90.082 7.38642C90.0112 7.31648 89.9166 7.27506 89.8166 7.27023H88.5064C88.4048 7.27023 88.3074 7.3101 88.2356 7.38106C88.1638 7.45202 88.1234 7.54825 88.1234 7.6486V16.1721C88.1174 16.2241 88.123 16.2768 88.1399 16.3265C88.1567 16.3761 88.1844 16.4215 88.2209 16.4595C88.2574 16.4975 88.3019 16.5271 88.3512 16.5462C88.4005 16.5654 88.4535 16.5736 88.5064 16.5704H89.8368C89.8878 16.5733 89.9389 16.5655 89.9867 16.5475C90.0345 16.5295 90.0779 16.5017 90.1141 16.466C90.1502 16.4302 90.1784 16.3874 90.1966 16.3402C90.2148 16.2929 90.2227 16.2424 90.2198 16.192V10.596C90.4536 10.1901 90.7861 9.84823 91.1873 9.60134C91.5886 9.35445 92.0458 9.21034 92.5176 9.18204H92.9812C93.0257 9.19101 93.0716 9.18999 93.1156 9.17905C93.1596 9.16811 93.2005 9.14754 93.2353 9.11885C93.2702 9.09016 93.298 9.0541 93.3169 9.01333C93.3357 8.97256 93.345 8.92812 93.344 8.88332V7.56896C93.3689 7.46869 93.3533 7.36281 93.3007 7.27365C93.248 7.18449 93.1624 7.11901 93.0619 7.09099Z" fill="#000035"/>
<path fill-rule="evenodd" clip-rule="evenodd" d="M99.1429 9.08283C99.4516 9.08359 99.7553 9.16049 100.026 9.30655C100.297 9.45261 100.527 9.66322 100.695 9.91926C101.111 10.4965 101.291 11.2079 101.199 11.9107V16.1725C101.199 16.2728 101.239 16.3691 101.311 16.44C101.383 16.511 101.48 16.5508 101.582 16.5508H102.932C102.983 16.5537 103.035 16.5459 103.082 16.5279C103.13 16.5099 103.174 16.4822 103.21 16.4464C103.246 16.4107 103.274 16.3678 103.292 16.3206C103.31 16.2734 103.318 16.2229 103.315 16.1725V12.0103C103.43 10.8259 103.131 9.63839 102.469 8.64471C102.094 8.14748 101.603 7.74677 101.038 7.4764C100.473 7.20604 99.8509 7.07396 99.2235 7.09137C98.3484 7.08361 97.5013 7.39569 96.845 7.96762V7.62907C96.8451 7.58027 96.8351 7.53197 96.8156 7.48713C96.7961 7.44229 96.7676 7.40185 96.7317 7.36829C96.6959 7.33473 96.6534 7.30875 96.6071 7.29195C96.5607 7.27516 96.5113 7.26789 96.462 7.27061H95.172C95.0739 7.27571 94.9816 7.31782 94.9141 7.38823C94.8466 7.45865 94.809 7.55198 94.8092 7.64897V16.1725C94.8064 16.2212 94.8137 16.2699 94.8307 16.3158C94.8477 16.3616 94.874 16.4035 94.908 16.4389C94.942 16.4743 94.9829 16.5025 95.0283 16.5218C95.0737 16.541 95.1226 16.5509 95.172 16.5508H96.5628C96.6139 16.5537 96.6649 16.5459 96.7127 16.5279C96.7605 16.5099 96.8039 16.4822 96.8401 16.4464C96.8763 16.4107 96.9044 16.3678 96.9226 16.3206C96.9408 16.2734 96.9487 16.2229 96.9458 16.1725V10.1981C97.197 9.85413 97.527 9.57379 97.9089 9.37996C98.2907 9.18614 98.7136 9.08432 99.1429 9.08283Z" fill="#000035"/>
<path fill-rule="evenodd" clip-rule="evenodd" d="M119.909 14.7167H119.526C119.102 14.732 118.689 14.5817 118.377 14.2985C118.194 13.978 118.116 13.6091 118.155 13.243V9.2601H119.909C119.96 9.26299 120.011 9.25518 120.059 9.23719C120.107 9.2192 120.15 9.19142 120.186 9.15569C120.222 9.11996 120.25 9.07709 120.269 9.02987C120.287 8.98265 120.295 8.93216 120.292 8.88172V7.72666C120.292 7.62631 120.251 7.53008 120.18 7.45912C120.108 7.38816 120.01 7.34829 119.909 7.34829H118.155V5.15767C118.15 5.05887 118.108 4.96542 118.038 4.89548C117.967 4.82554 117.872 4.78412 117.772 4.7793H116.422C116.322 4.78412 116.227 4.82554 116.156 4.89548C116.085 4.96542 116.044 5.05887 116.039 5.15767V7.26863H114.527C114.204 7.26863 114.083 7.42794 114.144 7.647C114.204 7.86606 114.346 8.80206 114.346 8.80206C114.346 8.80206 114.507 9.18044 114.728 9.18044H116.039V13.1634C115.979 14.0576 116.251 14.9426 116.805 15.6527C117.141 16.0153 117.553 16.301 118.013 16.4902C118.472 16.6794 118.968 16.7673 119.465 16.748H119.868C119.921 16.7455 119.973 16.7326 120.021 16.7102C120.069 16.6878 120.112 16.6563 120.148 16.6174C120.183 16.5786 120.211 16.5332 120.229 16.4838C120.246 16.4345 120.254 16.3821 120.251 16.3298V15.0752C120.258 15.0284 120.253 14.9809 120.238 14.936C120.224 14.8911 120.199 14.8501 120.166 14.8158C120.133 14.7815 120.093 14.7548 120.049 14.7377C120.004 14.7205 119.956 14.7134 119.909 14.7167Z" fill="#000035"/>
<path fill-rule="evenodd" clip-rule="evenodd" d="M82.1711 7.08984C81.5482 7.09375 80.9326 7.22384 80.3626 7.4721C79.7925 7.72036 79.2801 8.08151 78.8569 8.5332C78.4337 8.98489 78.1088 9.51753 77.9022 10.0982C77.6957 10.6789 77.6118 11.2953 77.656 11.9092C77.6341 12.5421 77.7425 13.1728 77.9745 13.7632C78.2066 14.3535 78.5575 14.8911 79.006 15.3436C79.4545 15.796 79.9913 16.1538 80.5838 16.3953C81.1764 16.6368 81.8124 16.7569 82.4533 16.7485C83.1519 16.7736 83.8476 16.6476 84.4917 16.3793C85.1359 16.111 85.7129 15.7068 86.1824 15.1951C86.2518 15.1184 86.2901 15.0192 86.2901 14.9163C86.2901 14.8134 86.2518 14.7142 86.1824 14.6375L85.3357 13.8409C85.2647 13.7751 85.1711 13.7385 85.0737 13.7385C84.9764 13.7385 84.8827 13.7751 84.8117 13.8409C84.5228 14.1659 84.1659 14.4251 83.7656 14.6004C83.3654 14.7758 82.9314 14.8632 82.4936 14.8566C81.812 14.8562 81.1542 14.6086 80.6451 14.1607C80.1361 13.7129 79.8112 13.0959 79.7321 12.427H86.263C86.35 12.4358 86.4374 12.4149 86.5108 12.3678C86.5841 12.3207 86.6389 12.2502 86.6661 12.1681V11.8893C86.7043 11.2792 86.617 10.6679 86.4092 10.0921C86.2015 9.51642 85.8778 8.98829 85.4577 8.53967C85.0375 8.09105 84.5296 7.73126 83.9647 7.48207C83.3999 7.23288 82.7897 7.09945 82.1711 7.08984ZM79.6918 10.794C79.8734 10.2601 80.2202 9.79596 80.6831 9.46722C81.146 9.13848 81.7018 8.9617 82.2719 8.96183C82.8146 8.98394 83.3369 9.17212 83.7667 9.50035C84.1964 9.82858 84.5123 10.2806 84.6706 10.794H79.6918Z" fill="#000035"/>
<path fill-rule="evenodd" clip-rule="evenodd" d="M109.227 7.08994C108.598 7.08585 107.975 7.20989 107.397 7.4543C106.819 7.69872 106.298 8.05827 105.866 8.51051C105.435 8.96275 105.103 9.49797 104.89 10.0828C104.678 10.6675 104.59 11.2893 104.631 11.9093C104.609 12.5422 104.718 13.1729 104.95 13.7633C105.182 14.3536 105.533 14.8912 105.981 15.3437C106.43 15.7961 106.966 16.1539 107.559 16.3954C108.152 16.6369 108.788 16.757 109.428 16.7486C110.127 16.7737 110.823 16.6477 111.467 16.3794C112.111 16.1111 112.688 15.7069 113.157 15.1952C113.227 15.1185 113.265 15.0193 113.265 14.9164C113.265 14.8135 113.227 14.7143 113.157 14.6376L112.311 13.841C112.24 13.7752 112.146 13.7386 112.049 13.7386C111.951 13.7386 111.858 13.7752 111.787 13.841C111.498 14.166 111.141 14.4252 110.741 14.6005C110.341 14.7759 109.907 14.8633 109.469 14.8567C108.787 14.8563 108.129 14.6087 107.62 14.1608C107.111 13.713 106.786 13.096 106.707 12.4271H113.238C113.325 12.4359 113.413 12.415 113.486 12.3679C113.559 12.3208 113.614 12.2503 113.641 12.1682C113.641 12.0487 113.641 11.9491 113.641 11.8894C113.677 11.2865 113.59 10.6827 113.386 10.1134C113.182 9.54403 112.865 9.02057 112.454 8.57364C112.043 8.12671 111.546 7.76528 110.992 7.51052C110.438 7.25576 109.838 7.11277 109.227 7.08994ZM106.647 10.7941C106.828 10.2601 107.175 9.79606 107.638 9.46732C108.101 9.13858 108.657 8.9618 109.227 8.96193C109.77 8.98111 110.294 9.16819 110.724 9.49685C111.155 9.82551 111.47 10.2792 111.626 10.7941H106.647Z" fill="#000035"/>
<path d="M126.217 39.2731H124.785V21.9473C124.788 21.8969 124.781 21.8464 124.762 21.7992C124.744 21.752 124.716 21.7091 124.68 21.6733C124.644 21.6376 124.6 21.6099 124.552 21.5919C124.505 21.5739 124.454 21.5661 124.403 21.5689H121.359C121.308 21.5661 121.257 21.5739 121.209 21.5919C121.161 21.6099 121.118 21.6376 121.082 21.6733C121.045 21.7091 121.017 21.752 120.999 21.7992C120.981 21.8464 120.973 21.8969 120.976 21.9473V23.0825C120.973 23.1329 120.981 23.1834 120.999 23.2306C121.017 23.2778 121.045 23.3207 121.082 23.3564C121.118 23.3922 121.161 23.4199 121.209 23.4379C121.257 23.4559 121.308 23.4637 121.359 23.4608H122.77V29.4352C121.567 28.3746 120.008 27.7927 118.396 27.8022C116.873 27.8088 115.396 28.3208 114.203 29.256C113.423 29.9139 112.799 30.7328 112.374 31.6549C111.949 32.5771 111.734 33.58 111.744 34.5932C111.719 35.6773 111.96 36.7513 112.449 37.7227C112.937 38.6941 113.656 39.5337 114.546 40.1693C115.692 40.9761 117.069 41.4015 118.476 41.3841C119.278 41.3965 120.073 41.2515 120.817 40.9575C121.561 40.6635 122.239 40.2263 122.81 39.6714V40.7468C122.815 40.8436 122.858 40.9348 122.929 41.0015C123 41.0683 123.095 41.1054 123.193 41.1052H126.257C126.306 41.108 126.356 41.1007 126.402 41.0839C126.448 41.0671 126.491 41.0411 126.527 41.0076C126.563 40.974 126.591 40.9336 126.611 40.8887C126.63 40.8439 126.64 40.7956 126.64 40.7468V39.5917C126.625 39.4948 126.572 39.4074 126.493 39.3479C126.414 39.2885 126.315 39.2617 126.217 39.2731ZM122.77 36.8037C122.788 36.8689 122.788 36.9376 122.77 37.0028C122.334 37.7413 121.715 38.3575 120.97 38.7931C120.226 39.2288 119.382 39.4694 118.517 39.4922C117.531 39.4826 116.572 39.1693 115.775 38.596C115.157 38.1316 114.661 37.5277 114.328 36.8347C113.994 36.1417 113.834 35.3798 113.86 34.6131C113.843 33.8932 113.988 33.1786 114.284 32.5207C114.58 31.8629 115.021 31.2784 115.574 30.8094C116.394 30.1482 117.418 29.783 118.476 29.7738C119.326 29.8067 120.156 30.0344 120.901 30.4387C121.646 30.8431 122.286 31.4132 122.77 32.1038C122.783 32.1561 122.783 32.2109 122.77 32.2631V36.8037Z" fill="#000035"/>
<path d="M62.2988 29.3556H57.2797V23.3812H65.8263C65.8773 23.3841 65.9284 23.3763 65.9762 23.3583C66.024 23.3403 66.0674 23.3125 66.1036 23.2768C66.1397 23.241 66.1678 23.1982 66.1861 23.1509C66.2043 23.1037 66.2122 23.0533 66.2093 23.0028V21.9473C66.2122 21.8969 66.2043 21.8464 66.1861 21.7992C66.1678 21.752 66.1397 21.7091 66.1036 21.6733C66.0674 21.6376 66.024 21.6099 65.9762 21.5919C65.9284 21.5739 65.8773 21.5661 65.8263 21.5689H53.9337C53.8843 21.5689 53.8354 21.5787 53.79 21.598C53.7447 21.6172 53.7037 21.6455 53.6698 21.6809C53.6358 21.7163 53.6095 21.7582 53.5925 21.804C53.5755 21.8498 53.5681 21.8986 53.5709 21.9473V23.0825C53.5681 23.1312 53.5755 23.1799 53.5925 23.2258C53.6095 23.2716 53.6358 23.3135 53.6698 23.3489C53.7037 23.3843 53.7447 23.4125 53.79 23.4318C53.8354 23.451 53.8843 23.4609 53.9337 23.4608H55.2238V39.2731H53.9337C53.8357 39.2782 53.7434 39.3203 53.6758 39.3907C53.6083 39.4611 53.5707 39.5545 53.5709 39.6515V40.8065C53.5709 40.9016 53.6091 40.9928 53.6771 41.06C53.7452 41.1272 53.8375 41.165 53.9337 41.165H58.5899C58.6862 41.165 58.7785 41.1272 58.8465 41.06C58.9145 40.9928 58.9528 40.9016 58.9528 40.8065V39.6515C58.9529 39.5545 58.9153 39.4611 58.8478 39.3907C58.7803 39.3203 58.688 39.2782 58.5899 39.2731H57.2797V31.3072H62.2988C62.3499 31.3101 62.401 31.3023 62.4487 31.2843C62.4965 31.2663 62.54 31.2385 62.5761 31.2028C62.6123 31.1671 62.6404 31.1242 62.6586 31.077C62.6768 31.0298 62.6847 30.9793 62.6818 30.9288V29.7937C62.6947 29.7387 62.6942 29.6816 62.6805 29.6268C62.6668 29.572 62.6402 29.5213 62.6029 29.4786C62.5656 29.4359 62.5186 29.4025 62.4658 29.3811C62.4129 29.3597 62.3557 29.351 62.2988 29.3556Z" fill="#000035"/>
<path d="M71.0101 27.8605C69.6457 27.8368 68.3051 28.2149 67.159 28.9465C66.0128 29.6781 65.1131 30.7302 64.5742 31.9688C64.0354 33.2074 63.8819 34.5765 64.1333 35.9015C64.3847 37.2266 65.0296 38.4478 65.9859 39.4095C66.9422 40.3712 68.1665 41.0299 69.5031 41.3018C70.8396 41.5737 72.2278 41.4464 73.4908 40.9361C74.7538 40.4258 75.8346 39.5556 76.5953 38.4364C77.3561 37.3172 77.7624 35.9996 77.7626 34.6515C77.7957 33.761 77.6445 32.8732 77.3185 32.0425C76.9924 31.2117 76.4982 30.4553 75.8661 29.8197C75.2341 29.1841 74.4775 28.6825 73.6425 28.3456C72.8075 28.0087 71.9118 27.8437 71.0101 27.8605ZM71.0101 39.5505C70.0133 39.6144 69.0201 39.3806 68.1596 38.8795C67.2991 38.3785 66.611 37.6332 66.1848 36.7407C65.7586 35.8482 65.614 34.8497 65.7697 33.8749C65.9255 32.9001 66.3744 31.9941 67.0582 31.2747C67.7419 30.5553 68.6289 30.0557 69.6038 29.8409C70.5787 29.6261 71.5965 29.7059 72.5248 30.0701C73.4532 30.4343 74.2492 31.0659 74.8095 31.883C75.3697 32.7 75.6683 33.6646 75.6663 34.6515C75.6989 35.2782 75.6031 35.9051 75.3845 36.4943C75.1659 37.0836 74.8291 37.6232 74.3942 38.0807C73.9594 38.5382 73.4355 38.9042 72.854 39.1568C72.2724 39.4093 71.6453 39.5433 71.0101 39.5505Z" fill="#000035"/>
<path d="M164.838 27.8604C163.474 27.8367 162.133 28.2147 160.987 28.9464C159.841 29.678 158.941 30.7301 158.402 31.9687C157.864 33.2073 157.71 34.5763 157.961 35.9014C158.213 37.2265 158.858 38.4477 159.814 39.4094C160.77 40.3711 161.995 41.0298 163.331 41.3017C164.668 41.5735 166.056 41.4462 167.319 40.9359C168.582 40.4257 169.663 39.5555 170.423 38.4363C171.184 37.3171 171.591 35.9995 171.591 34.6513C171.621 33.7616 171.468 32.8751 171.141 32.0456C170.814 31.2161 170.319 30.4609 169.688 29.8259C169.056 29.1909 168.301 28.6892 167.467 28.3513C166.634 28.0134 165.739 27.8464 164.838 27.8604ZM164.838 39.5504C163.841 39.6143 162.848 39.3805 161.988 38.8794C161.127 38.3783 160.439 37.6331 160.013 36.7406C159.587 35.8481 159.442 34.8495 159.598 33.8747C159.754 32.9 160.203 31.994 160.886 31.2746C161.57 30.5552 162.457 30.0556 163.432 29.8408C164.407 29.626 165.425 29.7058 166.353 30.07C167.281 30.4342 168.077 31.0658 168.638 31.8828C169.198 32.6999 169.496 33.6645 169.494 34.6513C169.53 35.2788 169.436 35.9068 169.219 36.4973C169.001 37.0878 168.664 37.6285 168.229 38.0867C167.793 38.5448 167.268 38.9107 166.686 39.1623C166.103 39.4139 165.474 39.5459 164.838 39.5504Z" fill="#000035"/>
<path d="M110.679 39.2721H109.369V34.2337C109.513 32.7572 109.112 31.2791 108.24 30.0715C107.684 29.3647 106.967 28.7967 106.148 28.4128C105.329 28.029 104.43 27.84 103.524 27.861C101.945 27.8357 100.418 28.4218 99.2707 29.494V28.5181C99.2736 28.4677 99.2657 28.4172 99.2475 28.37C99.2293 28.3228 99.2011 28.2799 99.165 28.2442C99.1288 28.2084 99.0854 28.1807 99.0376 28.1627C98.9899 28.1447 98.9387 28.1369 98.8877 28.1398H95.9649C95.9155 28.1397 95.8667 28.1496 95.8213 28.1688C95.7759 28.1881 95.7349 28.2163 95.701 28.2517C95.667 28.2871 95.6407 28.329 95.6237 28.3748C95.6067 28.4206 95.5994 28.4694 95.6021 28.5181V29.6533C95.5994 29.702 95.6067 29.7508 95.6237 29.7966C95.6407 29.8424 95.667 29.8843 95.701 29.9197C95.7349 29.9552 95.7759 29.9833 95.8213 30.0026C95.8667 30.0218 95.9155 30.0317 95.9649 30.0317H97.255V39.2721H95.9649C95.8669 39.2772 95.7746 39.3193 95.7071 39.3897C95.6395 39.4601 95.602 39.5534 95.6021 39.6504V40.8055C95.6021 40.9006 95.6403 40.9917 95.7084 41.059C95.7764 41.1262 95.8687 41.164 95.9649 41.164H100.601C100.699 41.1641 100.794 41.127 100.865 41.0603C100.936 40.9936 100.979 40.9024 100.984 40.8055V39.6504C100.979 39.5516 100.937 39.4582 100.866 39.3883C100.796 39.3183 100.701 39.2769 100.601 39.2721H99.2304V32.3816C99.2124 32.3096 99.2124 32.2345 99.2304 32.1625C99.6447 31.4646 100.232 30.8825 100.938 30.4713C101.643 30.0601 102.443 29.8334 103.262 29.8126C103.875 29.8021 104.482 29.9421 105.027 30.2202C105.572 30.4982 106.039 30.9056 106.386 31.4058C106.936 32.2874 107.176 33.323 107.071 34.3531V39.2721H105.701C105.599 39.2721 105.502 39.3119 105.43 39.3829C105.358 39.4539 105.318 39.5501 105.318 39.6504V40.8055C105.318 40.8543 105.328 40.9026 105.347 40.9474C105.367 40.9923 105.395 41.0327 105.431 41.0663C105.467 41.0998 105.509 41.1258 105.556 41.1426C105.602 41.1594 105.651 41.1667 105.701 41.164H110.679C110.776 41.164 110.868 41.1262 110.936 41.059C111.004 40.9917 111.042 40.9006 111.042 40.8055V39.6504C111.042 39.5534 111.005 39.4601 110.937 39.3897C110.87 39.3193 110.778 39.2772 110.679 39.2721Z" fill="#000035"/>
<path d="M154.153 25.5317C154.357 25.5343 154.559 25.4973 154.749 25.4226C154.938 25.348 155.111 25.2372 155.257 25.0967C155.403 24.9561 155.519 24.7886 155.6 24.6035C155.68 24.4185 155.723 24.2196 155.725 24.0182C155.725 23.6062 155.56 23.2111 155.265 22.9198C154.97 22.6285 154.57 22.4648 154.153 22.4648C153.949 22.4674 153.748 22.5097 153.561 22.5892C153.373 22.6686 153.204 22.7838 153.062 22.928C152.919 23.0723 152.807 23.2428 152.732 23.4298C152.656 23.6169 152.619 23.8168 152.621 24.0182C152.619 24.2177 152.656 24.4157 152.732 24.6005C152.808 24.7854 152.921 24.9533 153.064 25.0944C153.207 25.2355 153.377 25.3468 153.564 25.4219C153.751 25.4971 153.951 25.5344 154.153 25.5317Z" fill="#000035"/>
<path d="M157.48 39.2716H155.585V28.5176C155.588 28.4689 155.58 28.4202 155.563 28.3743C155.546 28.3285 155.52 28.2866 155.486 28.2512C155.452 28.2158 155.411 28.1876 155.366 28.1683C155.32 28.1491 155.272 28.1392 155.222 28.1393H152.158C152.107 28.1364 152.056 28.1442 152.008 28.1622C151.961 28.1802 151.917 28.2079 151.881 28.2437C151.845 28.2794 151.817 28.3223 151.799 28.3695C151.78 28.4167 151.772 28.4672 151.775 28.5176V29.6528C151.772 29.7032 151.78 29.7537 151.799 29.8009C151.817 29.8481 151.845 29.891 151.881 29.9268C151.917 29.9625 151.961 29.9903 152.008 30.0083C152.056 30.0262 152.107 30.0341 152.158 30.0312H153.529V39.2716H152.098C151.996 39.2716 151.899 39.3114 151.827 39.3824C151.755 39.4534 151.715 39.5496 151.715 39.6499V40.805C151.715 40.8538 151.725 40.9021 151.744 40.9469C151.764 40.9918 151.792 41.0322 151.828 41.0658C151.864 41.0993 151.906 41.1253 151.953 41.1421C151.999 41.1589 152.049 41.1662 152.098 41.1635H157.48C157.578 41.1636 157.672 41.1265 157.744 41.0598C157.815 40.9931 157.858 40.9019 157.863 40.805V39.6499C157.858 39.5512 157.816 39.4577 157.745 39.3878C157.674 39.3178 157.58 39.2764 157.48 39.2716Z" fill="#000035"/>
<path d="M93.6694 39.271H92.2383V28.5171C92.2383 28.4167 92.1979 28.3205 92.1261 28.2495C92.0543 28.1785 91.9569 28.1387 91.8553 28.1387H88.348C88.2464 28.1387 88.149 28.1785 88.0772 28.2495C88.0053 28.3205 87.965 28.4167 87.965 28.5171V29.6522C87.965 29.7525 88.0053 29.8488 88.0772 29.9198C88.149 29.9907 88.2464 30.0306 88.348 30.0306H90.1621V36.9609C90.1807 37.0192 90.1807 37.0818 90.1621 37.1401C89.7568 37.8459 89.1712 38.4343 88.4638 38.8466C87.7565 39.259 86.952 39.4808 86.1307 39.4901C85.5353 39.5027 84.9462 39.367 84.4178 39.0955C83.8894 38.8241 83.4387 38.4256 83.1072 37.9367C82.5517 36.9916 82.3119 35.8976 82.4218 34.8101V28.5171C82.4246 28.4683 82.4173 28.4196 82.4003 28.3737C82.3833 28.3279 82.357 28.286 82.323 28.2506C82.289 28.2152 82.2481 28.187 82.2027 28.1677C82.1573 28.1485 82.1084 28.1386 82.059 28.1387H78.6525C78.5509 28.1387 78.4535 28.1785 78.3817 28.2495C78.3099 28.3205 78.2695 28.4167 78.2695 28.5171V29.6522C78.2695 29.7525 78.3099 29.8488 78.3817 29.9198C78.4535 29.9907 78.5509 30.0306 78.6525 30.0306H80.4465V35.069C80.3791 36.3374 80.6502 37.601 81.2326 38.7333C81.7426 39.5823 82.4732 40.2812 83.3486 40.7574C84.2241 41.2336 85.2124 41.4699 86.2114 41.4417C87.7115 41.4376 89.1536 40.8678 90.2427 39.8485V40.8044C90.2479 40.9013 90.2905 40.9925 90.3618 41.0592C90.4331 41.1259 90.5275 41.163 90.6257 41.1629H93.6896C93.7877 41.163 93.8822 41.1259 93.9535 41.0592C94.0247 40.9925 94.0674 40.9013 94.0725 40.8044V39.6494C94.0674 39.5472 94.0226 39.451 93.9476 39.3805C93.8725 39.3101 93.7729 39.2709 93.6694 39.271Z" fill="#000035"/>
<path d="M141.679 39.2705H140.248V28.5166C140.251 28.4661 140.243 28.4156 140.225 28.3684C140.206 28.3212 140.178 28.2783 140.142 28.2426C140.106 28.2069 140.062 28.1791 140.015 28.1611C139.967 28.1431 139.916 28.1353 139.865 28.1382H138.615C138.513 28.1382 138.416 28.178 138.344 28.249C138.272 28.32 138.232 28.4162 138.232 28.5166V29.5322C137.021 28.4545 135.448 27.8585 133.818 27.8594C132.295 27.8659 130.818 28.3779 129.625 29.3132C128.845 29.9711 128.221 30.79 127.796 31.7121C127.371 32.6342 127.156 33.6372 127.166 34.6503C127.141 35.7345 127.382 36.8085 127.87 37.7799C128.359 38.7512 129.078 39.5908 129.968 40.2264C131.142 41.0537 132.557 41.4802 133.999 41.4412C134.8 41.4536 135.596 41.3086 136.34 41.0146C137.084 40.7206 137.761 40.2834 138.333 39.7285V40.8039C138.338 40.9008 138.381 40.992 138.452 41.0587C138.523 41.1254 138.618 41.1625 138.716 41.1624H141.78C141.878 41.1625 141.972 41.1254 142.044 41.0587C142.115 40.992 142.157 40.9008 142.163 40.8039V39.6489C142.161 39.5908 142.146 39.5339 142.12 39.4819C142.094 39.43 142.056 39.3845 142.01 39.3484C141.964 39.3124 141.91 39.2867 141.853 39.2733C141.796 39.2598 141.736 39.2589 141.679 39.2705ZM138.192 36.8011C138.21 36.8663 138.21 36.935 138.192 37.0002C137.755 37.7374 137.135 38.3526 136.391 38.7881C135.647 39.2235 134.803 39.4649 133.939 39.4896C132.953 39.48 131.994 39.1667 131.197 38.5934C130.561 38.1398 130.045 37.5405 129.694 36.8469C129.343 36.1532 129.167 35.3858 129.182 34.6105C129.164 33.8906 129.309 33.176 129.605 32.5181C129.901 31.8603 130.342 31.2758 130.895 30.8068C131.715 30.1456 132.739 29.7804 133.797 29.7712C134.644 29.7996 135.471 30.0211 136.216 30.4184C136.961 30.8158 137.603 31.3781 138.091 32.0614C138.111 32.1195 138.111 32.1825 138.091 32.2406L138.192 36.8011Z" fill="#000035"/>
<path d="M149.54 39.2721H149.177C148.801 39.2768 148.428 39.2049 148.081 39.061C147.734 38.9171 147.421 38.7043 147.161 38.4357C146.788 37.8853 146.624 37.2222 146.697 36.5637V30.0317H149.116C149.167 30.0346 149.218 30.0268 149.266 30.0088C149.314 29.9908 149.357 29.963 149.394 29.9273C149.43 29.8916 149.458 29.8487 149.476 29.8015C149.494 29.7543 149.502 29.7038 149.499 29.6533V28.5182C149.502 28.4678 149.494 28.4173 149.476 28.37C149.458 28.3228 149.43 28.28 149.394 28.2442C149.357 28.2085 149.314 28.1807 149.266 28.1627C149.218 28.1447 149.167 28.1369 149.116 28.1398H146.697V25.2124C146.697 25.112 146.657 25.0158 146.585 24.9448C146.513 24.8738 146.416 24.834 146.314 24.834H145.024C144.924 24.8388 144.83 24.8802 144.759 24.9502C144.688 25.0201 144.646 25.1136 144.641 25.2124V28.1398H142.626C142.575 28.1369 142.524 28.1447 142.476 28.1627C142.428 28.1807 142.385 28.2085 142.348 28.2442C142.312 28.28 142.284 28.3228 142.266 28.37C142.248 28.4173 142.24 28.4678 142.243 28.5182V29.6533C142.24 29.7038 142.248 29.7543 142.266 29.8015C142.284 29.8487 142.312 29.8916 142.348 29.9273C142.385 29.963 142.428 29.9908 142.476 30.0088C142.524 30.0268 142.575 30.0346 142.626 30.0317H144.641V36.4841C144.55 37.6777 144.909 38.8625 145.649 39.8098C146.05 40.2441 146.535 40.5948 147.075 40.841C147.615 41.0873 148.199 41.2242 148.794 41.2437H149.479C149.571 41.2714 149.669 41.2714 149.761 41.2437C149.837 41.1701 149.881 41.0699 149.882 40.9649V39.8297C149.908 39.7711 149.92 39.7072 149.915 39.6433C149.911 39.5795 149.891 39.5176 149.858 39.4629C149.824 39.4081 149.778 39.3622 149.722 39.329C149.667 39.2958 149.604 39.2763 149.54 39.2721Z" fill="#000035"/>
<path d="M187.394 39.2721H186.104V34.2337C186.242 32.7547 185.834 31.2764 184.955 30.0715C184.402 29.3651 183.689 28.797 182.873 28.4131C182.057 28.0291 181.162 27.8399 180.258 27.861C178.679 27.8357 177.153 28.4218 176.005 29.494V28.5181C176.005 28.4178 175.965 28.3215 175.893 28.2506C175.821 28.1796 175.724 28.1398 175.622 28.1398H172.699C172.598 28.1398 172.5 28.1796 172.429 28.2506C172.357 28.3215 172.316 28.4178 172.316 28.5181V29.6533C172.316 29.7536 172.357 29.8499 172.429 29.9208C172.5 29.9918 172.598 30.0317 172.699 30.0317H173.989V39.2721H172.699C172.599 39.2769 172.505 39.3183 172.434 39.3883C172.363 39.4582 172.321 39.5516 172.316 39.6504V40.8055C172.322 40.9024 172.364 40.9936 172.435 41.0603C172.507 41.127 172.601 41.1641 172.699 41.164H177.436C177.532 41.164 177.625 41.1262 177.693 41.059C177.761 40.9917 177.799 40.9006 177.799 40.8055V39.6504C177.799 39.5534 177.762 39.4601 177.694 39.3897C177.627 39.3193 177.534 39.2772 177.436 39.2721H176.066V32.3816C176.045 32.31 176.045 32.2341 176.066 32.1625C176.481 31.4658 177.069 30.8848 177.774 30.4738C178.48 30.0628 179.279 29.8353 180.097 29.8126C180.711 29.8003 181.318 29.9395 181.864 30.2178C182.409 30.496 182.876 30.9043 183.221 31.4058C183.781 32.2832 184.023 33.3224 183.907 34.3531V39.2721H182.536C182.438 39.2772 182.346 39.3193 182.278 39.3897C182.211 39.4601 182.173 39.5534 182.173 39.6504V40.8055C182.173 40.9006 182.211 40.9917 182.279 41.059C182.347 41.1262 182.44 41.164 182.536 41.164H187.273C187.371 41.1641 187.465 41.127 187.537 41.0603C187.608 40.9936 187.651 40.9024 187.656 40.8055V39.6504C187.657 39.5684 187.632 39.488 187.585 39.4203C187.538 39.3525 187.472 39.3008 187.394 39.2721Z" fill="#000035"/>
<g opacity="0.5">
<path d="M18.7593 45.0271C18.4425 44.9812 18.1383 44.8731 17.8644 44.7093C17.5906 44.5454 17.3528 44.329 17.1649 44.0729C16.9771 43.8168 16.843 43.5261 16.7706 43.218C16.6983 42.9099 16.6891 42.5906 16.7436 42.2789C16.7898 41.9639 16.8998 41.6614 17.067 41.3894C17.2342 41.1173 17.4551 40.8813 17.7166 40.6955C17.978 40.5096 18.2747 40.3777 18.589 40.3076C18.9032 40.2375 19.2284 40.2306 19.5454 40.2874C19.8633 40.3307 20.1691 40.4371 20.4444 40.6002C20.7196 40.7633 20.9586 40.9797 21.1469 41.2365C21.3352 41.4933 21.469 41.785 21.5402 42.0942C21.6114 42.4034 21.6185 42.7237 21.5611 43.0356C21.4742 43.5915 21.1885 44.0981 20.7558 44.4635C20.323 44.829 19.772 45.0289 19.2027 45.0271C19.0557 45.0486 18.9063 45.0486 18.7593 45.0271ZM24.4234 43.0356C24.3659 42.7225 24.3728 42.4011 24.4438 42.0907C24.5148 41.7803 24.6483 41.4871 24.8364 41.2288C25.0245 40.9704 25.2634 40.7522 25.5387 40.587C25.8141 40.4219 26.1203 40.3132 26.439 40.2675C26.7545 40.2137 27.0777 40.2227 27.3896 40.2942C27.7014 40.3657 27.9956 40.4982 28.2549 40.6838C28.5141 40.8694 28.7331 41.1043 28.899 41.3749C29.0649 41.6454 29.1742 41.946 29.2207 42.259C29.2782 42.5721 29.2712 42.8935 29.2003 43.2039C29.1293 43.5143 28.9958 43.8075 28.8077 44.0658C28.6195 44.3241 28.3807 44.5424 28.1053 44.7076C27.83 44.8727 27.5238 44.9814 27.205 45.0271H26.7616C26.2103 45.0283 25.6757 44.8403 25.2492 44.4952C24.8227 44.1501 24.5308 43.6694 24.4234 43.1352V43.0356ZM10.8578 41.9204C10.3185 41.5874 9.93362 41.058 9.78649 40.4468C9.63937 39.8355 9.74181 39.1916 10.0716 38.6544C10.4119 38.1249 10.9492 37.7488 11.5677 37.6073C12.1861 37.4657 12.8361 37.57 13.3774 37.8976C13.6462 38.0586 13.8797 38.271 14.0643 38.5223C14.2488 38.7737 14.3807 39.059 14.452 39.3614C14.5234 39.6638 14.5328 39.9773 14.4798 40.2834C14.4268 40.5894 14.3124 40.882 14.1433 41.1437C13.9349 41.4885 13.6397 41.7743 13.2866 41.9731C12.9334 42.172 12.5342 42.2774 12.1277 42.2789C11.6882 42.3115 11.2483 42.2218 10.8578 42.02V41.9204ZM31.8008 41.1238C31.6317 40.8621 31.5173 40.5695 31.4643 40.2634C31.4113 39.9574 31.4207 39.6439 31.4921 39.3415C31.5635 39.0391 31.6953 38.7538 31.8798 38.5024C32.0644 38.251 32.2979 38.0387 32.5667 37.8777C32.8341 37.7129 33.1316 37.6017 33.4425 37.5505C33.7533 37.4993 34.0713 37.5091 34.3783 37.5794C34.6853 37.6497 34.9753 37.779 35.2317 37.9601C35.488 38.1411 35.7058 38.3703 35.8725 38.6345C36.2041 39.1693 36.3097 39.8115 36.1664 40.4225C36.0231 41.0335 35.6424 41.5643 35.1065 41.9005C34.7238 42.1312 34.2849 42.2551 33.8366 42.259C33.4365 42.2695 33.0401 42.1802 32.6843 41.9992C32.3284 41.8181 32.0245 41.5513 31.8008 41.2234V41.1238ZM4.58898 36.4837C4.20822 35.9805 4.04338 35.3493 4.13015 34.7269C4.21692 34.1044 4.5483 33.5408 5.05258 33.158C5.30385 32.9691 5.59037 32.8312 5.89571 32.752C6.20105 32.6728 6.5192 32.654 6.83193 32.6965C7.14466 32.7391 7.44581 32.8422 7.71812 33C7.99043 33.1578 8.22853 33.3671 8.41878 33.616C8.79841 34.116 8.96271 34.744 8.87587 35.3632C8.78904 35.9824 8.45812 36.5426 7.95518 36.9218C7.54122 37.2432 7.03033 37.4184 6.50388 37.4197C6.134 37.416 5.76971 37.3299 5.43817 37.1679C5.10662 37.0058 4.81636 36.772 4.58898 36.4837ZM37.989 36.9019C37.737 36.7139 37.5251 36.4787 37.3654 36.2097C37.2057 35.9406 37.1014 35.6431 37.0583 35.3341C37.0152 35.0252 37.0343 34.7108 37.1145 34.4092C37.1946 34.1075 37.3342 33.8244 37.5254 33.5762C37.9092 33.0793 38.4762 32.7523 39.1029 32.6665C39.7296 32.5807 40.3652 32.743 40.8714 33.1181C41.1255 33.3044 41.3395 33.5389 41.5008 33.8079C41.662 34.0769 41.7673 34.375 41.8105 34.6848C41.8536 34.9945 41.8338 35.3096 41.7522 35.6117C41.6705 35.9137 41.5287 36.1967 41.335 36.4439C41.116 36.7362 40.8303 36.9734 40.5011 37.136C40.1718 37.2987 39.8084 37.3822 39.4403 37.3799C38.9081 37.3542 38.3988 37.1585 37.989 36.8223V36.9019ZM0.799476 28.936C0.713383 28.6366 0.687844 28.3233 0.724321 28.0141C0.760798 27.7049 0.858577 27.4059 1.01207 27.134C1.16556 26.8621 1.37176 26.6228 1.61889 26.4297C1.86601 26.2366 2.14922 26.0935 2.45234 26.0086C2.75543 25.9235 3.0725 25.8983 3.38546 25.9343C3.69842 25.9704 4.00113 26.067 4.27629 26.2186C4.55145 26.3703 4.79368 26.574 4.98913 26.8181C5.18458 27.0623 5.32943 27.3421 5.41541 27.6416C5.57474 28.2276 5.50052 28.8516 5.20801 29.3851C4.9155 29.9187 4.427 30.321 3.84317 30.5093C3.62918 30.5385 3.41214 30.5385 3.19815 30.5093C2.67802 30.5342 2.16364 30.3926 1.73147 30.1056C1.29931 29.8186 0.972445 29.4014 0.799476 28.9161V28.936ZM42.1413 30.5093C41.8381 30.4244 41.5549 30.2812 41.3078 30.0881C41.0607 29.895 40.8545 29.6557 40.701 29.3839C40.5475 29.112 40.4497 28.8129 40.4132 28.5037C40.3768 28.1945 40.4023 27.8813 40.4884 27.5818C40.5744 27.2824 40.7192 27.0026 40.9147 26.7584C41.1101 26.5142 41.3524 26.3105 41.6275 26.1589C41.9027 26.0072 42.2054 25.9106 42.5183 25.8746C42.8313 25.8385 43.1484 25.8638 43.4515 25.9488C43.7546 26.0338 44.0378 26.1769 44.2849 26.37C44.5321 26.5631 44.7382 26.8024 44.8917 27.0743C45.0452 27.3461 45.143 27.6452 45.1795 27.9544C45.216 28.2636 45.1904 28.5769 45.1043 28.8763C44.9565 29.3705 44.651 29.8044 44.2332 30.113C43.8155 30.4217 43.3079 30.5886 42.7863 30.589C42.5687 30.5907 42.3518 30.5639 42.1413 30.5093ZM2.17014 23.1608C1.85454 23.1309 1.54806 23.0396 1.26841 22.892C0.988766 22.7444 0.741512 22.5435 0.540948 22.3009C0.340384 22.0583 0.19048 21.7788 0.0999237 21.4786C0.00936687 21.1784 -0.0200555 20.8635 0.0133582 20.552C0.108164 19.9551 0.430135 19.4165 0.913446 19.0464C1.39676 18.6762 2.00491 18.5024 2.6136 18.5605C2.92822 18.5855 3.23466 18.6721 3.51507 18.8152C3.79548 18.9584 4.04424 19.1553 4.24686 19.3944C4.44947 19.6335 4.6019 19.91 4.69525 20.2079C4.78859 20.5058 4.82098 20.8191 4.79055 21.1295C4.73545 21.7159 4.46133 22.261 4.02162 22.6586C3.58191 23.0562 3.00811 23.2778 2.41203 23.2803H2.19031L2.17014 23.1608ZM41.0931 20.9901C41.0626 20.6786 41.0948 20.3643 41.188 20.0652C41.2811 19.7661 41.4332 19.4882 41.6356 19.2475C41.838 19.0068 42.0866 18.8081 42.3671 18.6628C42.6477 18.5176 42.9545 18.4286 43.27 18.4012C43.9057 18.3457 44.5377 18.5406 45.0285 18.9435C45.5193 19.3463 45.8291 19.9245 45.8904 20.552C45.9464 21.1778 45.7485 21.8 45.3403 22.2817C44.932 22.7634 44.3469 23.0653 43.7135 23.121H43.4918C42.9001 23.1146 42.3314 22.8943 41.8931 22.5016C41.4548 22.109 41.1773 21.5712 41.1133 20.9901H41.0931ZM3.37956 15.7127C2.81122 15.4343 2.37763 14.9449 2.17364 14.3515C1.96965 13.7581 2.01188 13.109 2.2911 12.5463C2.57682 11.9834 3.07586 11.5546 3.67977 11.3532C4.28369 11.1519 4.94365 11.1941 5.5162 11.4709C6.08241 11.7567 6.51196 12.2512 6.71189 12.8475C6.91182 13.4439 6.86606 14.094 6.58451 14.6572C6.38844 15.0518 6.08428 15.3842 5.70658 15.6165C5.32889 15.8488 4.89281 15.9719 4.44788 15.9716C4.08244 15.9704 3.72274 15.8815 3.39972 15.7127H3.37956ZM39.2588 14.6174C38.9796 14.0546 38.9374 13.4056 39.1414 12.8121C39.3454 12.2187 39.779 11.7293 40.3473 11.4509C40.6276 11.311 40.9332 11.2272 41.2465 11.2045C41.5597 11.1819 41.8744 11.2207 42.1724 11.3189C42.4704 11.417 42.7457 11.5725 42.9825 11.7763C43.2194 11.9801 43.413 12.2283 43.5522 12.5064C43.6939 12.7834 43.7787 13.0853 43.8017 13.3948C43.8246 13.7043 43.7853 14.0152 43.6859 14.3096C43.5866 14.604 43.4293 14.876 43.223 15.11C43.0167 15.344 42.7655 15.5353 42.4839 15.6729C42.1549 15.8449 41.7879 15.9338 41.4156 15.9317C40.9669 15.9261 40.5288 15.7962 40.1511 15.5568C39.7734 15.3174 39.4713 14.9781 39.279 14.5775L39.2588 14.6174ZM7.26984 9.22049C6.84001 8.7581 6.61346 8.1461 6.63992 7.51883C6.66637 6.89156 6.94366 6.30029 7.41093 5.87483C7.87895 5.45016 8.49841 5.22634 9.13331 5.25248C9.76821 5.27861 10.3667 5.55257 10.7973 6.01423C11.2246 6.47919 11.4476 7.09272 11.4174 7.72004C11.3872 8.34736 11.1061 8.93716 10.636 9.3599C10.1993 9.76349 9.62149 9.9847 9.02349 9.97726C8.69408 9.97798 8.36811 9.91108 8.06624 9.78081C7.76437 9.65054 7.49317 9.45973 7.26984 9.22049ZM35.2476 9.33999C34.7775 8.91726 34.4965 8.32744 34.4662 7.70012C34.436 7.0728 34.659 6.45928 35.0864 5.99433C35.5142 5.52987 36.1112 5.25221 36.7462 5.22233C37.3811 5.19246 38.0021 5.41282 38.4727 5.835C38.9381 6.2605 39.2157 6.84952 39.2459 7.47526C39.276 8.10099 39.0563 8.71341 38.634 9.18067C38.4093 9.42504 38.1355 9.62035 37.8301 9.7541C37.5246 9.88784 37.1943 9.95708 36.8602 9.95734C36.2622 9.96478 35.6844 9.74359 35.2476 9.33999ZM13.2363 4.62021C13.0051 4.03647 13.0174 3.38603 13.2705 2.81124C13.5236 2.23646 13.9969 1.78416 14.5868 1.55334C15.1776 1.32494 15.836 1.3371 16.4178 1.58717C16.9995 1.83724 17.4573 2.30484 17.691 2.88762C17.8082 3.17639 17.8662 3.48529 17.8617 3.79639C17.8571 4.10749 17.7901 4.41461 17.6644 4.69991C17.5388 4.98521 17.3571 5.24302 17.1298 5.45838C16.9025 5.67375 16.6342 5.84238 16.3404 5.95449C16.0583 6.06492 15.7569 6.11908 15.4535 6.11381C14.9741 6.11704 14.5051 5.97582 14.1089 5.70897C13.7128 5.44213 13.4084 5.06233 13.2363 4.62021ZM29.5432 5.95449C28.9531 5.72326 28.4787 5.27211 28.2222 4.69836C27.9658 4.12461 27.948 3.47426 28.1725 2.88762C28.2863 2.59727 28.4568 2.33191 28.6744 2.1067C28.892 1.88148 29.1523 1.70084 29.4406 1.57508C29.7289 1.44932 30.0394 1.38091 30.3545 1.37376C30.6695 1.36662 30.9829 1.42087 31.2767 1.53343C31.5706 1.6458 31.8392 1.81429 32.0671 2.02926C32.2951 2.24422 32.4779 2.50146 32.6052 2.78627C32.7325 3.07108 32.8018 3.37788 32.809 3.68914C32.8162 4.00039 32.7613 4.31001 32.6474 4.60029C32.4725 5.04611 32.1652 5.42926 31.7659 5.69938C31.3666 5.96951 30.8939 6.11397 30.41 6.11381C30.1081 6.07746 29.8149 5.98988 29.5432 5.85492V5.95449ZM20.5129 2.36984C20.5129 1.74132 20.7656 1.13854 21.2155 0.694109C21.6653 0.249676 22.2754 0 22.9116 0C23.5478 0 24.1579 0.249676 24.6077 0.694109C25.0576 1.13854 25.3103 1.74132 25.3103 2.36984C25.2796 2.97061 25.0189 3.53739 24.581 3.95527C24.1431 4.37315 23.5607 4.61086 22.9519 4.62021C22.6352 4.62548 22.3206 4.56873 22.0262 4.45324C21.7319 4.33775 21.4636 4.16581 21.2368 3.94734C21.0101 3.72886 20.8293 3.46817 20.7051 3.18033C20.5809 2.89249 20.5155 2.58319 20.5129 2.27027V2.36984Z" fill="#000035"/>
</g>
<g opacity="0.65">
<path d="M20.5728 36.479C20.5728 35.8504 20.8255 35.2477 21.2753 34.8032C21.7252 34.3588 22.3353 34.1091 22.9715 34.1091C23.6076 34.1091 24.2177 34.3588 24.6676 34.8032C25.1174 35.2477 25.3701 35.8504 25.3701 36.479C25.3701 37.1075 25.1174 37.7103 24.6676 38.1547C24.2177 38.5991 23.6076 38.8488 22.9715 38.8488C22.3353 38.8488 21.7252 38.5991 21.2753 38.1547C20.8255 37.7103 20.5728 37.1075 20.5728 36.479ZM14.7475 36.6781C14.2191 36.3559 13.8377 35.8439 13.6836 35.2496C13.5295 34.6554 13.6146 34.0253 13.921 33.4918C14.2376 32.9489 14.7588 32.552 15.3707 32.3878C15.9826 32.2236 16.6354 32.3055 17.1864 32.6155C17.7372 32.9321 18.1394 33.4506 18.3054 34.0584C18.4715 34.6662 18.3881 35.3142 18.0733 35.8616C17.8669 36.2112 17.5732 36.5028 17.2204 36.7084C16.8675 36.9141 16.4672 37.0271 16.0576 37.0366C15.5992 37.0553 15.1448 36.9448 14.7475 36.7179V36.6781ZM27.9099 35.8019C27.5944 35.2599 27.5085 34.6167 27.6708 34.0124C27.8332 33.4081 28.2307 32.8917 28.7766 32.5757C29.0492 32.4182 29.3504 32.3155 29.6632 32.2733C29.976 32.2311 30.2941 32.2504 30.5994 32.3299C30.9046 32.4095 31.1909 32.5478 31.442 32.7369C31.693 32.926 31.9038 33.1622 32.0622 33.432C32.3777 33.974 32.4636 34.6172 32.3013 35.2214C32.1389 35.8257 31.7415 36.3421 31.1955 36.6582C30.8276 36.8674 30.4105 36.9773 29.9861 36.9768C29.5701 36.9817 29.1599 36.8797 28.7959 36.6807C28.432 36.4817 28.1266 36.1925 27.9099 35.8417V35.8019ZM8.74069 30.7634C8.58133 30.4942 8.47733 30.1965 8.43465 29.8875C8.39196 29.5785 8.41145 29.2642 8.49198 28.9626C8.5725 28.661 8.71247 28.3782 8.90389 28.1301C9.09531 27.8821 9.3344 27.6739 9.60744 27.5173C9.8784 27.3604 10.1781 27.258 10.4894 27.2161C10.8006 27.1742 11.1172 27.1936 11.4208 27.2732C11.7244 27.3528 12.009 27.4911 12.2582 27.6799C12.5075 27.8688 12.7164 28.1046 12.8729 28.3737C13.0322 28.6429 13.1362 28.9406 13.1789 29.2496C13.2216 29.5586 13.2021 29.8729 13.1216 30.1745C13.0411 30.4761 12.9011 30.759 12.7096 31.007C12.5182 31.255 12.2792 31.4632 12.0061 31.6198C11.6457 31.8291 11.235 31.9392 10.8168 31.9384C10.4009 31.9433 9.99075 31.8413 9.62675 31.6422C9.26276 31.4432 8.95741 31.1541 8.74069 30.8033V30.7634ZM33.9166 31.5799C33.3707 31.2639 32.9732 30.7475 32.8109 30.1432C32.6485 29.5389 32.7344 28.8957 33.0499 28.3538C33.2064 28.0847 33.4153 27.8489 33.6645 27.66C33.9138 27.4711 34.1984 27.3329 34.502 27.2533C34.8056 27.1737 35.1221 27.1542 35.4334 27.1962C35.7446 27.2381 36.0444 27.3405 36.3153 27.4974C36.8647 27.8102 37.2665 28.3251 37.4327 28.9297C37.5989 29.5343 37.516 30.1792 37.2022 30.7236C36.9958 31.0732 36.7021 31.3648 36.3493 31.5705C35.9964 31.7761 35.5961 31.8891 35.1865 31.8986C34.7454 31.9219 34.3062 31.8255 33.9166 31.6198V31.5799ZM6.52344 22.6383C6.52344 22.0097 6.77615 21.4069 7.22599 20.9625C7.67583 20.5181 8.28593 20.2684 8.9221 20.2684C9.55663 20.2736 10.1637 20.525 10.6124 20.9683C11.0611 21.4116 11.3155 22.0113 11.3208 22.6383C11.3208 23.2668 11.0681 23.8696 10.6182 24.314C10.1684 24.7584 9.55826 25.0081 8.9221 25.0081C8.29285 25.0082 7.68879 24.764 7.24009 24.3281C6.79139 23.8923 6.53401 23.2997 6.52344 22.6781V22.6383ZM34.602 22.6383C34.6073 22.0113 34.8617 21.4116 35.3104 20.9683C35.7591 20.525 36.3661 20.2736 37.0006 20.2684C37.6336 20.2787 38.2377 20.5316 38.6853 20.9739C39.1329 21.4161 39.3889 22.0129 39.3993 22.6383C39.3993 23.2668 39.1466 23.8696 38.6968 24.314C38.2469 24.7584 37.6368 25.0081 37.0006 25.0081C36.3645 25.0081 35.7544 24.7584 35.3045 24.314C34.8547 23.8696 34.602 23.2668 34.602 22.6383ZM9.58728 17.799C9.03647 17.4824 8.63436 16.9639 8.46829 16.3561C8.30223 15.7483 8.38563 15.1003 8.70039 14.5529C8.85882 14.2831 9.06959 14.0469 9.32062 13.8578C9.57164 13.6687 9.85798 13.5304 10.1632 13.4508C10.4685 13.3713 10.7866 13.352 11.0994 13.3942C11.4122 13.4364 11.7134 13.5391 11.986 13.6966C12.5319 14.0126 12.9294 14.529 13.0917 15.1333C13.2541 15.7376 13.1682 16.3808 12.8527 16.9227C12.6462 17.2724 12.3526 17.5639 11.9997 17.7696C11.6469 17.9753 11.2466 18.0882 10.837 18.0977C10.4014 18.1057 9.97102 18.0028 9.58728 17.799ZM33.0499 16.9028C32.8905 16.6336 32.7865 16.3359 32.7439 16.0269C32.7012 15.7179 32.7207 15.4036 32.8012 15.102C32.8817 14.8004 33.0217 14.5175 33.2131 14.2695C33.4045 14.0215 33.6436 13.8133 33.9166 13.6567C34.1888 13.5006 34.4896 13.3993 34.8017 13.3589C35.1138 13.3184 35.4309 13.3395 35.7346 13.421C36.0383 13.5025 36.3227 13.6428 36.5711 13.8337C36.8196 14.0245 37.0272 14.2622 37.1821 14.533C37.3409 14.8007 37.4446 15.0968 37.487 15.4043C37.5294 15.7118 37.5098 16.0246 37.4292 16.3245C37.3486 16.6245 37.2087 16.9057 37.0175 17.1519C36.8263 17.3982 36.5877 17.6045 36.3153 17.7591C35.9486 17.971 35.5307 18.0811 35.1059 18.0778C34.6886 18.0792 34.2785 17.9711 33.9173 17.7647C33.5561 17.5583 33.2568 17.2609 33.0499 16.9028ZM13.921 11.8445C13.7617 11.5753 13.6576 11.2776 13.615 10.9686C13.5723 10.6595 13.5918 10.3452 13.6723 10.0437C13.7528 9.7421 13.8928 9.4592 14.0842 9.21119C14.2756 8.96318 14.5147 8.75493 14.7878 8.5984C15.3363 8.28671 15.9873 8.20182 16.5989 8.36221C17.2106 8.52261 17.7333 8.9153 18.0532 9.45473C18.2125 9.72396 18.3165 10.0216 18.3592 10.3306C18.4019 10.6397 18.3824 10.954 18.3019 11.2555C18.2214 11.5571 18.0814 11.84 17.89 12.088C17.6986 12.3361 17.4595 12.5443 17.1864 12.7008C16.8268 12.912 16.4156 13.0222 15.9972 13.0195C15.5773 13.0203 15.1646 12.9122 14.8002 12.706C14.4359 12.4998 14.1327 12.2027 13.921 11.8445ZM28.8573 12.6809C28.5849 12.5263 28.3463 12.3199 28.1551 12.0737C27.9639 11.8274 27.824 11.5462 27.7434 11.2463C27.6628 10.9463 27.6432 10.6336 27.6856 10.3261C27.728 10.0186 27.8316 9.72244 27.9905 9.45473C28.3071 8.91191 28.8283 8.51502 29.4402 8.35082C30.0521 8.18661 30.7049 8.26846 31.2559 8.57848C31.529 8.73501 31.7681 8.94326 31.9595 9.19127C32.1509 9.43928 32.2909 9.72218 32.3714 10.0237C32.4519 10.3253 32.4714 10.6396 32.4287 10.9487C32.386 11.2577 32.282 11.5554 32.1227 11.8246C31.9162 12.1742 31.6226 12.4657 31.2697 12.6714C30.9169 12.8771 30.5166 12.9901 30.107 12.9995C29.6413 13.0268 29.178 12.9159 28.7766 12.6809H28.8573ZM20.6131 8.69798C20.6183 8.07447 20.8699 7.47765 21.3143 7.03489C21.7587 6.59213 22.3606 6.3385 22.9916 6.32812C23.6278 6.32812 24.2379 6.5778 24.6877 7.02223C25.1376 7.46667 25.3903 8.06945 25.3903 8.69798C25.3903 9.3265 25.1376 9.92927 24.6877 10.3737C24.2379 10.8181 23.6278 11.0678 22.9916 11.0678C22.3588 11.0839 21.7452 10.8522 21.2845 10.4232C20.8239 9.99424 20.5535 9.40271 20.5325 8.77762L20.6131 8.69798Z" fill="#000035"/>
</g>
<g opacity="0.8">
<path d="M20.5738 30.0064C20.5738 29.3779 20.8266 28.7751 21.2764 28.3307C21.7262 27.8863 22.3363 27.6366 22.9725 27.6366C23.2866 27.6366 23.5975 27.698 23.8874 27.8173C24.1773 27.9367 24.4404 28.1116 24.6615 28.3319C24.8827 28.5522 25.0574 28.8136 25.1758 29.101C25.2941 29.3884 25.3537 29.6962 25.351 30.0064C25.3537 30.3167 25.2941 30.6244 25.1758 30.9118C25.0574 31.1992 24.8827 31.4606 24.6615 31.681C24.4404 31.9013 24.1773 32.0762 23.8874 32.1955C23.5975 32.3148 23.2866 32.3763 22.9725 32.3763C22.3363 32.3763 21.7262 32.1266 21.2764 31.6821C20.8266 31.2377 20.5738 30.6349 20.5738 30.0064ZM14.5268 27.5171C14.3679 27.2494 14.2642 26.9532 14.2218 26.6457C14.1794 26.3382 14.1991 26.0255 14.2796 25.7255C14.3602 25.4256 14.5001 25.1444 14.6913 24.8981C14.8825 24.6519 15.1212 24.4455 15.3935 24.2909C15.6645 24.1339 15.9642 24.0315 16.2755 23.9896C16.5867 23.9477 16.9032 23.9671 17.2068 24.0468C17.5104 24.1264 17.7951 24.2646 18.0443 24.4535C18.2935 24.6424 18.5024 24.8782 18.6589 25.1472C18.8183 25.4165 18.9223 25.7141 18.965 26.0232C19.0077 26.3322 18.9882 26.6465 18.9077 26.9481C18.8271 27.2496 18.6871 27.5325 18.4957 27.7805C18.3043 28.0286 18.0652 28.2368 17.7922 28.3933C17.4289 28.5959 17.02 28.7055 16.6029 28.712C16.1679 28.7229 15.7379 28.6177 15.3583 28.4074C14.9787 28.1971 14.6636 27.8895 14.4461 27.5171H14.5268ZM28.2939 28.3734C27.7445 28.0607 27.3428 27.5457 27.1766 26.9412C27.0104 26.3366 27.0932 25.6916 27.407 25.1472C27.5638 24.8758 27.7733 24.6377 28.0236 24.4466C28.2739 24.2555 28.5599 24.1152 28.8653 24.0337C29.1707 23.9523 29.4893 23.9313 29.8029 23.9721C30.1165 24.0128 30.4189 24.1144 30.6926 24.271C31.24 24.5909 31.6378 25.1108 31.8001 25.7184C31.9623 26.3259 31.8758 26.9721 31.5593 27.5171C31.3529 27.8667 31.0592 28.1583 30.7064 28.3639C30.3535 28.5696 29.9532 28.6826 29.5436 28.692C29.0777 28.7218 28.6137 28.6107 28.2133 28.3734H28.2939ZM15.3935 21.0448C15.1188 20.8899 14.8778 20.6829 14.6844 20.4357C14.4909 20.1884 14.3489 19.9058 14.2665 19.6041C14.1841 19.3024 14.1628 18.9875 14.204 18.6777C14.2452 18.3679 14.3481 18.0691 14.5066 17.7987C14.6631 17.5296 14.872 17.2939 15.1212 17.105C15.3705 16.9161 15.6551 16.7778 15.9587 16.6982C16.2623 16.6186 16.5788 16.5992 16.8901 16.6411C17.2013 16.683 17.5011 16.7854 17.772 16.9424C18.0461 17.0953 18.2866 17.3005 18.4798 17.546C18.673 17.7915 18.815 18.0724 18.8975 18.3725C18.98 18.6726 19.0014 18.9858 18.9604 19.2941C18.9195 19.6024 18.817 19.8997 18.6589 20.1686C18.4535 20.5206 18.1606 20.8151 17.8079 21.0242C17.4552 21.2333 17.0543 21.35 16.6432 21.3635C16.1784 21.3816 15.7177 21.2713 15.3129 21.0448H15.3935ZM27.4877 20.1487C27.1722 19.6067 27.0862 18.9635 27.2486 18.3592C27.4109 17.7549 27.8084 17.2385 28.3544 16.9225C28.906 16.6098 29.5601 16.5244 30.175 16.6846C30.7899 16.8449 31.3162 17.238 31.64 17.7788C31.9564 18.3238 32.0429 18.97 31.8807 19.5775C31.7185 20.1851 31.3206 20.705 30.7732 21.0249C30.4054 21.2341 29.9883 21.344 29.5638 21.3435C29.1153 21.3693 28.6685 21.2711 28.2733 21.0601C27.8781 20.849 27.5502 20.5334 27.3264 20.1487H27.4877ZM20.7149 15.3094C20.7123 14.9991 20.7718 14.6914 20.8902 14.404C21.0085 14.1166 21.1833 13.8552 21.4044 13.6348C21.6255 13.4145 21.8887 13.2396 22.1786 13.1203C22.4684 13.001 22.7794 12.9395 23.0934 12.9395C23.4075 12.9369 23.7189 12.9958 24.0099 13.1127C24.3008 13.2296 24.5654 13.4023 24.7884 13.6207C25.0114 13.8392 25.1884 14.0992 25.3092 14.3856C25.4299 14.672 25.4921 14.9792 25.4921 15.2895C25.4948 15.5981 25.4359 15.9042 25.3188 16.1903C25.2017 16.4764 25.0287 16.7369 24.8097 16.957C24.5907 17.177 24.33 17.3523 24.0425 17.4728C23.7549 17.5933 23.4461 17.6567 23.1338 17.6593C22.8049 17.687 22.4738 17.6467 22.1615 17.541C21.8493 17.4354 21.5627 17.2666 21.32 17.0456C21.0773 16.8246 20.8839 16.5561 20.7519 16.2572C20.62 15.9582 20.5525 15.6355 20.5537 15.3094H20.7149Z" fill="#000035"/>
</g>
<path d="M20.5586 22.6413C20.5586 22.0128 20.8113 21.41 21.2611 20.9656C21.711 20.5212 22.3211 20.2715 22.9573 20.2715C23.2713 20.2715 23.5823 20.3329 23.8722 20.4522C24.1621 20.5716 24.4252 20.7465 24.6463 20.9668C24.8674 21.1871 25.0422 21.4485 25.1605 21.7359C25.2789 22.0233 25.3384 22.3311 25.3358 22.6413C25.3306 23.2648 25.079 23.8617 24.6346 24.3044C24.1902 24.7472 23.5883 25.0008 22.9573 25.0112C22.3211 25.0112 21.711 24.7615 21.2611 24.3171C20.8113 23.8726 20.5586 23.2699 20.5586 22.6413Z" fill="#000035"/>
</svg>
