<svg width="18" height="18" viewBox="0 0 18 18" fill="none" xmlns="http://www.w3.org/2000/svg">
<g clip-path="url(#clip0_202_1022)">
<path d="M16.1254 3H9.0004C8.96014 3 8.92017 3.00633 8.88188 3.01874L8.79188 3.04873C8.59536 3.11412 8.48905 3.32643 8.55444 3.52291C8.55482 3.52411 8.55525 3.52527 8.55563 3.52646L12.3251 14.5417L9.84263 17.3782C9.70637 17.5342 9.72229 17.7711 9.87825 17.9074C9.94666 17.9672 10.0345 18.0001 10.1254 18H16.1254C17.1609 18 18.0004 17.1605 18.0004 16.125V4.87502C18.0004 3.83946 17.1609 3 16.1254 3Z" fill="#ECEFF1"/>
<path d="M13.0912 14.4698C13.0304 14.336 12.897 14.25 12.75 14.25H9.00001C8.79291 14.25 8.625 14.4179 8.625 14.625C8.625 14.6701 8.63312 14.7148 8.64901 14.757L9.77401 17.757C9.82045 17.8805 9.92842 17.9705 10.0583 17.994C10.0803 17.9978 10.1026 17.9998 10.125 18C10.2331 17.9999 10.3359 17.9531 10.407 17.8718L13.032 14.8718C13.1289 14.761 13.1521 14.6038 13.0912 14.4698Z" fill="#00742A"/>
<path d="M16.125 8.25002H10.875C10.6679 8.25002 10.5 8.08212 10.5 7.87501C10.5 7.66791 10.6679 7.5 10.875 7.5H16.125C16.3321 7.5 16.5 7.66791 16.5 7.87501C16.5 8.08212 16.3321 8.25002 16.125 8.25002Z" fill="#455A64"/>
<path d="M13.125 8.25001C12.9179 8.25001 12.75 8.08211 12.75 7.875V7.12501C12.75 6.91791 12.9179 6.75 13.125 6.75C13.3321 6.75 13.5 6.91791 13.5 7.12501V7.875C13.5 8.08211 13.3321 8.25001 13.125 8.25001Z" fill="#455A64"/>
<path d="M11.9997 12.75C11.7926 12.7498 11.6248 12.5818 11.625 12.3747C11.6251 12.2537 11.6836 12.1401 11.7822 12.0698C13.4247 10.9028 14.6247 8.52375 14.6247 7.87501C14.6247 7.66791 14.7926 7.5 14.9997 7.5C15.2068 7.5 15.3747 7.66791 15.3747 7.87501C15.3747 8.8635 13.9295 11.4645 12.2172 12.6803C12.1537 12.7256 12.0777 12.75 11.9997 12.75Z" fill="#455A64"/>
<path d="M15 13.5007C14.9062 13.5008 14.8158 13.4658 14.7465 13.4025C14.475 13.1535 12.078 10.9395 11.6527 9.89174C11.5747 9.69975 11.667 9.48083 11.859 9.40275C12.051 9.32466 12.2699 9.41702 12.348 9.60901C12.6547 10.365 14.55 12.204 15.2543 12.8483C15.4075 12.9876 15.4188 13.2247 15.2795 13.378C15.208 13.4567 15.1064 13.5013 15 13.5007Z" fill="#455A64"/>
<path d="M13.1047 14.5035L8.22976 0.253512C8.17784 0.101883 8.03528 0 7.875 0H1.87499C0.839461 0 0 0.839461 0 1.87499V13.125C0 14.1605 0.839461 15 1.87499 15H12.75C12.9571 15 13.125 14.8321 13.125 14.625C13.125 14.5837 13.1181 14.5426 13.1047 14.5035Z" fill="#00B140"/>
<path d="M7.12547 10.5004C6.96692 10.5004 6.82548 10.4007 6.77222 10.2514L5.25048 5.9899L3.72875 10.2514C3.6513 10.4435 3.4328 10.5364 3.24071 10.459C3.05948 10.3859 2.96473 10.1859 3.02298 9.9994L4.89797 4.74941C4.9897 4.55454 5.22204 4.4709 5.41691 4.56259C5.499 4.60123 5.56506 4.66728 5.60373 4.74941L7.47872 9.9994C7.54854 10.1938 7.44793 10.4082 7.25372 10.4786C7.21252 10.4932 7.16914 10.5006 7.12547 10.5004Z" fill="#FAFAFA"/>
<path d="M6.00002 8.25002H4.50001C4.29291 8.25002 4.125 8.08212 4.125 7.87501C4.125 7.66791 4.29291 7.5 4.50001 7.5H6.00002C6.20713 7.5 6.37504 7.66791 6.37504 7.87501C6.375 8.08212 6.20713 8.25002 6.00002 8.25002Z" fill="#FAFAFA"/>
</g>
<defs>
<clipPath id="clip0_202_1022">
<rect width="18" height="18" fill="white"/>
</clipPath>
</defs>
</svg>
