<svg width="79" height="70" viewBox="0 0 79 70" fill="none" xmlns="http://www.w3.org/2000/svg">
<g clip-path="url(#clip0_138_5950)">
<path d="M39.5027 62.8906C38.589 62.8906 37.6617 62.7525 36.8236 62.3998L7.14255 49.916H3.46735C1.42257 49.916 0 48.3273 0 46.2684V32.0756C0 30.0207 1.40368 28.4566 3.33373 28.3719L4.47827 27.0143C4.51471 26.9719 4.5444 26.9049 4.58354 26.8666C5.25164 26.2008 6.14648 25.7934 7.05078 25.7934H7.96721L23.1188 9.0918C23.6223 8.52168 24.37 8.19629 25.1528 8.19629C25.9356 8.19629 26.624 8.51621 27.1409 9.06172L28.9441 10.9717L37.7103 0.939258C38.2326 0.341797 38.9844 0 39.7713 0C40.5582 0 41.3275 0.35 41.8498 0.959766L50.4001 10.9402L52.1088 9.09727C52.6257 8.53945 53.3559 8.21953 54.1131 8.21953C54.8703 8.21953 55.6598 8.53945 56.1822 9.14238L70.9963 25.792H71.8453C72.7631 25.792 73.6755 26.209 74.3449 26.8898C74.3841 26.9295 74.4205 26.9842 74.457 27.0266L75.5745 28.3664C77.5126 28.4662 79.0027 30.0631 79.0027 32.0756V46.2684C79.0027 48.3273 77.4789 49.916 75.3801 49.916H71.7684L42.086 62.4244C41.2735 62.7662 40.4056 62.8906 39.5041 62.8906H39.5027Z" fill="white"/>
<path d="M75.3778 30.5385H74.6126L72.8796 28.4467C72.6069 28.1692 72.2331 27.9682 71.8444 27.9682H70.7255C70.3044 27.9682 69.9035 27.77 69.6282 27.4528L54.6291 10.5653C54.3632 10.259 53.8894 10.2481 53.6141 10.5448L50.858 13.5143C50.5814 13.8124 50.1049 13.8028 49.8404 13.4938L40.2886 2.34303C40.0187 2.02857 39.5301 2.02584 39.2575 2.33756L29.4979 13.5088C29.2333 13.811 28.765 13.8206 28.4896 13.528L25.6486 10.5243C25.3732 10.2331 24.9076 10.2413 24.643 10.5407L9.32406 27.4624C9.04873 27.7741 8.65192 27.9669 8.23486 27.9669H7.05119C6.66652 27.9669 6.29806 28.1651 6.02542 28.4358L4.24923 30.5372H3.46776C2.56617 30.5372 1.94531 31.1579 1.94531 32.0739V46.2667C1.94531 47.1827 2.56617 47.7391 3.46776 47.7391H7.78407V47.8198L37.6041 60.4061C38.7635 60.8928 40.1645 60.9188 41.3238 60.4321L71.2181 47.8061V47.7378H75.3778C76.2794 47.7378 76.8612 47.1813 76.8612 46.2653V32.0725C76.8612 31.1565 76.2794 30.5358 75.3778 30.5358V30.5385Z" fill="#201D1E"/>
<path d="M75.3778 30.5385H74.6126L72.8796 28.4467C72.6069 28.1692 72.2331 27.9682 71.8444 27.9682H70.7255C70.3044 27.9682 69.9035 27.77 69.6282 27.4528L54.6291 10.5653C54.3632 10.259 53.8894 10.2481 53.6141 10.5448L50.858 13.5143C50.5814 13.8124 50.1049 13.8028 49.8404 13.4938L40.2886 2.34303C40.0187 2.02857 39.5301 2.02584 39.2575 2.33756L29.4979 13.5088C29.2333 13.811 28.765 13.8206 28.4896 13.528L25.6486 10.5243C25.3732 10.2331 24.9076 10.2413 24.643 10.5407L9.32406 27.4624C9.04873 27.7741 8.65192 27.9669 8.23486 27.9669H7.05119C6.66652 27.9669 6.29806 28.1651 6.02542 28.4358L4.24923 30.5372H3.46776C2.56617 30.5372 1.94531 31.1579 1.94531 32.0739V46.2667C1.94531 47.1827 2.56617 47.7391 3.46776 47.7391H7.78407V47.8198L37.6041 60.4061C38.7635 60.8928 40.1645 60.9188 41.3238 60.4321L71.2181 47.8061V47.7378H75.3778C76.2794 47.7378 76.8612 47.1813 76.8612 46.2653V32.0725C76.8612 31.1565 76.2794 30.5358 75.3778 30.5358V30.5385Z" fill="#211E1F"/>
<path d="M25.4819 11.9918L27.2892 14.357C27.3526 14.4404 27.3499 14.5552 27.2838 14.6359L21.4086 21.748C21.2547 21.9339 20.9551 21.7822 21.0158 21.5484L21.5476 19.4853C21.5584 19.4416 21.557 19.3951 21.5409 19.3527L21.1481 18.2767C21.113 18.181 21.1481 18.073 21.2304 18.0156L22.8541 16.8863C22.9216 16.8398 22.958 16.7605 22.9499 16.6798L22.8271 15.4576C22.819 15.3783 22.8541 15.3004 22.9189 15.2539L24.5709 14.0521C24.6424 14.0002 24.7383 13.9947 24.8152 14.0384L25.9975 14.707L24.5925 12.8681C24.5277 12.7834 24.5318 12.6644 24.6019 12.5838L25.131 11.9808C25.2255 11.8742 25.3942 11.8797 25.4806 11.9931L25.4819 11.9918Z" fill="white"/>
<path d="M52.2993 14.4333L53.8002 12.3183C53.9109 12.1638 54.1363 12.1501 54.2645 12.291L60.6202 19.3074H60.2868C60.2139 19.3074 60.1451 19.2814 60.0897 19.2335L58.0679 17.4589C57.8709 17.2853 57.5618 17.4343 57.5739 17.6955L57.5901 18.0332C57.6036 18.3107 57.2608 18.4529 57.0732 18.2478C56.5495 17.6722 55.8436 16.9134 55.8436 16.9968C55.8436 17.0802 55.768 17.5628 55.7154 17.8896C55.6884 18.0578 55.5251 18.1671 55.3577 18.1302L54.359 17.9128C54.2807 17.8951 54.2119 17.8472 54.17 17.7802L52.2872 14.7642C52.2238 14.663 52.2278 14.5345 52.2966 14.4374L52.2993 14.4333Z" fill="white"/>
<path d="M34.9784 12.4492L33.4654 14.3606C33.3547 14.5 33.3615 14.6982 33.4816 14.8295L35.2092 16.7367C35.2848 16.8201 35.3172 16.9336 35.2983 17.043L35.0958 18.1846C35.0742 18.3063 35.1161 18.4307 35.2065 18.5141L37.9693 21.0721C38.1137 21.2061 38.1259 21.4303 37.9949 21.5779L37.3565 22.2998C37.2877 22.3777 37.1878 22.4229 37.0825 22.4229H36.0068C35.9421 22.4229 35.88 22.4393 35.8246 22.4721L35.2497 22.8043C35.1336 22.8713 35.0634 22.9957 35.0675 23.1283L35.1889 27.6209C35.193 27.759 35.2753 27.8834 35.4022 27.9422L36.4968 28.4399C36.6493 28.5096 36.8315 28.4658 36.9354 28.3346L40.4851 23.8447C40.6174 23.6779 40.863 23.6588 41.0196 23.8024L47.7707 30.0258C47.8612 30.1092 47.988 30.142 48.1068 30.1119L49.0664 29.8727C49.2284 29.8317 49.3431 29.6867 49.3431 29.5199V28.2088C49.3431 28.1473 49.3269 28.0858 49.2972 28.0324L44.9607 20.2682C44.7461 19.8854 45.2711 19.5217 45.5572 19.8553L52.6796 28.1596C52.7902 28.2895 52.9778 28.325 53.1277 28.2443L55.5368 26.9701C55.6543 26.9086 55.7946 26.9141 55.9053 26.9852L60.9909 30.2527C61.2825 30.4401 61.6482 30.1543 61.5335 29.8276L61.2838 29.1152C61.269 29.0715 61.2447 29.0318 61.215 28.9963L40.1963 5.00352C40.037 4.82169 39.7495 4.84219 39.6159 5.04317L38.9289 6.08497C38.8803 6.1588 38.8601 6.2463 38.8722 6.3338L39.2933 9.45098C39.3001 9.50567 39.3203 9.55762 39.35 9.60274L40.5175 11.3664C40.7011 11.644 40.4446 12.0022 40.1207 11.9188C40.0802 11.9078 40.0411 11.89 40.006 11.8668L38.7683 11.0205C38.7076 10.9795 38.636 10.9563 38.5618 10.9563H36.9192C36.791 10.9563 36.6709 11.0233 36.6048 11.134L35.9839 12.1758C35.9097 12.2988 35.7707 12.3686 35.6276 12.3508L35.3077 12.3139C35.1822 12.2988 35.0567 12.3508 34.9784 12.4492Z" fill="white"/>
<path d="M65.5164 47.7402L39.7617 58.6818C39.5498 58.7707 39.3001 58.7119 39.0868 58.6217L13.3321 47.7402H11.707L38.8493 59.2643C39.0315 59.3408 39.2245 59.4393 39.4242 59.4393C39.624 59.4393 39.817 59.3107 39.9992 59.2342L67.1428 47.7402H65.5178H65.5164Z" fill="#EA5400"/>
<path d="M74.1726 32.627H50.3155C49.9428 32.627 49.6406 32.933 49.6406 33.3105V45.1066C49.6406 45.4842 49.9428 45.7902 50.3155 45.7902H74.1726C74.5453 45.7902 74.8474 45.4842 74.8474 45.1066V33.3105C74.8474 32.933 74.5453 32.627 74.1726 32.627Z" fill="#EA5400"/>
<path d="M10.6945 45.2145L8.62943 40.741H6.56441V45.2145H4V33.1504H10.5352C12.0307 33.1504 13.0645 34.1225 13.0645 35.5293V38.3607C13.0645 39.4996 12.3883 40.3541 11.3194 40.6398L13.4559 45.2145H10.6958H10.6945ZM10.4988 35.9982C10.4988 35.6291 10.2855 35.4281 9.89274 35.4281H6.56306V38.4947H9.89274C10.2842 38.4947 10.4988 38.2938 10.4988 37.9246V35.9982Z" fill="white"/>
<path d="M17.3555 33.1504H19.9199V45.2145H17.3555V33.1504Z" fill="white"/>
<path d="M30.4996 35.9305C30.4996 35.5613 30.2864 35.3604 29.8936 35.3604H27.3292C26.9378 35.3604 26.7232 35.5613 26.7232 35.9305V37.0707C26.7232 37.4398 26.9365 37.5561 27.3292 37.6408L30.6414 38.3107C32.0302 38.5951 33.2058 39.3826 33.2058 40.7238V42.9018C33.2058 44.31 32.1733 45.2807 30.6778 45.2807H26.6895C25.194 45.2807 24.1602 44.3086 24.1602 42.9018V41.3609H26.653V42.4328C26.653 42.8019 26.8663 43.0029 27.259 43.0029H30.0367C30.4281 43.0029 30.6427 42.8019 30.6427 42.4328V41.16C30.6427 40.7908 30.4295 40.6746 30.0367 40.5898L26.7246 39.9199C25.3357 39.6355 24.1602 38.848 24.1602 37.5068V35.4629C24.1602 34.0547 25.1927 33.084 26.6895 33.084H30.4646C31.96 33.084 32.9925 34.0561 32.9925 35.4629V36.8697H30.4996V35.9318V35.9305Z" fill="white"/>
<path d="M45.8167 33.1504V35.4295H39.9941V37.9096H44.7126V40.1887H39.9941V42.9367H45.8167V45.2158H37.4297V33.1518H45.8167V33.1504Z" fill="white"/>
<path d="M58.6032 41.6412C58.6032 41.927 58.4372 42.0828 58.1348 42.0828H55.9551C55.6514 42.0828 55.4867 41.927 55.4867 41.6412V34.4512H53.5V42.0049C53.5 43.0945 54.3004 43.8479 55.4584 43.8479H58.6315C59.7896 43.8479 60.5899 43.0945 60.5899 42.0049V34.4512H58.6032V41.6412Z" fill="white"/>
<path d="M69.0723 34.4512H63.9961V43.7959H65.9828V40.4996H69.0723C70.2303 40.4996 71.0307 39.7463 71.0307 38.6566V36.2941C71.0307 35.2031 70.2303 34.4512 69.0723 34.4512ZM69.0453 36.6578V38.293C69.0453 38.5787 68.8793 38.7346 68.5756 38.7346H65.9828V36.2162H68.5756C68.8793 36.2162 69.0453 36.3721 69.0453 36.6578Z" fill="white"/>
<path d="M35.1892 52.8623H34.2188L35.7291 48.0977H36.8236L38.334 52.8623H37.3244L37.018 51.7904H35.501L35.1892 52.8623ZM35.7628 50.8908H36.7656L36.2703 49.1436L35.7628 50.8908Z" fill="white"/>
<path d="M43.3076 48.0977C43.8542 48.0977 44.2321 48.4818 44.2321 49.0369V49.7123C44.2321 49.9967 44.1214 50.2482 43.8218 50.4273C44.1471 50.5859 44.2847 50.8566 44.2847 51.1424V51.923C44.2847 52.4781 43.9068 52.8623 43.3602 52.8623H40.9375V48.0977H43.3076ZM43.0741 50.0035C43.2428 50.0035 43.2954 49.9639 43.2954 49.7793V49.2105C43.2954 49.0643 43.2171 48.985 43.0741 48.985H41.8755V50.0049H43.0741V50.0035ZM43.1253 51.975C43.2684 51.975 43.3467 51.8957 43.3467 51.7508V51.0617C43.3467 50.8635 43.2293 50.8498 43.0471 50.8498H41.8755V51.975H43.1253Z" fill="white"/>
<path d="M29.5578 48.099V51.9627H31.5243V52.8623H28.6211V48.0977H29.5591L29.5578 48.099Z" fill="white"/>
<path d="M49.1977 49.1961C49.1977 49.0498 49.1194 48.9719 48.9763 48.9719H48.0383C47.8952 48.9719 47.8169 49.0512 47.8169 49.1961V49.6459C47.8169 49.7922 47.8952 49.8387 48.0383 49.8715L49.249 50.1354C49.7564 50.2475 50.187 50.5592 50.187 51.0883V51.9482C50.187 52.5047 49.8091 52.8875 49.2625 52.8875H47.8034C47.2568 52.8875 46.8789 52.5047 46.8789 51.9482V51.3398H47.7913V51.7637C47.7913 51.91 47.8696 51.9893 48.0126 51.9893H49.029C49.172 51.9893 49.2503 51.91 49.2503 51.7637V51.2605C49.2503 51.1143 49.172 51.0691 49.029 51.0363L47.8183 50.7711C47.3108 50.659 46.8803 50.3473 46.8803 49.8182V49.0115C46.8803 48.4564 47.2582 48.0723 47.8048 48.0723H49.1855C49.7335 48.0723 50.1101 48.4564 50.1101 49.0115V49.5666H49.199V49.1961H49.1977Z" fill="white"/>
<path d="M71.8594 18.8404C71.8594 18.3975 71.9687 17.9818 72.1874 17.5936C72.406 17.2053 72.707 16.9004 73.0903 16.6762C73.4736 16.452 73.8853 16.3398 74.328 16.3398C74.7707 16.3398 75.1756 16.4506 75.5589 16.6721C75.9422 16.8936 76.2432 17.1984 76.4645 17.5867C76.6859 17.975 76.7965 18.392 76.7965 18.8404C76.7965 19.2889 76.6899 19.6867 76.478 20.0709C76.2661 20.4537 75.9678 20.7613 75.5859 20.991C75.2039 21.2207 74.7842 21.3369 74.3293 21.3369C73.8745 21.3369 73.4588 21.2221 73.0754 20.9924C72.6921 20.7627 72.3952 20.4564 72.1806 20.0736C71.9674 19.6908 71.8607 19.2793 71.8607 18.8404H71.8594ZM72.2629 18.8404C72.2629 19.2178 72.3547 19.5664 72.5396 19.8891C72.7245 20.2117 72.9769 20.466 73.2954 20.652C73.6153 20.8379 73.9581 20.9309 74.3253 20.9309C74.6924 20.9309 75.0433 20.8365 75.3618 20.6465C75.6803 20.4564 75.9327 20.2021 76.1149 19.8822C76.2972 19.5623 76.3889 19.215 76.3889 18.8404C76.3889 18.4658 76.2972 18.1199 76.1122 17.7945C75.9273 17.4705 75.6749 17.2148 75.3537 17.0289C75.0325 16.843 74.6897 16.75 74.3253 16.75C73.9608 16.75 73.6153 16.8416 73.2995 17.0262C72.9837 17.2107 72.7313 17.4637 72.5437 17.7877C72.3561 18.1117 72.2616 18.4631 72.2616 18.8418L72.2629 18.8404ZM75.3281 18.2484C75.3281 18.6271 75.1607 18.8855 74.826 19.0223L75.6034 20.3416H74.911L74.2807 19.1918H73.9851V20.3416H73.3643V17.3406H74.224C74.6046 17.3406 74.884 17.4158 75.0608 17.5662C75.2377 17.7166 75.3267 17.9436 75.3267 18.2471L75.3281 18.2484ZM73.9851 18.7105H74.2119C74.3739 18.7105 74.4967 18.6723 74.579 18.5943C74.6627 18.5164 74.7032 18.4057 74.7032 18.2621C74.7032 18.1021 74.6627 17.9914 74.5831 17.9285C74.5034 17.8656 74.3766 17.8342 74.2038 17.8342H73.9838V18.7119L73.9851 18.7105Z" fill="black"/>
</g>
<defs>
<clipPath id="clip0_138_5950">
<rect width="79" height="70" fill="white"/>
</clipPath>
</defs>
</svg>
