<svg width="303" height="76" viewBox="0 0 303 76" fill="none" xmlns="http://www.w3.org/2000/svg">
<g filter="url(#filter0_d_302_1327)">
<rect x="4" y="3" width="295" height="68" rx="34" fill="white"/>
</g>
<g clip-path="url(#clip0_302_1327)">
<path d="M226.009 21.9967V22.3054C226.009 22.5204 225.924 22.7266 225.774 22.8789C225.623 23.0313 225.419 23.1174 225.205 23.1184H220.209V26.2727H224.37C224.476 26.2711 224.582 26.2908 224.681 26.3304C224.78 26.3701 224.87 26.4291 224.946 26.5039C225.022 26.5787 225.083 26.6679 225.125 26.7664C225.166 26.8649 225.188 26.9708 225.189 27.0779V27.3866C225.189 27.6023 225.104 27.8091 224.953 27.9615C224.801 28.114 224.596 28.1996 224.381 28.1996H220.221V31.4555H225.189C225.403 31.4566 225.607 31.5427 225.758 31.695C225.909 31.8474 225.993 32.0536 225.993 32.2685V32.5773C225.993 32.7922 225.909 32.9984 225.758 33.1508C225.607 33.3031 225.403 33.3893 225.189 33.3903H218.819C218.604 33.3903 218.399 33.3046 218.247 33.1522C218.096 32.9997 218.011 32.7929 218.011 32.5773V21.9967C218.012 21.7817 218.097 21.5759 218.249 21.4243C218.4 21.2727 218.605 21.1876 218.819 21.1876H225.189C225.403 21.1876 225.607 21.2728 225.758 21.4246C225.909 21.5763 225.993 21.7821 225.993 21.9967M232.329 26.3587L230.876 26.1476C230.43 26.1093 230.007 25.9301 229.668 25.6356C229.534 25.501 229.429 25.3389 229.362 25.1602C229.295 24.9815 229.267 24.7904 229.28 24.5998C229.28 23.478 230.294 22.9777 231.3 22.9777C232.139 23.0036 232.957 23.2487 233.673 23.6891C233.861 23.7869 234.071 23.8317 234.282 23.8186C234.492 23.8055 234.696 23.7351 234.87 23.6148L234.955 23.5367C235.052 23.4488 235.129 23.3407 235.181 23.2198C235.232 23.0989 235.257 22.9682 235.253 22.8368C235.248 22.7054 235.216 22.5765 235.157 22.459C235.098 22.3416 235.015 22.2385 234.913 22.1569C233.856 21.4694 232.628 21.0967 231.37 21.082C228.821 21.082 227.178 22.5165 227.178 24.7366C227.152 25.1653 227.215 25.5948 227.361 25.9983C227.507 26.4018 227.735 26.7706 228.029 27.0818C228.677 27.6627 229.495 28.0165 230.36 28.0902L231.836 28.3091C232.263 28.3358 232.671 28.4972 233.001 28.7703C233.138 28.9211 233.243 29.0983 233.31 29.2911C233.377 29.4839 233.404 29.6884 233.39 29.8921C233.39 30.9474 232.652 31.5259 231.203 31.5259C230.243 31.4756 229.321 31.1351 228.557 30.5487C228.393 30.439 228.199 30.3804 228.002 30.3804C227.804 30.3804 227.611 30.439 227.446 30.5487L227.299 30.6816C227.203 30.7713 227.128 30.8803 227.078 31.0014C227.028 31.1225 227.004 31.253 227.007 31.3842C227.011 31.5154 227.042 31.6443 227.099 31.7624C227.156 31.8805 227.237 31.9851 227.338 32.0692C228.418 32.9738 229.774 33.4787 231.179 33.4997C232.281 33.5409 233.364 33.2016 234.248 32.5382C234.657 32.2226 234.986 31.8141 235.209 31.346C235.431 30.878 235.54 30.3637 235.526 29.8452C235.526 28.7273 235.219 27.8909 234.61 27.3007C234.097 26.8082 233.386 26.5189 232.302 26.3626M213.267 26.3626L211.815 26.1515C211.368 26.1148 210.945 25.9354 210.606 25.6395C210.472 25.5049 210.367 25.3428 210.3 25.1641C210.233 24.9854 210.205 24.7943 210.218 24.6037C210.218 23.4819 211.232 22.9816 212.234 22.9816C213.074 23.0077 213.894 23.2528 214.612 23.693C214.799 23.7908 215.009 23.8356 215.22 23.8225C215.431 23.8094 215.634 23.739 215.808 23.6187L215.893 23.5406C215.99 23.4524 216.066 23.3441 216.117 23.2233C216.168 23.1025 216.193 22.972 216.189 22.8408C216.185 22.7096 216.152 22.5808 216.094 22.4634C216.036 22.346 215.953 22.2428 215.851 22.1608C214.793 21.4732 213.563 21.1006 212.304 21.0859C209.76 21.0859 208.116 22.5204 208.116 24.7405C208.088 25.1694 208.15 25.5995 208.296 26.0033C208.443 26.4071 208.671 26.7758 208.967 27.0857C209.615 27.6666 210.433 28.0204 211.298 28.0941L212.774 28.313C213.201 28.3405 213.608 28.5018 213.94 28.7742C214.076 28.925 214.181 29.1022 214.248 29.295C214.315 29.4878 214.342 29.6923 214.328 29.896C214.328 30.9513 213.59 31.5298 212.141 31.5298C211.18 31.4789 210.257 31.1384 209.492 30.5526C209.327 30.4429 209.134 30.3843 208.936 30.3843C208.739 30.3843 208.545 30.4429 208.381 30.5526L208.237 30.6855C208.141 30.7749 208.066 30.8837 208.015 31.0047C207.965 31.1256 207.94 31.256 207.944 31.3872C207.947 31.5184 207.978 31.6474 208.035 31.7657C208.091 31.8839 208.172 31.9887 208.272 32.0731C209.353 32.9772 210.708 33.482 212.114 33.5036C213.217 33.5448 214.301 33.2055 215.186 32.5421C215.596 32.2265 215.925 31.818 216.147 31.3499C216.369 30.8819 216.478 30.3676 216.465 29.8491C216.465 28.7312 216.154 27.8948 215.544 27.3046C215.031 26.8121 214.32 26.5228 213.24 26.3665M246.259 32.2294C246.311 32.3672 246.328 32.5155 246.311 32.6616C246.293 32.8076 246.24 32.9472 246.156 33.0682C246.073 33.1892 245.962 33.2881 245.833 33.3565C245.703 33.4248 245.559 33.4606 245.413 33.4606H245.183C244.998 33.4608 244.817 33.4035 244.664 33.2965C244.512 33.1895 244.396 33.038 244.333 32.8626L243.727 31.1897H238.735L238.129 32.8626C238.066 33.0384 237.95 33.1902 237.798 33.2972C237.645 33.4043 237.464 33.4613 237.278 33.4606H237.053C236.907 33.4603 236.763 33.4244 236.633 33.3561C236.503 33.2878 236.392 33.189 236.309 33.0681C236.225 32.9473 236.172 32.8079 236.153 32.6619C236.135 32.5159 236.152 32.3675 236.202 32.2294L240.149 21.7074C240.214 21.5341 240.33 21.3847 240.481 21.2793C240.632 21.1738 240.812 21.1173 240.996 21.1172H241.47C241.654 21.1173 241.833 21.1738 241.985 21.2793C242.136 21.3847 242.252 21.5341 242.317 21.7074L246.259 32.2294ZM243.059 29.38L241.233 24.4044L239.403 29.38H243.059ZM268.126 23.1263C268.34 23.1252 268.544 23.0391 268.695 22.8868C268.845 22.7344 268.93 22.5282 268.93 22.3133V21.9967C268.93 21.7821 268.845 21.5763 268.694 21.4246C268.544 21.2728 268.339 21.1876 268.126 21.1876H261.74C261.526 21.1876 261.321 21.2727 261.17 21.4243C261.018 21.5759 260.933 21.7817 260.932 21.9967V32.5812C260.933 32.7961 261.018 33.0019 261.17 33.1535C261.321 33.3052 261.526 33.3903 261.74 33.3903H268.126C268.339 33.3903 268.544 33.305 268.694 33.1533C268.845 33.0016 268.93 32.7958 268.93 32.5812V32.2724C268.93 32.0575 268.845 31.8513 268.695 31.6989C268.544 31.5466 268.34 31.4605 268.126 31.4594H263.13V28.2035H267.291C267.505 28.2035 267.711 28.1179 267.862 27.9654C268.014 27.8129 268.099 27.6062 268.099 27.3905V27.0779C268.099 26.9713 268.078 26.8657 268.037 26.7673C267.996 26.6689 267.937 26.5795 267.862 26.5044C267.787 26.4292 267.698 26.3697 267.6 26.3293C267.502 26.2888 267.397 26.2683 267.291 26.2688H263.13V23.1145H268.126M257.909 21.1133H257.408C257.251 21.1219 257.098 21.1719 256.966 21.2583C256.834 21.3447 256.726 21.4645 256.655 21.6058L253.232 28.7625L249.814 21.6058C249.741 21.4506 249.625 21.3197 249.481 21.2283C249.336 21.1369 249.169 21.0889 248.998 21.0899H248.497C248.257 21.0899 248.027 21.1858 247.857 21.3566C247.687 21.5274 247.592 21.759 247.592 22.0006V32.5499C247.592 32.7915 247.687 33.0231 247.857 33.1939C248.027 33.3647 248.257 33.4606 248.497 33.4606H248.885C249.125 33.4606 249.356 33.3647 249.525 33.1939C249.695 33.0231 249.791 32.7915 249.791 32.5499V25.7958L252.055 30.6543C252.129 30.8106 252.245 30.9428 252.39 31.0355C252.535 31.1282 252.703 31.1776 252.875 31.178H253.609C253.781 31.1776 253.949 31.1282 254.094 31.0355C254.239 30.9428 254.355 30.8106 254.429 30.6543L256.693 25.7958V32.5499C256.693 32.7915 256.789 33.0231 256.959 33.1939C257.128 33.3647 257.359 33.4606 257.599 33.4606H257.987C258.106 33.4612 258.224 33.438 258.335 33.3924C258.445 33.3469 258.545 33.2799 258.63 33.1953C258.714 33.1107 258.781 33.0101 258.827 32.8994C258.873 32.7886 258.896 32.6699 258.896 32.5499V22.0162C258.896 21.8963 258.873 21.7775 258.827 21.6668C258.781 21.556 258.714 21.4555 258.63 21.3709C258.545 21.2862 258.445 21.2192 258.335 21.1737C258.224 21.1282 258.106 21.105 257.987 21.1055M269.008 39.2259C269.008 40.6408 267.998 41.8212 266.289 41.8212H264.696V44.3852C264.696 44.549 264.631 44.7061 264.516 44.8219C264.401 44.9377 264.245 45.0028 264.082 45.0028H263.694C263.531 45.0028 263.375 44.9377 263.26 44.8219C263.144 44.7061 263.08 44.549 263.08 44.3852V37.2403C263.079 37.1588 263.095 37.0781 263.125 37.0027C263.156 36.9274 263.201 36.8588 263.258 36.8011C263.315 36.7433 263.383 36.6975 263.458 36.6662C263.533 36.6349 263.613 36.6188 263.694 36.6188H266.296C268.017 36.6188 269.015 37.7914 269.015 39.2141M267.388 39.2141C267.394 39.057 267.367 38.9004 267.308 38.7547C267.249 38.609 267.16 38.4776 267.047 38.3692C266.934 38.2608 266.799 38.178 266.651 38.1262C266.504 38.0744 266.347 38.0549 266.191 38.0689H264.692V40.3672H266.191C266.347 40.3806 266.504 40.3605 266.652 40.3083C266.799 40.256 266.934 40.1728 267.047 40.0641C267.16 39.9555 267.249 39.8238 267.308 39.6779C267.367 39.5321 267.394 39.3753 267.388 39.218M216.993 36.6227H216.705C216.567 36.623 216.434 36.6698 216.325 36.7555C216.217 36.8412 216.14 36.961 216.107 37.0957L214.942 41.8681L213.536 37.08C213.499 36.951 213.421 36.8374 213.315 36.7564C213.208 36.6754 213.079 36.6312 212.945 36.6305H212.654C212.52 36.6312 212.391 36.6754 212.284 36.7564C212.178 36.8374 212.1 36.951 212.063 37.08L210.688 41.8759L209.503 37.1035C209.472 36.9688 209.396 36.8487 209.288 36.7629C209.18 36.677 209.046 36.6304 208.909 36.6305H208.621C208.527 36.6303 208.433 36.652 208.348 36.6941C208.263 36.7361 208.188 36.7973 208.131 36.8728C208.073 36.9484 208.033 37.0364 208.014 37.1299C207.996 37.2235 207.999 37.3201 208.023 37.4123L209.795 44.5455C209.828 44.6798 209.905 44.799 210.013 44.8841C210.122 44.9692 210.255 45.0151 210.393 45.0145H210.816C210.95 45.0154 211.079 44.9723 211.186 44.8918C211.293 44.8113 211.37 44.6979 211.407 44.5689L212.786 39.8004L214.161 44.5689C214.198 44.6976 214.276 44.8106 214.382 44.891C214.489 44.9714 214.618 45.0147 214.751 45.0145H215.19C215.328 45.0151 215.462 44.9692 215.57 44.8841C215.679 44.799 215.756 44.6798 215.789 44.5455L217.56 37.4123C217.585 37.3204 217.589 37.2238 217.571 37.1302C217.553 37.0367 217.513 36.9486 217.456 36.8729C217.398 36.7971 217.324 36.7359 217.239 36.6938C217.154 36.6518 217.06 36.6301 216.966 36.6305M261.6 40.7932C261.6 42.384 261.573 43.326 260.753 44.1507C260.149 44.7136 259.356 45.0263 258.533 45.0263C257.71 45.0263 256.917 44.7136 256.313 44.1507C255.493 43.326 255.466 42.384 255.466 40.7932C255.466 39.2024 255.493 38.2643 256.313 37.4396C256.915 36.8742 257.709 36.5597 258.533 36.5597C259.357 36.5597 260.15 36.8742 260.753 37.4396C261.573 38.2643 261.6 39.2063 261.6 40.7932ZM259.976 40.7932C259.976 39.2063 259.879 38.8076 259.588 38.448C259.453 38.3072 259.292 38.1952 259.113 38.1187C258.935 38.0422 258.742 38.0027 258.548 38.0027C258.354 38.0027 258.162 38.0422 257.984 38.1187C257.805 38.1952 257.644 38.3072 257.509 38.448C257.202 38.7998 257.121 39.1985 257.121 40.7932C257.121 42.3879 257.214 42.7749 257.509 43.1384C257.643 43.2802 257.804 43.3931 257.983 43.4703C258.162 43.5474 258.354 43.5872 258.548 43.5872C258.743 43.5872 258.935 43.5474 259.114 43.4703C259.292 43.3931 259.454 43.2802 259.588 43.1384C259.894 42.7866 259.976 42.3958 259.976 40.7932ZM224.626 40.7932C224.626 42.384 224.599 43.326 223.779 44.1507C223.175 44.7136 222.382 45.0263 221.559 45.0263C220.736 45.0263 219.943 44.7136 219.339 44.1507C218.519 43.326 218.492 42.384 218.492 40.7932C218.492 39.2024 218.519 38.2643 219.339 37.4396C219.942 36.8742 220.735 36.5597 221.559 36.5597C222.383 36.5597 223.177 36.8742 223.779 37.4396C224.599 38.2643 224.626 39.2063 224.626 40.7932ZM222.998 40.7932C222.998 39.2063 222.905 38.8076 222.61 38.448C222.475 38.3072 222.314 38.1952 222.136 38.1187C221.957 38.0422 221.765 38.0027 221.571 38.0027C221.377 38.0027 221.185 38.0422 221.006 38.1187C220.828 38.1952 220.666 38.3072 220.532 38.448C220.221 38.7998 220.143 39.1985 220.143 40.7932C220.143 42.3879 220.233 42.7749 220.532 43.1384C220.666 43.2802 220.827 43.3931 221.005 43.4703C221.184 43.5474 221.376 43.5872 221.571 43.5872C221.765 43.5872 221.958 43.5474 222.136 43.4703C222.315 43.3931 222.476 43.2802 222.61 43.1384C222.917 42.7866 222.998 42.3958 222.998 40.7932ZM249.616 44.3852V41.4733H252.417V44.3852C252.418 44.5494 252.483 44.7064 252.599 44.8221C252.715 44.9379 252.871 45.0028 253.034 45.0028H253.423C253.585 45.0028 253.742 44.9377 253.857 44.8219C253.972 44.7061 254.036 44.549 254.036 44.3852V37.2051C254.036 37.0409 253.972 36.8835 253.857 36.767C253.742 36.6506 253.586 36.5847 253.423 36.5836H253.034C252.87 36.5836 252.713 36.6491 252.597 36.7657C252.482 36.8822 252.417 37.0403 252.417 37.2051V40.0232H249.616V37.2051C249.616 37.0409 249.551 36.8835 249.436 36.767C249.321 36.6506 249.165 36.5847 249.002 36.5836H248.614C248.45 36.5836 248.293 36.6491 248.177 36.7657C248.061 36.8822 247.996 37.0403 247.996 37.2051V44.3852C247.997 44.5494 248.062 44.7064 248.178 44.8221C248.294 44.9379 248.45 45.0028 248.614 45.0028H249.002C249.165 45.0028 249.321 44.9377 249.436 44.8219C249.551 44.7061 249.616 44.549 249.616 44.3852ZM245.642 44.4517C245.904 44.2274 246.12 43.9525 246.275 43.6431C246.43 43.3338 246.522 42.9963 246.546 42.6506C246.569 42.3049 246.524 41.958 246.412 41.6302C246.3 41.3025 246.124 41.0006 245.894 40.7424C245.438 40.3509 244.869 40.1166 244.271 40.074L243.272 39.9294C242.985 39.9031 242.713 39.7869 242.495 39.5972C242.409 39.5115 242.342 39.4081 242.299 39.2942C242.256 39.1802 242.238 39.0582 242.247 38.9366C242.247 38.2174 242.907 37.8969 243.564 37.8969C244.112 37.9171 244.647 38.0772 245.117 38.362H245.145C245.275 38.4273 245.419 38.4607 245.564 38.4598C245.74 38.4669 245.912 38.41 246.05 38.2995L246.108 38.2448C246.183 38.1751 246.243 38.0896 246.281 37.9944C246.32 37.8992 246.338 37.7965 246.333 37.6937C246.33 37.5949 246.304 37.4982 246.259 37.4104C246.215 37.3226 246.151 37.2458 246.073 37.1855C245.333 36.7029 244.472 36.4414 243.591 36.4312C241.8 36.4312 240.638 37.4474 240.638 39.0187C240.619 39.324 240.662 39.6301 240.767 39.9175C240.871 40.2048 241.034 40.4672 241.244 40.6877C241.702 41.097 242.278 41.3465 242.888 41.399L243.905 41.5515C244.189 41.5649 244.461 41.6689 244.682 41.8485C244.771 41.9451 244.839 42.0585 244.883 42.182C244.927 42.3055 244.946 42.4367 244.939 42.5677C244.939 43.4354 244.162 43.6191 243.509 43.6191C242.863 43.5832 242.241 43.3531 241.726 42.9586C241.589 42.8708 241.43 42.8246 241.268 42.8257C241.126 42.8208 240.988 42.868 240.879 42.9586L240.778 43.0485C240.706 43.1133 240.649 43.1929 240.61 43.2819C240.571 43.3709 240.552 43.4672 240.553 43.5644C240.554 43.6678 240.578 43.7697 240.621 43.8633C240.665 43.957 240.728 44.0403 240.805 44.1077C241.561 44.7416 242.51 45.0961 243.494 45.1122C244.268 45.1391 245.028 44.9007 245.65 44.436M238.848 36.568H238.479C238.388 36.5693 238.299 36.5901 238.217 36.6293C238.135 36.6684 238.063 36.7248 238.005 36.7947L235.208 40.1874V37.1895C235.208 37.0246 235.143 36.8666 235.027 36.75C234.911 36.6335 234.754 36.568 234.59 36.568H234.202C234.038 36.569 233.882 36.6349 233.767 36.7514C233.652 36.8678 233.588 37.0253 233.588 37.1895V44.3696C233.588 44.5334 233.653 44.6905 233.768 44.8063C233.883 44.9221 234.039 44.9872 234.202 44.9872H234.59C234.753 44.9872 234.91 44.9222 235.025 44.8065C235.141 44.6908 235.207 44.5337 235.208 44.3696V42.4387L236.264 41.1528L238.269 44.6706C238.322 44.7648 238.4 44.843 238.493 44.8973C238.587 44.9515 238.693 44.9799 238.801 44.9793H239.217C239.324 44.9797 239.43 44.9517 239.523 44.898C239.617 44.8444 239.694 44.7669 239.749 44.6735C239.803 44.5801 239.832 44.474 239.833 44.3658C239.833 44.2575 239.806 44.151 239.753 44.0569L237.422 39.9099L239.341 37.5647C239.415 37.4739 239.462 37.3639 239.477 37.2473C239.491 37.1307 239.473 37.0123 239.423 36.9059C239.374 36.7995 239.295 36.7095 239.196 36.6462C239.098 36.5829 238.984 36.549 238.867 36.5484M231.541 44.9676H231.125C231.017 44.9676 230.91 44.9391 230.816 44.885C230.722 44.8308 230.644 44.7528 230.589 44.6588L228.853 41.6062H227.722V44.3422C227.722 44.506 227.657 44.6631 227.542 44.7789C227.427 44.8947 227.271 44.9598 227.108 44.9598H226.72C226.557 44.9598 226.401 44.8947 226.286 44.7789C226.171 44.6631 226.106 44.506 226.106 44.3422V37.2403C226.106 37.0761 226.171 36.9186 226.286 36.8022C226.401 36.6858 226.557 36.6198 226.72 36.6188H229.354C231.043 36.6188 232.042 37.7718 232.042 39.1633C232.051 39.6405 231.911 40.1085 231.643 40.5023C231.375 40.896 230.992 41.1958 230.546 41.3599L232.1 44.0647C232.153 44.1591 232.18 44.2658 232.179 44.3741C232.179 44.4825 232.15 44.5887 232.096 44.6823C232.041 44.7759 231.964 44.8537 231.871 44.9078C231.777 44.962 231.672 44.9907 231.564 44.9911M230.383 39.1946C230.388 39.0424 230.361 38.8908 230.303 38.75C230.245 38.6092 230.159 38.4824 230.048 38.3781C229.938 38.2738 229.807 38.1943 229.664 38.145C229.52 38.0958 229.368 38.0778 229.218 38.0924H227.664V40.2851H229.218C229.367 40.3001 229.519 40.2829 229.661 40.2346C229.804 40.1862 229.935 40.1078 230.045 40.0047C230.155 39.9015 230.243 39.7759 230.301 39.6362C230.359 39.4966 230.387 39.346 230.383 39.1946Z" fill="#55585B"/>
<path d="M238.502 10.3101C236.655 10.31 234.874 11.0041 233.508 12.2564C232.143 13.5087 231.292 15.2289 231.121 17.0798C231.121 17.1971 231.11 17.3066 231.086 17.4082C231.064 17.6352 230.959 17.8458 230.791 17.999C230.623 18.1521 230.404 18.2369 230.177 18.2368H208.925C208.681 18.2368 208.448 18.1396 208.276 17.9666C208.104 17.7936 208.008 17.559 208.008 17.3144V16.8453C208.009 16.6014 208.106 16.3678 208.278 16.1956C208.449 16.0235 208.682 15.9268 208.925 15.9268H228.969C229.391 13.6919 230.576 11.6754 232.317 10.2248C234.059 8.7742 236.249 7.98047 238.51 7.98047C240.771 7.98047 242.961 8.7742 244.702 10.2248C246.444 11.6754 247.628 13.6919 248.05 15.9268H268.095C268.337 15.9268 268.569 16.0236 268.74 16.1958C268.912 16.3681 269.008 16.6017 269.008 16.8453V17.3065C269.008 17.5505 268.912 17.7845 268.741 17.9574C268.57 18.1303 268.337 18.2279 268.095 18.229H246.838C246.612 18.2291 246.393 18.1443 246.225 17.9912C246.057 17.838 245.952 17.6274 245.929 17.4004C245.929 17.2987 245.918 17.1893 245.894 17.072C245.724 15.2211 244.873 13.5009 243.507 12.2486C242.142 10.9963 240.361 10.3022 238.514 10.3023" fill="#FDD10C"/>
<path d="M269 49.2743V48.8053C269 48.5617 268.904 48.328 268.733 48.1557C268.561 47.9835 268.329 47.8867 268.087 47.8867H208.917C208.674 47.8867 208.442 47.9834 208.27 48.1555C208.098 48.3277 208.001 48.5613 208 48.8053V49.2743C208 49.5189 208.097 49.7536 208.269 49.9266C208.44 50.0995 208.674 50.1967 208.917 50.1967H268.087C268.33 50.1957 268.562 50.098 268.733 49.9252C268.904 49.7523 269 49.5182 269 49.2743Z" fill="#11A84E"/>
<path d="M266.907 44.9325C266.889 44.8933 266.883 44.8501 266.887 44.8074V43.9632H266.72C266.682 43.9677 266.642 43.9609 266.608 43.9436C266.589 43.9337 266.573 43.9184 266.563 43.8996C266.552 43.8809 266.548 43.8595 266.549 43.8381C266.547 43.8161 266.552 43.7941 266.562 43.7746C266.573 43.7552 266.588 43.7392 266.608 43.7286C266.642 43.7113 266.682 43.7045 266.72 43.7091H267.342C267.38 43.7045 267.42 43.7113 267.454 43.7286C267.474 43.7392 267.489 43.7552 267.5 43.7746C267.51 43.7941 267.515 43.8161 267.513 43.8381C267.514 43.8595 267.51 43.8809 267.499 43.8996C267.489 43.9184 267.473 43.9337 267.454 43.9436C267.42 43.9609 267.38 43.9677 267.342 43.9632H267.175V44.8074C267.186 44.8484 267.186 44.8915 267.175 44.9325C267.162 44.9544 267.144 44.9726 267.122 44.9852C267.1 44.9978 267.076 45.0045 267.05 45.0045C267.025 45.0045 267 44.9978 266.979 44.9852C266.957 44.9726 266.939 44.9544 266.926 44.9325M268.2 44.6198L268.002 44.2289V44.7996C268.007 44.8423 268 44.8854 267.983 44.9247C267.97 44.9466 267.952 44.9648 267.93 44.9774C267.908 44.99 267.884 44.9967 267.858 44.9967C267.833 44.9967 267.808 44.99 267.787 44.9774C267.765 44.9648 267.747 44.9466 267.734 44.9247C267.723 44.8837 267.723 44.8406 267.734 44.7996V43.9045C267.73 43.876 267.733 43.8471 267.741 43.8195C267.749 43.7919 267.762 43.7663 267.781 43.7443C267.815 43.7115 267.861 43.6933 267.909 43.6935C267.942 43.6924 267.974 43.7005 268.002 43.7169C268.038 43.7431 268.066 43.7781 268.084 43.8185L268.387 44.3853L268.69 43.8185C268.708 43.7781 268.736 43.7431 268.771 43.7169C268.8 43.7005 268.832 43.6924 268.865 43.6935C268.888 43.693 268.912 43.6972 268.934 43.7059C268.956 43.7147 268.976 43.7277 268.993 43.7443C269.011 43.7663 269.025 43.7919 269.033 43.8195C269.041 43.8471 269.043 43.876 269.039 43.9045V44.7996C269.05 44.8406 269.05 44.8837 269.039 44.9247C269.027 44.9466 269.009 44.9648 268.987 44.9774C268.965 44.99 268.94 44.9967 268.915 44.9967C268.89 44.9967 268.865 44.99 268.843 44.9774C268.821 44.9648 268.803 44.9466 268.791 44.9247C268.78 44.8837 268.78 44.8406 268.791 44.7996V44.2368L268.596 44.6276C268.58 44.6587 268.555 44.6847 268.525 44.7026C268.495 44.7206 268.461 44.7298 268.426 44.7292C268.391 44.7299 268.357 44.7208 268.327 44.7028C268.298 44.6848 268.274 44.6587 268.258 44.6276" fill="#55585B"/>
<path d="M213.758 57.6585V57.1973H215.226V57.8031H215.09L213.758 57.6585ZM215.226 63.0993V63.709H213.758V63.2478L215.102 63.0993H215.226ZM214.597 60.2616C214.597 59.2415 214.597 58.2135 214.566 57.1973H215.867C215.84 58.194 215.84 59.2219 215.84 60.2616V60.5509C215.84 61.6648 215.84 62.6889 215.867 63.709H214.558C214.589 62.7084 214.589 61.6844 214.589 60.6486L214.597 60.2616ZM215.226 60.0818H216.256C217.266 60.0818 217.716 59.691 217.716 58.8506C217.716 58.0103 217.281 57.7054 216.395 57.7054H215.23V57.1973H216.749C218.245 57.1973 218.944 57.8578 218.944 58.7607C218.944 59.5073 218.454 60.1561 217.001 60.3242V60.2343C218.629 60.3515 219.282 61.016 219.282 61.8993C219.282 62.7827 218.617 63.7051 216.477 63.7051H215.218V63.1931H216.322C217.405 63.1931 217.973 62.7397 217.973 61.8915C217.973 61.0434 217.444 60.5665 216.279 60.5665H215.218L215.226 60.0818Z" fill="#555758"/>
<path d="M221.647 61.0521C222.036 60.9192 222.708 60.7394 223.182 60.6612V61.0521C222.742 61.1485 222.311 61.2792 221.892 61.443C221.235 61.7087 221.041 62.0605 221.041 62.4358C221.029 62.5304 221.039 62.6264 221.068 62.717C221.098 62.8075 221.147 62.8902 221.213 62.9591C221.278 63.028 221.358 63.0813 221.447 63.1152C221.535 63.1491 221.63 63.1627 221.725 63.1549C221.989 63.1549 222.164 63.0533 222.622 62.7211L222.917 62.4983L223.038 62.6703L222.688 63.0377C222.164 63.5849 221.845 63.8741 221.193 63.8741C221.023 63.8934 220.851 63.875 220.69 63.8202C220.528 63.7654 220.38 63.6755 220.257 63.557C220.134 63.4384 220.038 63.2941 219.976 63.1341C219.914 62.9741 219.888 62.8025 219.899 62.6312C219.899 61.9785 220.241 61.5133 221.647 61.0521ZM222.576 62.854V60.5088C222.576 59.5942 222.354 59.3362 221.721 59.3362C221.416 59.3399 221.115 59.394 220.827 59.4965L221.36 59.1525L221.2 59.9147C221.142 60.3837 220.913 60.5948 220.591 60.5948C220.46 60.608 220.329 60.5692 220.227 60.4866C220.125 60.404 220.058 60.2842 220.043 60.1531C220.159 59.3714 220.913 58.8633 222.106 58.8633C223.236 58.8633 223.729 59.3597 223.729 60.6378V62.7797C223.729 63.0924 223.834 63.2175 224.017 63.2175C224.199 63.2175 224.242 63.1471 224.355 63.0025L224.58 63.1979C224.499 63.3939 224.358 63.5593 224.178 63.6708C223.998 63.7823 223.788 63.8342 223.578 63.8194C223.448 63.8275 223.317 63.8084 223.195 63.7634C223.072 63.7183 222.961 63.6482 222.867 63.5575C222.772 63.4668 222.698 63.3575 222.648 63.2364C222.598 63.1153 222.573 62.9851 222.576 62.854Z" fill="#555758"/>
<path d="M225.422 63.7101C225.441 63.2685 225.449 62.2561 225.449 61.6464V61.1305C225.449 60.5911 225.449 60.3487 225.422 59.9579L224.734 59.868V59.5045L226.366 58.883L226.521 58.9846L226.626 60.0986V61.662C226.626 62.2718 226.626 63.2841 226.653 63.7258L225.422 63.7101ZM227.217 63.3193V63.7101H224.8V63.3193L225.787 63.1238H226.261L227.217 63.3193ZM229.575 60.6341V61.6581C229.575 62.2874 229.575 63.2802 229.606 63.7219H228.37C228.394 63.2802 228.401 62.2874 228.401 61.6581V60.7318C228.401 59.95 228.207 59.7038 227.722 59.7038C227.467 59.727 227.219 59.8008 226.992 59.9209C226.765 60.0409 226.564 60.205 226.401 60.4035H226.129V59.8641H226.712L226.323 60.0908C226.898 59.2817 227.562 58.883 228.266 58.883C229.093 58.8713 229.575 59.4107 229.575 60.6223V60.6341ZM229.217 63.1238L230.181 63.3193V63.7101H227.768V63.3193L228.743 63.1238H229.217Z" fill="#555758"/>
<path d="M234.3 64.6012C234.3 64.2376 234.07 63.9328 233.453 63.9328H232.365C232.103 63.9427 231.841 63.9124 231.588 63.8429V63.8194C231.091 63.6865 230.862 63.4012 230.862 63.0103C230.862 62.6195 231.153 62.1661 231.786 61.6384L232.023 61.7948C231.926 61.8856 231.849 61.995 231.795 62.1165C231.741 62.238 231.711 62.3691 231.709 62.5022C231.709 62.7485 231.837 62.8931 232.276 62.8931H233.488C234.754 62.8931 235.263 63.4168 235.263 64.2377C235.263 65.1601 234.366 66.0004 232.637 66.0004C231.126 66.0004 230.582 65.4806 230.582 64.8279C230.582 64.3471 230.908 63.9719 231.771 63.6318L231.864 63.7061C231.738 63.8219 231.636 63.9624 231.565 64.1189C231.494 64.2755 231.456 64.4448 231.452 64.6168C231.452 65.2343 231.907 65.4845 232.73 65.4845C233.764 65.4845 234.3 65.0975 234.3 64.6012ZM232.711 58.8633C233.903 58.8633 234.599 59.4574 234.599 60.4619C234.599 61.4664 233.892 62.0488 232.703 62.0488C231.514 62.0488 230.807 61.4508 230.807 60.4619C230.807 59.473 231.514 58.8711 232.711 58.8711V58.8633ZM231.887 60.4619C231.887 61.1655 232.159 61.6345 232.664 61.6345C233.169 61.6345 233.507 61.1576 233.507 60.4619C233.507 59.7662 233.216 59.3206 232.695 59.3206C232.175 59.3206 231.887 59.7623 231.887 60.4697V60.4619ZM235.193 58.8516L235.341 58.9493V59.6333H233.927V59.3401L235.193 58.8516Z" fill="#555758"/>
<path d="M237.348 56.5137L237.495 56.6036L237.456 57.9872V61.6457C237.456 62.3336 237.456 63.0215 237.484 63.7094H236.252C236.252 63.0215 236.279 62.3336 236.279 61.6457V57.4322L235.576 57.3345V56.9436L237.348 56.5137ZM238.124 63.3069V63.6977H235.588V63.3069L236.606 63.1114H237.076L238.124 63.3069Z" fill="#555758"/>
<path d="M240.301 61.0521C240.69 60.9192 241.358 60.7394 241.832 60.6612V61.0521C241.393 61.1497 240.962 61.2803 240.542 61.443C239.89 61.7087 239.695 62.0605 239.695 62.4358C239.684 62.5304 239.693 62.6264 239.722 62.717C239.752 62.8075 239.802 62.8902 239.867 62.9591C239.933 63.028 240.013 63.0813 240.101 63.1152C240.19 63.1491 240.285 63.1627 240.379 63.1549C240.643 63.1549 240.818 63.0533 241.276 62.7211L241.572 62.4983L241.692 62.6703L241.342 63.0377C240.814 63.5849 240.5 63.8741 239.847 63.8741C239.677 63.8934 239.506 63.875 239.344 63.8202C239.182 63.7654 239.035 63.6755 238.911 63.557C238.788 63.4384 238.692 63.2941 238.63 63.1341C238.568 62.9741 238.542 62.8025 238.553 62.6312C238.553 61.9785 238.891 61.5133 240.301 61.0521ZM241.23 62.854V60.5088C241.23 59.5942 241.008 59.3362 240.375 59.3362C240.071 59.3395 239.769 59.3936 239.482 59.4965L240.014 59.1525L239.851 59.9147C239.796 60.3837 239.563 60.5948 239.245 60.5948C239.114 60.6081 238.983 60.5693 238.88 60.4868C238.777 60.4043 238.71 60.2846 238.693 60.1531C238.814 59.3714 239.567 58.8633 240.76 58.8633C241.89 58.8633 242.38 59.3597 242.38 60.6378V62.7797C242.38 63.0924 242.488 63.2175 242.671 63.2175C242.854 63.2175 242.896 63.1471 243.009 63.0025L243.234 63.1979C243.153 63.3939 243.012 63.5593 242.832 63.6708C242.653 63.7823 242.443 63.8342 242.232 63.8194C242.102 63.8275 241.972 63.8084 241.849 63.7634C241.727 63.7183 241.615 63.6482 241.521 63.5575C241.427 63.4668 241.352 63.3575 241.302 63.2364C241.252 63.1153 241.227 62.9851 241.23 62.854Z" fill="#555758"/>
<path d="M245.957 63.1466C246.443 63.1466 246.777 62.8652 247.154 62.3336L247.255 62.5447C246.827 63.4085 246.299 63.8463 245.487 63.8463C244.322 63.8463 243.518 62.9121 243.518 61.3995C243.518 59.8868 244.481 58.8706 245.631 58.8706C246.334 58.8706 246.796 59.2185 247.255 60.0432L247.157 60.2659C246.684 59.7578 246.353 59.5624 245.965 59.5624C245.308 59.5624 244.765 60.1331 244.765 61.3838C244.765 62.5681 245.266 63.1466 245.957 63.1466ZM248.63 63.3069V63.6977L246.944 63.8189L246.831 62.8847V59.8126L246.874 59.6992V57.44L246.097 57.3423V56.9514L247.88 56.5098L248.028 56.5997L247.989 57.9833V63.7055L247.577 63.0958L248.63 63.3069Z" fill="#555758"/>
<path d="M253.36 60.8444C253.363 61.0261 253.342 61.2075 253.298 61.3838H249.588V60.9186H251.659C252.129 60.9186 252.242 60.7193 252.242 60.3597C252.254 60.2352 252.241 60.1095 252.203 59.9901C252.166 59.8708 252.105 59.7603 252.024 59.6654C251.943 59.5704 251.844 59.4929 251.733 59.4376C251.621 59.3823 251.499 59.3502 251.375 59.3435C250.863 59.3435 250.319 59.832 250.319 61.243C250.319 62.4625 250.925 63.0645 251.775 63.0645C252.019 63.0664 252.26 63.0125 252.48 62.9068C252.7 62.8012 252.894 62.6466 253.046 62.4547L253.329 62.7049C253.15 63.0638 252.871 63.3627 252.526 63.5653C252.182 63.7679 251.786 63.8655 251.387 63.8462C250.023 63.8462 249.091 62.9238 249.091 61.3838C249.074 61.0598 249.123 60.7357 249.235 60.4314C249.347 60.1271 249.519 59.8488 249.741 59.6136C249.963 59.3784 250.23 59.1913 250.527 59.0635C250.823 58.9357 251.142 58.8701 251.465 58.8705C251.722 58.8605 251.978 58.9052 252.217 59.0017C252.456 59.0983 252.672 59.2445 252.851 59.4308C253.03 59.6171 253.168 59.8393 253.256 60.0829C253.343 60.3265 253.379 60.586 253.36 60.8444Z" fill="#555758"/>
<path d="M254.041 63.4286V62.295H254.694L254.934 63.5341L254.422 63.3269V62.9361C254.772 63.1936 255.196 63.3306 255.63 63.3269C256.286 63.3269 256.617 63.0846 256.617 62.6625C256.617 62.2403 256.38 62.0879 255.75 61.8807L255.265 61.7205C254.53 61.4782 254.099 61.0326 254.099 60.329C254.099 59.5239 254.756 58.8438 255.96 58.8438C256.47 58.8428 256.971 58.9776 257.413 59.2346L257.358 60.2704H256.721L256.481 59.1643L256.931 59.3636V59.6724C256.647 59.4461 256.295 59.3246 255.933 59.3284C255.416 59.3284 255.113 59.5551 255.113 59.9421C255.113 60.329 255.307 60.4736 255.976 60.6964L256.364 60.8176C257.316 61.1381 257.685 61.6267 257.685 62.295C257.685 63.1784 256.951 63.8116 255.638 63.8116C255.081 63.8302 254.529 63.6979 254.041 63.4286Z" fill="#555758"/>
<path d="M258.67 57.4322L257.963 57.3345V56.9436L259.707 56.502L259.855 56.5918L259.816 57.9755V59.9806L259.843 60.1096V61.6339C259.843 62.2437 259.843 63.256 259.874 63.6977H258.639C258.658 63.256 258.67 62.2437 258.67 61.6339V57.4322ZM260.43 63.2951V63.686H258.021V63.2951L259.008 63.0997H259.482L260.43 63.2951ZM262.819 60.6099V61.6339C262.819 62.2632 262.819 63.256 262.85 63.6977H261.614C261.614 63.256 261.645 62.2632 261.645 61.6339V60.7076C261.645 59.9259 261.467 59.6796 260.977 59.6796C260.554 59.6796 260.142 59.922 259.664 60.4145H259.373V59.8399H259.944L259.556 60.0666C260.127 59.2575 260.795 58.8588 261.498 58.8588C262.333 58.8706 262.819 59.41 262.819 60.6216V60.6099ZM262.461 63.0997L263.425 63.2951V63.686H261.012V63.2951L261.987 63.0997H262.461Z" fill="#555758"/>
</g>
<path fill-rule="evenodd" clip-rule="evenodd" d="M148.025 30.5384C147.812 30.8141 147.537 31.0382 147.223 31.1935C146.908 31.3488 146.562 31.4313 146.211 31.4348C145.622 31.4348 145.057 31.2036 144.64 30.792C144.223 30.3805 143.989 29.8223 143.989 29.2402C143.989 28.6581 144.223 28.0999 144.64 27.6883C145.057 27.2768 145.622 27.0456 146.211 27.0456C146.546 27.0555 146.875 27.1399 147.173 27.2924C147.471 27.4449 147.73 27.6616 147.931 27.9265C147.987 27.9776 148.059 28.006 148.135 28.006C148.21 28.006 148.283 27.9776 148.338 27.9265L149.105 27.2774C149.157 27.2204 149.187 27.146 149.187 27.0687C149.187 26.9915 149.157 26.9171 149.105 26.8601C148.752 26.4236 148.305 26.0707 147.796 25.8273C147.287 25.5839 146.729 25.4562 146.164 25.4537C145.666 25.4452 145.171 25.5363 144.71 25.7217C144.248 25.907 143.829 26.1827 143.479 26.5322C143.128 26.8816 142.852 27.2976 142.669 27.755C142.485 28.2124 142.397 28.7018 142.409 29.1938C142.399 29.6926 142.491 30.1883 142.68 30.6508C142.869 31.1134 143.151 31.533 143.51 31.8843C143.868 32.2356 144.295 32.5112 144.765 32.6943C145.235 32.8774 145.737 32.9642 146.242 32.9494C146.85 32.9531 147.45 32.815 147.993 32.5465C148.537 32.2779 149.009 31.8865 149.371 31.4039C149.423 31.3469 149.453 31.2725 149.453 31.1953C149.453 31.1181 149.423 31.0436 149.371 30.9866L148.588 30.4148C148.553 30.3651 148.503 30.3269 148.446 30.3051C148.388 30.2832 148.325 30.2785 148.265 30.2917C148.205 30.3049 148.15 30.3354 148.108 30.3793C148.065 30.4232 148.036 30.4785 148.025 30.5384Z" fill="#000035"/>
<path fill-rule="evenodd" clip-rule="evenodd" d="M150.746 32.8582H151.779C151.818 32.8604 151.858 32.8544 151.895 32.8404C151.932 32.8265 151.966 32.8049 151.994 32.7772C152.022 32.7494 152.044 32.7162 152.058 32.6795C152.072 32.6429 152.078 32.6037 152.076 32.5645V25.9343C152.076 25.8564 152.045 25.7817 151.989 25.7266C151.933 25.6716 151.858 25.6406 151.779 25.6406H150.746C150.667 25.6406 150.592 25.6716 150.536 25.7266C150.48 25.7817 150.449 25.8564 150.449 25.9343V32.5491C150.444 32.5895 150.449 32.6304 150.462 32.6689C150.475 32.7074 150.496 32.7427 150.525 32.7721C150.553 32.8016 150.588 32.8246 150.626 32.8395C150.664 32.8543 150.705 32.8607 150.746 32.8582Z" fill="#000035"/>
<path fill-rule="evenodd" clip-rule="evenodd" d="M166.407 25.8887L169.317 32.0708L167.518 36.2128C167.439 36.3519 167.518 36.4756 167.69 36.4756H168.832C168.919 36.4721 169.004 36.446 169.078 36.3999C169.152 36.3538 169.213 36.2893 169.254 36.2128L173.697 25.966C173.775 25.8269 173.697 25.7033 173.525 25.7033H172.383C172.298 25.7094 172.216 25.7367 172.145 25.7826C172.074 25.8286 172.016 25.8917 171.976 25.966L170.208 30.0926L168.175 25.9042C168.132 25.8287 168.072 25.765 167.998 25.7191C167.924 25.6731 167.839 25.6464 167.752 25.6415H166.548C166.517 25.6383 166.487 25.644 166.46 25.6579C166.432 25.6717 166.41 25.6931 166.395 25.7194C166.38 25.7457 166.373 25.7757 166.375 25.8058C166.377 25.8359 166.388 25.8647 166.407 25.8887Z" fill="#000035"/>
<path fill-rule="evenodd" clip-rule="evenodd" d="M130.333 27.1237C129.395 26.7219 128.566 26.3973 128.566 25.5782C128.573 25.4032 128.617 25.2316 128.695 25.0742C128.772 24.9168 128.882 24.777 129.018 24.6638C129.153 24.5505 129.31 24.4661 129.48 24.416C129.65 24.3659 129.829 24.3512 130.005 24.3727C130.565 24.3755 131.111 24.5481 131.569 24.8673C131.619 24.9163 131.686 24.9439 131.757 24.9439C131.827 24.9439 131.895 24.9163 131.944 24.8673L132.539 24.1254C132.589 24.0762 132.616 24.0095 132.616 23.94C132.616 23.8704 132.589 23.8037 132.539 23.7545C131.826 23.1847 130.937 22.8737 130.02 22.8735C129.645 22.8485 129.269 22.8978 128.914 23.0186C128.558 23.1394 128.231 23.3293 127.951 23.577C127.671 23.8248 127.445 24.1254 127.284 24.4611C127.124 24.7968 127.033 25.1609 127.017 25.5318C127.017 25.9749 127.134 26.4103 127.356 26.7951C127.578 27.1799 127.898 27.5009 128.284 27.7265C128.711 27.9969 129.168 28.2198 129.645 28.391C130.615 28.7929 131.475 29.1793 131.475 30.1066C131.474 30.2979 131.43 30.4865 131.347 30.6593C131.264 30.8321 131.144 30.985 130.995 31.1071C130.846 31.2293 130.672 31.3179 130.484 31.3666C130.297 31.4154 130.101 31.4231 129.911 31.3894C129.497 31.3748 129.091 31.2768 128.717 31.1014C128.343 30.926 128.009 30.6769 127.736 30.3693C127.713 30.3455 127.685 30.3265 127.654 30.3136C127.623 30.3006 127.59 30.294 127.557 30.294C127.523 30.294 127.49 30.3006 127.459 30.3136C127.428 30.3265 127.4 30.3455 127.377 30.3693L126.673 31.0648C126.622 31.1167 126.594 31.1859 126.594 31.258C126.594 31.3301 126.622 31.3993 126.673 31.4512C127.078 31.9318 127.585 32.3192 128.158 32.5862C128.731 32.8531 129.356 32.9932 129.989 32.9967C130.39 33.0266 130.794 32.974 131.174 32.842C131.553 32.71 131.901 32.5016 132.195 32.23C132.489 31.9583 132.723 31.6294 132.882 31.2639C133.041 30.8984 133.121 30.5043 133.118 30.1066C133.129 29.6505 133.02 29.1994 132.801 28.7981C132.581 28.3968 132.259 28.0593 131.866 27.8192C131.38 27.5369 130.867 27.3038 130.333 27.1237Z" fill="#000035"/>
<path fill-rule="evenodd" clip-rule="evenodd" d="M165.045 31.4211H164.748C164.587 31.4302 164.426 31.4061 164.276 31.3502C164.125 31.2943 163.987 31.2079 163.872 31.0966C163.715 30.8535 163.648 30.5638 163.685 30.2774V27.1864H165.249C165.405 27.1864 165.577 27.1864 165.515 26.9082L165.218 25.9809C165.201 25.9056 165.16 25.8377 165.1 25.7876C165.041 25.7374 164.967 25.7076 164.889 25.7027H163.606V24.0026C163.606 23.9247 163.575 23.8501 163.519 23.795C163.464 23.7399 163.388 23.709 163.309 23.709H162.386C162.307 23.709 162.232 23.7399 162.176 23.795C162.12 23.8501 162.089 23.9247 162.089 24.0026V25.6409H160.822C160.572 25.6409 160.493 25.7645 160.54 25.9345L160.681 26.8309C160.681 26.97 160.822 27.1246 160.978 27.1246H162.011V30.2156C161.954 30.9108 162.166 31.6013 162.605 32.1475C162.863 32.4285 163.18 32.6502 163.534 32.7971C163.888 32.944 164.271 33.0124 164.654 32.9976H164.983C165.062 32.9902 165.135 32.9548 165.19 32.898C165.245 32.8412 165.277 32.7667 165.28 32.6885V31.6993C165.285 31.6321 165.263 31.5657 165.219 31.5139C165.175 31.4621 165.113 31.4289 165.045 31.4211Z" fill="#000035"/>
<path fill-rule="evenodd" clip-rule="evenodd" d="M151.187 22.6583C150.979 22.6553 150.775 22.7134 150.6 22.8253C150.426 22.9372 150.289 23.0978 150.207 23.2867C150.126 23.4756 150.103 23.6843 150.141 23.8862C150.18 24.0881 150.279 24.274 150.424 24.4204C150.57 24.5667 150.757 24.6669 150.961 24.7081C151.165 24.7494 151.376 24.7298 151.569 24.6519C151.761 24.574 151.926 24.4413 152.041 24.2707C152.157 24.1001 152.219 23.8993 152.219 23.6938C152.221 23.5586 152.196 23.4243 152.145 23.2987C152.094 23.1732 152.018 23.0589 151.922 22.9625C151.826 22.8662 151.712 22.7896 151.586 22.7374C151.459 22.6852 151.324 22.6583 151.187 22.6583Z" fill="#000035"/>
<path fill-rule="evenodd" clip-rule="evenodd" d="M137.733 25.5027C136.977 25.4874 136.234 25.6949 135.599 26.0988C134.963 26.5027 134.464 27.0847 134.164 27.7704C133.865 28.456 133.779 29.2143 133.918 29.9482C134.057 30.6822 134.415 31.3586 134.945 31.891C135.475 32.4233 136.153 32.7876 136.894 32.9371C137.634 33.0866 138.403 33.0147 139.102 32.7305C139.801 32.4463 140.398 31.9627 140.817 31.3414C141.237 30.7202 141.459 29.9896 141.456 29.2429C141.471 28.753 141.385 28.2652 141.204 27.8089C141.023 27.3525 140.75 26.9372 140.403 26.5877C140.055 26.2383 139.639 25.962 139.18 25.7755C138.721 25.5891 138.229 25.4963 137.733 25.5027ZM137.733 31.4376C137.289 31.4654 136.846 31.3608 136.463 31.1372C136.08 30.9136 135.773 30.5814 135.583 30.1836C135.393 29.7859 135.329 29.3409 135.398 28.9064C135.467 28.472 135.667 28.0681 135.971 27.7471C136.275 27.4261 136.67 27.2028 137.104 27.1062C137.539 27.0097 137.992 27.0442 138.407 27.2055C138.821 27.3667 139.176 27.6471 139.427 28.0104C139.678 28.3737 139.813 28.8031 139.814 29.2429C139.828 29.5233 139.786 29.8037 139.688 30.0674C139.591 30.3311 139.44 30.5727 139.246 30.7776C139.052 30.9825 138.818 31.1466 138.558 31.26C138.298 31.3734 138.017 31.4338 137.733 31.4376Z" fill="#000035"/>
<path fill-rule="evenodd" clip-rule="evenodd" d="M156.755 25.502C156.272 25.505 155.794 25.6059 155.352 25.7986C154.909 25.9913 154.511 26.2716 154.183 26.6221C153.855 26.9726 153.602 27.386 153.442 27.8367C153.282 28.2873 153.217 28.7657 153.251 29.2421C153.234 29.7333 153.318 30.2228 153.498 30.6809C153.678 31.1391 153.951 31.5563 154.299 31.9074C154.647 32.2586 155.063 32.5362 155.523 32.7236C155.983 32.911 156.477 33.0043 156.974 32.9977C157.516 33.0121 158.054 32.912 158.553 32.7041C159.052 32.4962 159.501 32.1853 159.868 31.7922C159.922 31.7327 159.952 31.6557 159.952 31.5758C159.952 31.496 159.922 31.419 159.868 31.3595L159.211 30.7413C159.156 30.6902 159.083 30.6618 159.008 30.6618C158.932 30.6618 158.859 30.6902 158.804 30.7413C158.58 30.9935 158.303 31.1946 157.993 31.3307C157.682 31.4668 157.345 31.5346 157.005 31.5295C156.474 31.5288 155.962 31.3345 155.566 30.9837C155.171 30.633 154.92 30.1504 154.862 29.6285H159.931C160.087 29.6285 160.228 29.6285 160.244 29.4276V29.2267C160.273 28.7532 160.205 28.2788 160.044 27.832C159.883 27.3851 159.632 26.9753 159.306 26.6271C158.98 26.279 158.585 25.9997 158.147 25.8063C157.709 25.613 157.235 25.5094 156.755 25.502ZM154.831 28.3766C154.972 27.9623 155.241 27.6021 155.6 27.347C155.96 27.0918 156.391 26.9546 156.833 26.9547C157.255 26.9696 157.662 27.1148 157.996 27.3699C158.33 27.6249 158.574 27.977 158.695 28.3766H154.831Z" fill="#000035"/>
<path fill-rule="evenodd" clip-rule="evenodd" d="M74.2833 31.6525V32.5489C74.2833 32.6267 74.252 32.7014 74.1963 32.7565C74.1405 32.8116 74.0649 32.8425 73.9861 32.8425H69.825C69.7854 32.8447 69.7458 32.8387 69.7087 32.8247C69.6716 32.8108 69.6379 32.7892 69.6098 32.7615C69.5818 32.7338 69.5599 32.7005 69.5458 32.6638C69.5317 32.6272 69.5255 32.588 69.5278 32.5489V31.6525C69.5255 31.6133 69.5317 31.5741 69.5458 31.5375C69.5599 31.5008 69.5818 31.4676 69.6098 31.4398C69.6379 31.4121 69.6716 31.3905 69.7087 31.3766C69.7458 31.3626 69.7854 31.3566 69.825 31.3588H71.0921V24.4503H69.872C69.7944 24.4466 69.7209 24.4145 69.666 24.3602C69.6111 24.3059 69.5785 24.2334 69.5747 24.1567V23.2448C69.5785 23.1682 69.6111 23.0956 69.666 23.0413C69.7209 22.9871 69.7944 22.9549 69.872 22.9512H73.9079C73.9867 22.9512 74.0623 22.9821 74.1181 23.0372C74.1738 23.0923 74.2051 23.1669 74.2051 23.2448V24.1567C74.2051 24.2346 74.1738 24.3093 74.1181 24.3643C74.0623 24.4194 73.9867 24.4503 73.9079 24.4503H72.719V31.3124H73.9861C74.0294 31.3119 74.0723 31.3207 74.1118 31.3383C74.1513 31.3559 74.1865 31.3817 74.2148 31.4141C74.2431 31.4465 74.2639 31.4846 74.2758 31.5258C74.2876 31.567 74.2902 31.6102 74.2833 31.6525Z" fill="#000035"/>
<path fill-rule="evenodd" clip-rule="evenodd" d="M80.5722 29.2423V32.5497C80.5722 32.6275 80.6035 32.7022 80.6592 32.7573C80.715 32.8124 80.7906 32.8433 80.8694 32.8433H81.9019C81.9415 32.8455 81.9811 32.8395 82.0182 32.8255C82.0553 32.8116 82.089 32.79 82.1171 32.7623C82.1451 32.7346 82.1669 32.7013 82.1811 32.6646C82.1952 32.628 82.2013 32.5888 82.1991 32.5497V29.3195C82.2752 28.4142 82.0259 27.5112 81.4951 26.7694C81.2164 26.3777 80.8462 26.058 80.416 25.8374C79.9858 25.6168 79.5082 25.5018 79.0235 25.5021C78.349 25.4955 77.6962 25.738 77.1932 26.1821V25.9194C77.1892 25.8442 77.1562 25.7734 77.1009 25.7217C77.0456 25.6699 76.9722 25.6411 76.896 25.6412H75.8949C75.8173 25.6449 75.7438 25.6771 75.6889 25.7314C75.634 25.7856 75.6014 25.8582 75.5977 25.9348V32.5497C75.5977 32.6275 75.629 32.7022 75.6847 32.7573C75.7404 32.8124 75.8161 32.8433 75.8949 32.8433H76.943C77.0218 32.8433 77.0974 32.8124 77.1531 32.7573C77.2089 32.7022 77.2402 32.6275 77.2402 32.5497V27.9131C77.4313 27.6305 77.6893 27.3983 77.992 27.2367C78.2946 27.0751 78.6326 26.9889 78.9766 26.9858C79.217 26.982 79.4543 27.0398 79.6654 27.1536C79.8765 27.2673 80.0541 27.4332 80.1811 27.6349C80.5111 28.1032 80.6507 28.677 80.5722 29.2423Z" fill="#000035"/>
<path fill-rule="evenodd" clip-rule="evenodd" d="M87.1105 31.4211H86.8133C86.4898 31.4289 86.1759 31.3126 85.9373 31.0966C85.7878 30.8506 85.7271 30.5619 85.7652 30.2774V27.1864H87.1731C87.2519 27.1864 87.3275 27.1555 87.3833 27.1004C87.439 27.0453 87.4703 26.9706 87.4703 26.8928L87.6737 25.9963C87.6699 25.9197 87.6374 25.8471 87.5824 25.7929C87.5275 25.7386 87.4541 25.7065 87.3765 25.7027H85.8122V24.0026C85.8084 23.926 85.7758 23.8534 85.7209 23.7992C85.6659 23.7449 85.5925 23.7127 85.5149 23.709H84.4668C84.3892 23.7127 84.3158 23.7449 84.2609 23.7992C84.2059 23.8534 84.1734 23.926 84.1696 24.0026V25.6409H82.9964C82.7461 25.6409 82.6522 25.7645 82.6992 25.9345C82.7461 26.1045 82.8556 26.8309 82.8556 26.8309C82.8556 26.8309 82.9808 27.1246 83.1528 27.1246H84.1696V30.2156C84.1234 30.9096 84.3347 31.5964 84.7641 32.1475C85.0251 32.4289 85.345 32.6507 85.7016 32.7975C86.0582 32.9443 86.4429 33.0125 86.829 32.9975H87.1418C87.1829 32.9956 87.2232 32.9856 87.2604 32.9682C87.2976 32.9508 87.331 32.9264 87.3586 32.8962C87.3862 32.8661 87.4075 32.8308 87.4213 32.7925C87.4351 32.7542 87.4411 32.7136 87.439 32.673V31.6993C87.4469 31.6568 87.4434 31.6129 87.4288 31.5721C87.4142 31.5313 87.389 31.4951 87.3558 31.4669C87.3225 31.4387 87.2824 31.4197 87.2393 31.4117C87.1963 31.4036 87.1519 31.4069 87.1105 31.4211Z" fill="#000035"/>
<path fill-rule="evenodd" clip-rule="evenodd" d="M100.221 25.5028H99.9708C99.6079 25.4936 99.2467 25.5558 98.9083 25.6859C98.5699 25.8159 98.2611 26.0111 97.9998 26.2602V25.9356C97.996 25.8589 97.9635 25.7864 97.9085 25.7321C97.8536 25.6778 97.7801 25.6457 97.7025 25.6419H96.6857C96.6069 25.6419 96.5313 25.6729 96.4756 25.728C96.4198 25.783 96.3885 25.8577 96.3885 25.9356V32.5504C96.3839 32.5908 96.3882 32.6317 96.4013 32.6702C96.4144 32.7088 96.4358 32.744 96.4642 32.7735C96.4925 32.8029 96.527 32.8259 96.5653 32.8408C96.6036 32.8556 96.6447 32.862 96.6857 32.8595H97.7182C97.7578 32.8618 97.7975 32.8557 97.8346 32.8417C97.8717 32.8278 97.9053 32.8062 97.9334 32.7785C97.9615 32.7508 97.9833 32.7175 97.9974 32.6808C98.0116 32.6442 98.0177 32.605 98.0154 32.5659V28.223C98.1969 27.908 98.455 27.6427 98.7663 27.4511C99.0777 27.2594 99.4326 27.1476 99.7987 27.1256H100.159C100.193 27.1326 100.229 27.1318 100.263 27.1233C100.297 27.1148 100.329 27.0989 100.356 27.0766C100.383 27.0543 100.404 27.0264 100.419 26.9947C100.434 26.9631 100.441 26.9286 100.44 26.8938V25.8738C100.459 25.796 100.447 25.7138 100.406 25.6446C100.366 25.5754 100.299 25.5246 100.221 25.5028Z" fill="#000035"/>
<path fill-rule="evenodd" clip-rule="evenodd" d="M104.944 27.0487C105.183 27.0492 105.419 27.1089 105.629 27.2223C105.84 27.3356 106.018 27.4991 106.148 27.6978C106.471 28.1457 106.611 28.6978 106.539 29.2433V32.5507C106.539 32.6286 106.571 32.7033 106.626 32.7583C106.682 32.8134 106.758 32.8444 106.837 32.8444H107.885C107.924 32.8466 107.964 32.8405 108.001 32.8266C108.038 32.8126 108.072 32.7911 108.1 32.7633C108.128 32.7356 108.15 32.7023 108.164 32.6657C108.178 32.629 108.184 32.5899 108.182 32.5507V29.3206C108.271 28.4014 108.039 27.4798 107.525 26.7086C107.234 26.3228 106.853 26.0118 106.415 25.802C105.976 25.5921 105.493 25.4896 105.006 25.5031C104.327 25.4971 103.67 25.7393 103.16 26.1832V25.9204C103.161 25.8826 103.153 25.8451 103.138 25.8103C103.123 25.7755 103.1 25.7441 103.073 25.718C103.045 25.692 103.012 25.6718 102.976 25.6588C102.94 25.6458 102.902 25.6401 102.863 25.6422H101.862C101.786 25.6462 101.714 25.6789 101.662 25.7335C101.61 25.7882 101.58 25.8606 101.581 25.9359V32.5507C101.578 32.5885 101.584 32.6264 101.597 32.6619C101.61 32.6975 101.631 32.73 101.657 32.7575C101.684 32.785 101.715 32.8069 101.751 32.8218C101.786 32.8367 101.824 32.8444 101.862 32.8444H102.941C102.981 32.8466 103.021 32.8405 103.058 32.8266C103.095 32.8126 103.129 32.7911 103.157 32.7633C103.185 32.7356 103.207 32.7023 103.221 32.6657C103.235 32.629 103.241 32.5899 103.239 32.5507V27.9142C103.434 27.6472 103.69 27.4297 103.986 27.2792C104.282 27.1288 104.611 27.0498 104.944 27.0487Z" fill="#000035"/>
<path fill-rule="evenodd" clip-rule="evenodd" d="M121.056 31.4211H120.759C120.43 31.433 120.11 31.3164 119.867 31.0966C119.725 30.8478 119.665 30.5615 119.695 30.2774V27.1864H121.056C121.096 27.1886 121.135 27.1826 121.172 27.1686C121.209 27.1547 121.243 27.1331 121.271 27.1054C121.299 27.0776 121.321 27.0444 121.335 27.0077C121.349 26.9711 121.355 26.9319 121.353 26.8928V25.9963C121.353 25.9185 121.322 25.8438 121.266 25.7887C121.21 25.7336 121.135 25.7027 121.056 25.7027H119.695V24.0026C119.691 23.926 119.659 23.8534 119.604 23.7992C119.549 23.7449 119.475 23.7127 119.398 23.709H118.35C118.272 23.7127 118.199 23.7449 118.144 23.7992C118.089 23.8534 118.056 23.926 118.052 24.0026V25.6409H116.879C116.629 25.6409 116.535 25.7645 116.582 25.9345C116.629 26.1045 116.738 26.8309 116.738 26.8309C116.738 26.8309 116.864 27.1246 117.036 27.1246H118.052V30.2156C118.006 30.9096 118.217 31.5964 118.647 32.1475C118.908 32.4289 119.228 32.6507 119.584 32.7975C119.941 32.9443 120.326 33.0125 120.712 32.9975H121.025C121.066 32.9956 121.106 32.9856 121.143 32.9682C121.18 32.9508 121.214 32.9264 121.241 32.8962C121.269 32.8661 121.29 32.8308 121.304 32.7925C121.318 32.7542 121.324 32.7136 121.322 32.673V31.6993C121.327 31.663 121.323 31.6261 121.312 31.5913C121.3 31.5565 121.281 31.5246 121.256 31.498C121.23 31.4714 121.199 31.4507 121.164 31.4374C121.13 31.4241 121.093 31.4185 121.056 31.4211Z" fill="#000035"/>
<path fill-rule="evenodd" clip-rule="evenodd" d="M91.7727 25.502C91.2893 25.505 90.8115 25.6059 90.3691 25.7986C89.9267 25.9913 89.529 26.2716 89.2006 26.6221C88.8722 26.9726 88.6201 27.386 88.4598 27.8367C88.2995 28.2873 88.2344 28.7657 88.2686 29.2421C88.2517 29.7333 88.3358 30.2228 88.5159 30.6809C88.6959 31.1391 88.9683 31.5563 89.3163 31.9074C89.6644 32.2585 90.081 32.5362 90.5409 32.7236C91.0007 32.911 91.4943 33.0043 91.9917 32.9977C92.5339 33.0172 93.0738 32.9195 93.5737 32.7112C94.0736 32.503 94.5214 32.1893 94.8857 31.7922C94.9396 31.7327 94.9694 31.6557 94.9694 31.5758C94.9694 31.496 94.9396 31.419 94.8857 31.3595L94.2287 30.7413C94.1736 30.6902 94.1009 30.6618 94.0253 30.6618C93.9498 30.6618 93.8771 30.6902 93.822 30.7413C93.5978 30.9935 93.3208 31.1946 93.0102 31.3307C92.6996 31.4668 92.3628 31.5346 92.023 31.5295C91.494 31.5292 90.9835 31.3371 90.5884 30.9895C90.1934 30.6419 89.9412 30.1631 89.8799 29.6439H94.9483C95.0158 29.6508 95.0837 29.6346 95.1406 29.598C95.1975 29.5615 95.2401 29.5068 95.2611 29.443V29.2267C95.2908 28.7532 95.223 28.2788 95.0618 27.832C94.9006 27.3851 94.6494 26.9753 94.3233 26.6271C93.9972 26.279 93.6031 25.9997 93.1647 25.8063C92.7263 25.613 92.2528 25.5094 91.7727 25.502ZM89.8486 28.3766C89.9895 27.9623 90.2586 27.6021 90.6179 27.347C90.9772 27.0918 91.4085 26.9546 91.8509 26.9547C92.2721 26.9719 92.6775 27.1179 93.011 27.3727C93.3445 27.6274 93.5896 27.9782 93.7125 28.3766H89.8486Z" fill="#000035"/>
<path fill-rule="evenodd" clip-rule="evenodd" d="M112.766 25.502C112.278 25.4989 111.794 25.5951 111.346 25.7848C110.897 25.9745 110.493 26.2535 110.158 26.6045C109.823 26.9555 109.565 27.3708 109.4 27.8247C109.235 28.2785 109.167 28.761 109.199 29.2422C109.182 29.7334 109.266 30.2229 109.446 30.681C109.626 31.1391 109.899 31.5564 110.247 31.9075C110.595 32.2586 111.012 32.5363 111.471 32.7237C111.931 32.9111 112.425 33.0044 112.922 32.9978C113.464 33.0173 114.004 32.9195 114.504 32.7113C115.004 32.5031 115.452 32.1894 115.816 31.7923C115.87 31.7328 115.9 31.6558 115.9 31.5759C115.9 31.4961 115.87 31.4191 115.816 31.3596L115.159 30.7413C115.104 30.6903 115.031 30.6619 114.956 30.6619C114.88 30.6619 114.808 30.6903 114.753 30.7413C114.528 30.9936 114.251 31.1947 113.941 31.3308C113.63 31.4669 113.293 31.5347 112.954 31.5296C112.425 31.5293 111.914 31.3371 111.519 30.9895C111.124 30.642 110.872 30.1632 110.81 29.644H115.879C115.946 29.6509 116.014 29.6347 116.071 29.5981C116.128 29.5616 116.171 29.5069 116.192 29.4431C116.192 29.3504 116.192 29.2731 116.192 29.2267C116.219 28.7589 116.152 28.2903 115.994 27.8484C115.835 27.4066 115.59 27.0003 115.271 26.6535C114.952 26.3066 114.566 26.0261 114.136 25.8284C113.706 25.6307 113.24 25.5197 112.766 25.502ZM110.763 28.3767C110.904 27.9623 111.174 27.6022 111.533 27.347C111.892 27.0919 112.323 26.9547 112.766 26.9548C113.188 26.9697 113.594 27.1149 113.928 27.37C114.262 27.625 114.507 27.9771 114.627 28.3767H110.763Z" fill="#000035"/>
<path d="M125.952 50.4784H124.841V37.0324C124.844 36.9932 124.837 36.9541 124.823 36.9174C124.809 36.8808 124.787 36.8475 124.759 36.8198C124.731 36.792 124.698 36.7705 124.66 36.7565C124.623 36.7426 124.584 36.7365 124.544 36.7387H122.182C122.142 36.7365 122.103 36.7426 122.066 36.7565C122.028 36.7705 121.995 36.792 121.967 36.8198C121.939 36.8475 121.917 36.8808 121.903 36.9174C121.889 36.9541 121.882 36.9932 121.885 37.0324V37.9133C121.882 37.9525 121.889 37.9917 121.903 38.0283C121.917 38.0649 121.939 38.0982 121.967 38.126C121.995 38.1537 122.028 38.1752 122.066 38.1892C122.103 38.2032 122.142 38.2092 122.182 38.207H123.277V42.8435C122.343 42.0204 121.134 41.5688 119.882 41.5762C118.7 41.5813 117.555 41.9786 116.629 42.7044C116.023 43.215 115.539 43.8505 115.209 44.5662C114.879 45.2818 114.712 46.0602 114.72 46.8464C114.701 47.6878 114.888 48.5214 115.267 49.2752C115.646 50.0291 116.204 50.6807 116.895 51.1739C117.784 51.8 118.853 52.1302 119.945 52.1167C120.567 52.1263 121.184 52.0138 121.762 51.7856C122.339 51.5574 122.865 51.2182 123.308 50.7875V51.6221C123.312 51.6973 123.345 51.768 123.401 51.8198C123.456 51.8716 123.529 51.9004 123.605 51.9003H125.983C126.021 51.9024 126.06 51.8968 126.096 51.8837C126.132 51.8707 126.165 51.8505 126.193 51.8245C126.22 51.7984 126.243 51.767 126.258 51.7322C126.273 51.6974 126.281 51.66 126.28 51.6221V50.7257C126.269 50.6504 126.228 50.5826 126.167 50.5365C126.105 50.4903 126.028 50.4695 125.952 50.4784ZM123.277 48.562C123.291 48.6126 123.291 48.6659 123.277 48.7165C122.939 49.2896 122.458 49.7678 121.881 50.1059C121.303 50.444 120.647 50.6308 119.976 50.6484C119.211 50.641 118.467 50.3979 117.849 49.9529C117.369 49.5926 116.984 49.1238 116.725 48.586C116.467 48.0482 116.342 47.457 116.363 46.8619C116.349 46.3032 116.461 45.7486 116.691 45.2381C116.921 44.7276 117.263 44.2739 117.692 43.9099C118.329 43.3969 119.123 43.1134 119.945 43.1063C120.604 43.1318 121.248 43.3085 121.827 43.6223C122.405 43.9361 122.901 44.3785 123.277 44.9145C123.288 44.9551 123.288 44.9976 123.277 45.0382V48.562Z" fill="#000035"/>
<path d="M76.3481 42.7817H72.453V38.1452H79.0857C79.1253 38.1474 79.165 38.1413 79.2021 38.1274C79.2392 38.1134 79.2728 38.0919 79.3009 38.0641C79.329 38.0364 79.3508 38.0031 79.3649 37.9665C79.3791 37.9298 79.3852 37.8907 79.3829 37.8515V37.0324C79.3852 36.9932 79.3791 36.9541 79.3649 36.9174C79.3508 36.8808 79.329 36.8475 79.3009 36.8198C79.2728 36.792 79.2392 36.7705 79.2021 36.7565C79.165 36.7426 79.1253 36.7365 79.0857 36.7387H69.8562C69.8179 36.7387 69.78 36.7463 69.7447 36.7613C69.7095 36.7762 69.6778 36.7981 69.6514 36.8256C69.625 36.8531 69.6046 36.8856 69.5914 36.9212C69.5782 36.9567 69.5725 36.9946 69.5747 37.0324V37.9133C69.5725 37.9511 69.5782 37.989 69.5914 38.0245C69.6046 38.0601 69.625 38.0926 69.6514 38.1201C69.6778 38.1476 69.7095 38.1695 69.7447 38.1844C69.78 38.1994 69.8179 38.207 69.8562 38.207H70.8574V50.4784H69.8562C69.7802 50.4824 69.7085 50.515 69.6561 50.5697C69.6037 50.6243 69.5745 50.6968 69.5747 50.772V51.6685C69.5747 51.7422 69.6043 51.813 69.6571 51.8652C69.7099 51.9173 69.7816 51.9466 69.8562 51.9466H73.4698C73.5445 51.9466 73.6161 51.9173 73.6689 51.8652C73.7217 51.813 73.7514 51.7422 73.7514 51.6685V50.772C73.7515 50.6968 73.7223 50.6243 73.6699 50.5697C73.6175 50.515 73.5459 50.4824 73.4698 50.4784H72.453V44.2963H76.3481C76.3878 44.2986 76.4274 44.2925 76.4645 44.2785C76.5016 44.2646 76.5353 44.243 76.5634 44.2153C76.5914 44.1876 76.6132 44.1543 76.6274 44.1177C76.6415 44.081 76.6476 44.0418 76.6454 44.0027V43.1217C76.6554 43.0791 76.655 43.0347 76.6444 42.9922C76.6338 42.9497 76.6131 42.9103 76.5841 42.8772C76.5552 42.844 76.5187 42.8181 76.4777 42.8015C76.4367 42.7849 76.3923 42.7782 76.3481 42.7817Z" fill="#000035"/>
<path d="M83.1079 41.622C82.0491 41.6036 81.0086 41.897 80.1191 42.4648C79.2297 43.0326 78.5314 43.8491 78.1132 44.8103C77.695 45.7716 77.5759 46.834 77.771 47.8624C77.9661 48.8907 78.4666 49.8384 79.2087 50.5848C79.9509 51.3312 80.9011 51.8424 81.9383 52.0534C82.9756 52.2643 84.0529 52.1655 85.0331 51.7695C86.0133 51.3735 86.852 50.6982 87.4424 49.8296C88.0328 48.961 88.3482 47.9385 88.3483 46.8922C88.374 46.2012 88.2567 45.5122 88.0036 44.8675C87.7506 44.2227 87.367 43.6357 86.8765 43.1424C86.386 42.6491 85.7988 42.2599 85.1508 41.9984C84.5028 41.737 83.8077 41.6089 83.1079 41.622ZM83.1079 50.6942C82.3343 50.7438 81.5635 50.5624 80.8957 50.1735C80.2279 49.7847 79.6939 49.2063 79.3631 48.5136C79.0323 47.821 78.9201 47.046 79.041 46.2895C79.1619 45.533 79.5103 44.8299 80.0409 44.2716C80.5715 43.7133 81.2599 43.3256 82.0165 43.1589C82.7731 42.9922 83.563 43.0542 84.2834 43.3368C85.0039 43.6194 85.6217 44.1096 86.0565 44.7437C86.4913 45.3777 86.723 46.1264 86.7214 46.8922C86.7468 47.3787 86.6724 47.8651 86.5027 48.3224C86.3331 48.7797 86.0717 49.1985 85.7342 49.5536C85.3967 49.9086 84.9902 50.1927 84.5389 50.3887C84.0876 50.5847 83.6008 50.6886 83.1079 50.6942Z" fill="#000035"/>
<path d="M155.924 41.6219C154.865 41.6035 153.825 41.8969 152.936 42.4647C152.046 43.0325 151.348 43.849 150.93 44.8102C150.511 45.7715 150.392 46.8339 150.587 47.8623C150.783 48.8906 151.283 49.8383 152.025 50.5847C152.767 51.3311 153.717 51.8423 154.755 52.0533C155.792 52.2643 156.869 52.1655 157.849 51.7694C158.83 51.3734 159.668 50.6981 160.259 49.8295C160.849 48.9609 161.165 47.9384 161.165 46.8921C161.188 46.2016 161.069 45.5136 160.815 44.8699C160.562 44.2262 160.178 43.6401 159.688 43.1473C159.198 42.6544 158.612 42.2651 157.965 42.0029C157.318 41.7407 156.623 41.6111 155.924 41.6219ZM155.924 50.6941C155.151 50.7437 154.38 50.5623 153.712 50.1734C153.044 49.7846 152.51 49.2062 152.18 48.5135C151.849 47.8209 151.737 47.046 151.857 46.2894C151.978 45.5329 152.327 44.8298 152.857 44.2715C153.388 43.7132 154.076 43.3255 154.833 43.1588C155.589 42.9921 156.379 43.0541 157.1 43.3367C157.82 43.6193 158.438 44.1095 158.873 44.7436C159.308 45.3777 159.539 46.1263 159.538 46.8921C159.565 47.3791 159.493 47.8665 159.324 48.3247C159.155 48.783 158.894 49.2027 158.556 49.5582C158.218 49.9137 157.81 50.1977 157.358 50.393C156.906 50.5882 156.418 50.6907 155.924 50.6941Z" fill="#000035"/>
<path d="M113.893 50.4782H112.876V46.568C112.988 45.4222 112.677 44.2751 112 43.3378C111.568 42.7894 111.012 42.3485 110.376 42.0506C109.74 41.7527 109.043 41.606 108.34 41.6223C107.114 41.6027 105.929 42.0576 105.039 42.8896V42.1323C105.041 42.0932 105.035 42.054 105.021 42.0174C105.007 41.9807 104.985 41.9474 104.957 41.9197C104.929 41.892 104.895 41.8704 104.858 41.8565C104.821 41.8425 104.781 41.8364 104.742 41.8387H102.473C102.435 41.8386 102.397 41.8463 102.362 41.8612C102.327 41.8762 102.295 41.8981 102.269 41.9256C102.242 41.953 102.222 41.9856 102.209 42.0211C102.195 42.0567 102.19 42.0945 102.192 42.1323V43.0133C102.19 43.0511 102.195 43.0889 102.209 43.1245C102.222 43.1601 102.242 43.1926 102.269 43.2201C102.295 43.2476 102.327 43.2694 102.362 43.2844C102.397 43.2993 102.435 43.307 102.473 43.3069H103.475V50.4782H102.473C102.397 50.4821 102.326 50.5148 102.273 50.5694C102.221 50.6241 102.192 50.6965 102.192 50.7718V51.6682C102.192 51.742 102.222 51.8127 102.274 51.8649C102.327 51.9171 102.399 51.9464 102.473 51.9464H106.071C106.148 51.9465 106.221 51.9177 106.276 51.8659C106.331 51.8141 106.365 51.7434 106.369 51.6682V50.7718C106.365 50.6951 106.332 50.6226 106.277 50.5683C106.222 50.514 106.149 50.4819 106.071 50.4782H105.008V45.1307C104.994 45.0748 104.994 45.0165 105.008 44.9606C105.329 44.419 105.785 43.9672 106.333 43.6481C106.88 43.329 107.501 43.1531 108.136 43.1369C108.612 43.1288 109.083 43.2374 109.506 43.4532C109.929 43.669 110.292 43.9852 110.561 44.3733C110.987 45.0575 111.174 45.8613 111.093 46.6607V50.4782H110.029C109.95 50.4782 109.875 50.5091 109.819 50.5642C109.763 50.6192 109.732 50.6939 109.732 50.7718V51.6682C109.732 51.7061 109.74 51.7436 109.755 51.7783C109.77 51.8132 109.792 51.8445 109.82 51.8706C109.848 51.8966 109.881 51.9168 109.916 51.9298C109.952 51.9429 109.991 51.9485 110.029 51.9464H113.893C113.968 51.9464 114.039 51.9171 114.092 51.8649C114.145 51.8127 114.174 51.742 114.174 51.6682V50.7718C114.175 50.6965 114.145 50.6241 114.093 50.5694C114.041 50.5148 113.969 50.4821 113.893 50.4782Z" fill="#000035"/>
<path d="M147.634 39.8137C147.792 39.8157 147.95 39.787 148.096 39.729C148.243 39.6711 148.377 39.5852 148.491 39.4761C148.604 39.367 148.694 39.237 148.757 39.0933C148.819 38.9497 148.852 38.7954 148.854 38.6391C148.854 38.3194 148.726 38.0128 148.497 37.7867C148.268 37.5606 147.958 37.4336 147.634 37.4336C147.476 37.4356 147.32 37.4684 147.175 37.5301C147.029 37.5917 146.898 37.6811 146.787 37.7931C146.677 37.905 146.59 38.0373 146.531 38.1825C146.472 38.3277 146.443 38.4828 146.445 38.6391C146.443 38.7939 146.473 38.9476 146.532 39.091C146.591 39.2345 146.678 39.3648 146.789 39.4743C146.9 39.5838 147.032 39.6702 147.177 39.7285C147.322 39.7868 147.478 39.8158 147.634 39.8137Z" fill="#000035"/>
<path d="M150.216 50.4778H148.746V42.132C148.748 42.0942 148.742 42.0563 148.729 42.0208C148.716 41.9852 148.695 41.9527 148.669 41.9252C148.643 41.8977 148.611 41.8758 148.576 41.8609C148.54 41.846 148.502 41.8383 148.464 41.8383H146.086C146.047 41.8361 146.007 41.8422 145.97 41.8561C145.933 41.8701 145.899 41.8916 145.871 41.9194C145.843 41.9471 145.821 41.9804 145.807 42.017C145.793 42.0537 145.787 42.0928 145.789 42.132V43.0129C145.787 43.0521 145.793 43.0913 145.807 43.1279C145.821 43.1646 145.843 43.1978 145.871 43.2256C145.899 43.2533 145.933 43.2749 145.97 43.2888C146.007 43.3028 146.047 43.3088 146.086 43.3066H147.15V50.4778H146.039C145.961 50.4778 145.885 50.5087 145.829 50.5638C145.774 50.6189 145.742 50.6936 145.742 50.7714V51.6679C145.742 51.7057 145.75 51.7432 145.765 51.778C145.78 51.8128 145.802 51.8442 145.83 51.8702C145.858 51.8963 145.891 51.9164 145.927 51.9295C145.963 51.9425 146.001 51.9482 146.039 51.946H150.216C150.292 51.9462 150.366 51.9173 150.421 51.8656C150.476 51.8138 150.509 51.743 150.513 51.6679V50.7714C150.51 50.6948 150.477 50.6223 150.422 50.568C150.367 50.5137 150.294 50.4816 150.216 50.4778Z" fill="#000035"/>
<path d="M100.692 50.4774H99.581V42.1315C99.581 42.0537 99.5496 41.979 99.4939 41.9239C99.4382 41.8688 99.3626 41.8379 99.2837 41.8379H96.5618C96.483 41.8379 96.4074 41.8688 96.3516 41.9239C96.2959 41.979 96.2646 42.0537 96.2646 42.1315V43.0125C96.2646 43.0904 96.2959 43.1651 96.3516 43.2201C96.4074 43.2752 96.483 43.3061 96.5618 43.3061H97.9697V48.6845C97.9841 48.7298 97.9841 48.7784 97.9697 48.8236C97.6552 49.3714 97.2007 49.828 96.6517 50.148C96.1028 50.468 95.4784 50.6402 94.8411 50.6474C94.379 50.6572 93.9218 50.5519 93.5117 50.3412C93.1017 50.1305 92.7519 49.8212 92.4946 49.4419C92.0635 48.7084 91.8774 47.8593 91.9627 47.0154V42.1315C91.9649 42.0937 91.9592 42.0559 91.946 42.0203C91.9328 41.9848 91.9124 41.9523 91.886 41.9248C91.8596 41.8973 91.8279 41.8754 91.7927 41.8604C91.7574 41.8455 91.7195 41.8378 91.6812 41.8379H89.0375C88.9586 41.8379 88.883 41.8688 88.8273 41.9239C88.7715 41.979 88.7402 42.0537 88.7402 42.1315V43.0125C88.7402 43.0904 88.7715 43.1651 88.8273 43.2201C88.883 43.2752 88.9586 43.3061 89.0375 43.3061H90.4297V47.2163C90.3774 48.2007 90.5878 49.1813 91.0398 50.0601C91.4356 50.719 92.0026 51.2613 92.682 51.6309C93.3614 52.0005 94.1284 52.1838 94.9036 52.162C96.0679 52.1588 97.187 51.7166 98.0323 50.9256V51.6674C98.0363 51.7426 98.0694 51.8133 98.1247 51.8651C98.18 51.9169 98.2533 51.9457 98.3295 51.9456H100.707C100.783 51.9457 100.857 51.9169 100.912 51.8651C100.967 51.8133 101 51.7426 101.004 51.6674V50.771C101 50.6917 100.966 50.617 100.907 50.5624C100.849 50.5077 100.772 50.4773 100.692 50.4774Z" fill="#000035"/>
<path d="M137.95 50.4769H136.839V42.1311C136.842 42.092 136.836 42.0528 136.821 42.0161C136.807 41.9795 136.785 41.9462 136.757 41.9185C136.729 41.8908 136.696 41.8692 136.659 41.8552C136.621 41.8413 136.582 41.8352 136.542 41.8375H135.572C135.493 41.8375 135.418 41.8684 135.362 41.9235C135.306 41.9785 135.275 42.0532 135.275 42.1311V42.9193C134.335 42.0829 133.114 41.6204 131.849 41.6211C130.667 41.6262 129.521 42.0235 128.595 42.7493C127.99 43.2599 127.506 43.8954 127.176 44.6111C126.846 45.3267 126.679 46.1051 126.687 46.8913C126.667 47.7327 126.855 48.5662 127.234 49.3201C127.613 50.074 128.171 50.7255 128.861 51.2188C129.773 51.8608 130.871 52.1918 131.99 52.1615C132.612 52.1712 133.229 52.0587 133.807 51.8305C134.384 51.6023 134.91 51.263 135.353 50.8324V51.667C135.357 51.7421 135.39 51.8129 135.446 51.8647C135.501 51.9165 135.574 51.9453 135.65 51.9452H138.028C138.104 51.9453 138.178 51.9165 138.233 51.8647C138.288 51.8129 138.321 51.7421 138.325 51.667V50.7706C138.324 50.7255 138.313 50.6813 138.292 50.641C138.272 50.6007 138.243 50.5654 138.207 50.5374C138.171 50.5094 138.13 50.4895 138.085 50.4791C138.041 50.4686 137.995 50.4679 137.95 50.4769ZM135.244 48.5605C135.258 48.6111 135.258 48.6644 135.244 48.715C134.905 49.2871 134.424 49.7646 133.846 50.1025C133.269 50.4405 132.614 50.6278 131.943 50.6469C131.178 50.6395 130.434 50.3964 129.816 49.9514C129.321 49.5994 128.921 49.1343 128.649 48.596C128.376 48.0577 128.24 47.4622 128.251 46.8604C128.238 46.3018 128.35 45.7471 128.58 45.2366C128.81 44.7261 129.152 44.2724 129.581 43.9085C130.218 43.3954 131.012 43.1119 131.834 43.1048C132.49 43.1268 133.133 43.2987 133.711 43.6071C134.289 43.9155 134.787 44.3519 135.166 44.8821C135.181 44.9272 135.181 44.9761 135.166 45.0212L135.244 48.5605Z" fill="#000035"/>
<path d="M144.052 50.4785H143.77C143.479 50.4821 143.189 50.4263 142.92 50.3146C142.651 50.203 142.408 50.0378 142.206 49.8293C141.916 49.4022 141.789 48.8876 141.846 48.3765V43.3072H143.723C143.763 43.3095 143.803 43.3034 143.84 43.2895C143.877 43.2755 143.911 43.2539 143.939 43.2262C143.967 43.1985 143.989 43.1652 144.003 43.1286C144.017 43.0919 144.023 43.0527 144.021 43.0136V42.1326C144.023 42.0935 144.017 42.0543 144.003 42.0177C143.989 41.981 143.967 41.9478 143.939 41.92C143.911 41.8923 143.877 41.8707 143.84 41.8568C143.803 41.8428 143.763 41.8368 143.723 41.839H141.846V39.5671C141.846 39.4892 141.815 39.4145 141.759 39.3594C141.703 39.3044 141.628 39.2734 141.549 39.2734H140.548C140.47 39.2772 140.397 39.3093 140.342 39.3636C140.287 39.4179 140.254 39.4904 140.251 39.5671V41.839H138.686C138.647 41.8368 138.607 41.8428 138.57 41.8568C138.533 41.8707 138.499 41.8923 138.471 41.92C138.443 41.9478 138.421 41.981 138.407 42.0177C138.393 42.0543 138.387 42.0935 138.389 42.1326V43.0136C138.387 43.0527 138.393 43.0919 138.407 43.1286C138.421 43.1652 138.443 43.1985 138.471 43.2262C138.499 43.2539 138.533 43.2755 138.57 43.2895C138.607 43.3034 138.647 43.3095 138.686 43.3072H140.251V48.3147C140.179 49.241 140.458 50.1606 141.033 50.8957C141.344 51.2328 141.72 51.5049 142.139 51.696C142.558 51.8871 143.012 51.9934 143.473 52.0085H144.005C144.076 52.03 144.153 52.03 144.224 52.0085C144.283 51.9514 144.317 51.8737 144.318 51.7921V50.9112C144.338 50.8657 144.347 50.8161 144.344 50.7665C144.34 50.717 144.325 50.6689 144.299 50.6265C144.273 50.584 144.237 50.5484 144.194 50.5226C144.151 50.4969 144.102 50.4817 144.052 50.4785Z" fill="#000035"/>
<path d="M173.432 50.4782H172.43V46.568C172.537 45.4202 172.221 44.273 171.539 43.3378C171.11 42.7897 170.556 42.3488 169.923 42.0508C169.29 41.7528 168.595 41.606 167.894 41.6223C166.668 41.6027 165.484 42.0576 164.593 42.8896V42.1323C164.593 42.0545 164.562 41.9798 164.506 41.9247C164.45 41.8696 164.375 41.8387 164.296 41.8387H162.028C161.949 41.8387 161.873 41.8696 161.818 41.9247C161.762 41.9798 161.73 42.0545 161.73 42.1323V43.0133C161.73 43.0912 161.762 43.1659 161.818 43.2209C161.873 43.276 161.949 43.3069 162.028 43.3069H163.029V50.4782H162.028C161.95 50.4819 161.877 50.514 161.822 50.5683C161.767 50.6226 161.734 50.6951 161.73 50.7718V51.6682C161.734 51.7434 161.768 51.8141 161.823 51.8659C161.878 51.9177 161.952 51.9465 162.028 51.9464H165.704C165.779 51.9464 165.85 51.9171 165.903 51.8649C165.956 51.8127 165.985 51.742 165.985 51.6682V50.7718C165.986 50.6965 165.956 50.6241 165.904 50.5694C165.852 50.5148 165.78 50.4821 165.704 50.4782H164.64V45.1307C164.624 45.0751 164.624 45.0162 164.64 44.9606C164.963 44.42 165.419 43.969 165.966 43.6501C166.513 43.3311 167.134 43.1545 167.769 43.1369C168.245 43.1274 168.716 43.2355 169.14 43.4514C169.563 43.6673 169.925 43.9842 170.193 44.3733C170.628 45.0543 170.815 45.8608 170.725 46.6607V50.4782H169.662C169.585 50.4821 169.514 50.5148 169.461 50.5694C169.409 50.6241 169.38 50.6965 169.38 50.7718V51.6682C169.38 51.742 169.41 51.8127 169.462 51.8649C169.515 51.9171 169.587 51.9464 169.662 51.9464H173.338C173.414 51.9465 173.487 51.9177 173.543 51.8659C173.598 51.8141 173.631 51.7434 173.635 51.6682V50.7718C173.636 50.7081 173.617 50.6457 173.58 50.5932C173.544 50.5406 173.492 50.5004 173.432 50.4782Z" fill="#000035"/>
<g opacity="0.5">
<path d="M42.5585 54.9442C42.3127 54.9086 42.0766 54.8247 41.8641 54.6975C41.6516 54.5704 41.467 54.4024 41.3212 54.2037C41.1754 54.0049 41.0714 53.7793 41.0152 53.5402C40.959 53.3011 40.9519 53.0533 40.9942 52.8114C41.0301 52.567 41.1155 52.3322 41.2452 52.1211C41.3749 51.9099 41.5464 51.7268 41.7493 51.5826C41.9522 51.4383 42.1825 51.3359 42.4263 51.2815C42.6702 51.2271 42.9226 51.2218 43.1686 51.2659C43.4154 51.2994 43.6527 51.382 43.8663 51.5086C44.0799 51.6352 44.2653 51.8032 44.4115 52.0024C44.5576 52.2017 44.6615 52.4281 44.7167 52.6681C44.7719 52.908 44.7775 53.1566 44.7329 53.3987C44.6655 53.8301 44.4438 54.2233 44.1079 54.5068C43.7721 54.7904 43.3445 54.9456 42.9027 54.9442C42.7886 54.9609 42.6726 54.9609 42.5585 54.9442ZM46.9542 53.3987C46.9096 53.1557 46.915 52.9063 46.9701 52.6653C47.0252 52.4244 47.1288 52.1969 47.2748 51.9964C47.4208 51.796 47.6062 51.6266 47.8199 51.4984C48.0335 51.3702 48.2712 51.2859 48.5186 51.2504C48.7634 51.2086 49.0142 51.2157 49.2562 51.2712C49.4983 51.3266 49.7266 51.4294 49.9278 51.5735C50.129 51.7175 50.2989 51.8999 50.4277 52.1098C50.5564 52.3198 50.6413 52.5531 50.6773 52.7959C50.7219 53.039 50.7165 53.2884 50.6615 53.5293C50.6064 53.7702 50.5028 53.9977 50.3568 54.1982C50.2108 54.3987 50.0254 54.568 49.8117 54.6962C49.598 54.8244 49.3604 54.9087 49.113 54.9442H48.7689C48.341 54.9451 47.9262 54.7992 47.5952 54.5314C47.2642 54.2636 47.0376 53.8905 46.9542 53.476V53.3987ZM36.4264 52.5332C36.0079 52.2748 35.7092 51.8639 35.595 51.3895C35.4808 50.9152 35.5603 50.4154 35.8163 49.9985C36.0804 49.5876 36.4974 49.2957 36.9773 49.1859C37.4573 49.076 37.9617 49.1569 38.3818 49.4112C38.5904 49.5361 38.7717 49.701 38.9149 49.896C39.0581 50.0911 39.1604 50.3125 39.2158 50.5472C39.2712 50.7819 39.2785 51.0252 39.2374 51.2627C39.1962 51.5003 39.1074 51.7273 38.9762 51.9304C38.8144 52.198 38.5854 52.4198 38.3113 52.5741C38.0372 52.7285 37.7274 52.8102 37.4119 52.8114C37.0709 52.8367 36.7295 52.7671 36.4264 52.6105V52.5332ZM52.6796 51.915C52.5484 51.7118 52.4597 51.4848 52.4185 51.2473C52.3774 51.0097 52.3847 50.7665 52.4401 50.5318C52.4955 50.2971 52.5978 50.0757 52.741 49.8806C52.8842 49.6855 53.0655 49.5207 53.2741 49.3958C53.4815 49.2678 53.7125 49.1815 53.9537 49.1418C54.195 49.1021 54.4417 49.1097 54.68 49.1643C54.9182 49.2188 55.1433 49.3192 55.3422 49.4597C55.5412 49.6002 55.7102 49.778 55.8396 49.9831C56.097 50.3981 56.1789 50.8965 56.0677 51.3707C55.9565 51.8449 55.661 52.2568 55.2451 52.5177C54.9481 52.6968 54.6075 52.7929 54.2596 52.7959C53.9491 52.8041 53.6415 52.7348 53.3653 52.5943C53.0891 52.4538 52.8533 52.2467 52.6796 51.9923V51.915ZM31.5614 48.3139C31.2659 47.9234 31.1379 47.4335 31.2053 46.9505C31.2726 46.4674 31.5298 46.03 31.9212 45.7329C32.1162 45.5864 32.3385 45.4793 32.5755 45.4179C32.8124 45.3564 33.0594 45.3418 33.3021 45.3748C33.5448 45.4078 33.7785 45.4879 33.9898 45.6103C34.2011 45.7328 34.3859 45.8952 34.5336 46.0884C34.8282 46.4765 34.9557 46.9638 34.8883 47.4443C34.8209 47.9249 34.5641 48.3596 34.1738 48.6539C33.8525 48.9033 33.456 49.0393 33.0475 49.0403C32.7604 49.0375 32.4777 48.9707 32.2204 48.8449C31.9631 48.7191 31.7378 48.5376 31.5614 48.3139ZM57.4821 48.6385C57.2866 48.4926 57.1222 48.31 56.9982 48.1013C56.8743 47.8925 56.7933 47.6616 56.7599 47.4218C56.7264 47.182 56.7412 46.938 56.8034 46.7039C56.8656 46.4698 56.974 46.2501 57.1223 46.0575C57.4202 45.6718 57.8602 45.4181 58.3466 45.3515C58.833 45.285 59.3263 45.4109 59.7191 45.702C59.9163 45.8466 60.0824 46.0286 60.2075 46.2373C60.3326 46.4461 60.4144 46.6774 60.4479 46.9178C60.4814 47.1582 60.466 47.4027 60.4026 47.6372C60.3393 47.8716 60.2292 48.0912 60.0789 48.283C59.9089 48.5099 59.6872 48.694 59.4317 48.8202C59.1762 48.9464 58.8941 49.0112 58.6084 49.0094C58.1954 48.9895 57.8002 48.8376 57.4821 48.5767V48.6385ZM28.6204 42.4564C28.5536 42.224 28.5338 41.9809 28.5621 41.7409C28.5904 41.501 28.6663 41.2689 28.7854 41.0579C28.9046 40.8469 29.0646 40.6612 29.2564 40.5113C29.4482 40.3615 29.6679 40.2504 29.9032 40.1845C30.1384 40.1185 30.3845 40.0989 30.6274 40.1269C30.8702 40.1548 31.1052 40.2298 31.3187 40.3475C31.5322 40.4652 31.7202 40.6233 31.8719 40.8128C32.0236 41.0022 32.136 41.2194 32.2027 41.4518C32.3264 41.9066 32.2688 42.3909 32.0418 42.8049C31.8148 43.219 31.4357 43.5312 30.9826 43.6774C30.8165 43.7 30.6481 43.7 30.482 43.6774C30.0783 43.6967 29.6791 43.5868 29.3437 43.3641C29.0084 43.1413 28.7547 42.8176 28.6204 42.4409V42.4564ZM60.7046 43.6774C60.4693 43.6114 60.2496 43.5004 60.0578 43.3505C59.866 43.2007 59.706 43.0149 59.5868 42.804C59.4677 42.593 59.3918 42.3609 59.3635 42.1209C59.3352 41.881 59.355 41.6378 59.4218 41.4054C59.4886 41.173 59.601 40.9559 59.7527 40.7664C59.9044 40.5769 60.0924 40.4188 60.3059 40.3011C60.5194 40.1834 60.7544 40.1085 60.9972 40.0805C61.2401 40.0525 61.4862 40.0721 61.7214 40.1381C61.9566 40.204 62.1764 40.3151 62.3682 40.465C62.56 40.6148 62.72 40.8006 62.8392 41.0115C62.9583 41.2225 63.0341 41.4546 63.0625 41.6946C63.0908 41.9345 63.071 42.1776 63.0041 42.41C62.8894 42.7936 62.6523 43.1303 62.3281 43.3698C62.0039 43.6093 61.61 43.7389 61.2052 43.7392C61.0363 43.7406 60.8679 43.7198 60.7046 43.6774ZM29.6842 37.9744C29.4393 37.9512 29.2014 37.8803 28.9844 37.7658C28.7674 37.6512 28.5755 37.4953 28.4198 37.307C28.2642 37.1188 28.1478 36.9019 28.0775 36.6689C28.0073 36.4359 27.9844 36.1915 28.0104 35.9498C28.0839 35.4866 28.3338 35.0686 28.7089 34.7813C29.084 34.4941 29.556 34.3592 30.0283 34.4042C30.2725 34.4236 30.5103 34.4908 30.7279 34.6019C30.9456 34.713 31.1386 34.8658 31.2959 35.0514C31.4531 35.237 31.5714 35.4516 31.6438 35.6828C31.7163 35.914 31.7414 36.1571 31.7178 36.398C31.675 36.8531 31.4623 37.2761 31.1211 37.5847C30.7798 37.8933 30.3345 38.0652 29.8719 38.0671H29.6998L29.6842 37.9744ZM59.8911 36.2898C59.8675 36.0481 59.8925 35.8041 59.9648 35.572C60.037 35.3399 60.1551 35.1242 60.3122 34.9374C60.4692 34.7506 60.6622 34.5964 60.8799 34.4837C61.0976 34.3709 61.3358 34.3019 61.5806 34.2806C62.0739 34.2376 62.5644 34.3888 62.9453 34.7015C63.3262 35.0141 63.5666 35.4628 63.6142 35.9498C63.6576 36.4355 63.504 36.9183 63.1872 37.2922C62.8704 37.666 62.4163 37.9003 61.9248 37.9435H61.7527C61.2935 37.9386 60.8521 37.7676 60.512 37.4629C60.1718 37.1581 59.9565 36.7408 59.9068 36.2898H59.8911ZM30.6228 32.1942C30.1817 31.9781 29.8452 31.5983 29.6869 31.1378C29.5286 30.6772 29.5614 30.1735 29.7781 29.7368C29.9998 29.2999 30.3871 28.9672 30.8558 28.8109C31.3244 28.6546 31.8366 28.6874 32.281 28.9022C32.7204 29.124 33.0537 29.5078 33.2089 29.9706C33.3641 30.4334 33.3285 30.9379 33.11 31.375C32.9579 31.6813 32.7218 31.9392 32.4287 32.1195C32.1356 32.2998 31.7972 32.3953 31.4519 32.3951C31.1683 32.3941 30.8891 32.3252 30.6384 32.1942H30.6228ZM58.4676 31.3441C58.2509 30.9074 58.2182 30.4037 58.3765 29.9431C58.5348 29.4826 58.8713 29.1028 59.3123 28.8867C59.5299 28.7781 59.7671 28.7131 60.0102 28.6955C60.2533 28.6779 60.4975 28.7081 60.7287 28.7842C60.96 28.8604 61.1737 28.981 61.3575 29.1392C61.5413 29.2974 61.6915 29.49 61.7996 29.7059C61.9096 29.9208 61.9754 30.1551 61.9932 30.3953C62.011 30.6355 61.9804 30.8768 61.9034 31.1052C61.8263 31.3337 61.7042 31.5448 61.5441 31.7264C61.3839 31.908 61.189 32.0565 60.9705 32.1632C60.7152 32.2967 60.4303 32.3657 60.1414 32.3642C59.7932 32.3598 59.4532 32.2589 59.1601 32.0732C58.867 31.8874 58.6325 31.6241 58.4833 31.3132L58.4676 31.3441ZM33.6419 27.1558C33.3083 26.7969 33.1325 26.3219 33.153 25.8351C33.1736 25.3483 33.3888 24.8895 33.7514 24.5593C34.1146 24.2297 34.5954 24.056 35.0881 24.0763C35.5808 24.0966 36.0453 24.3092 36.3795 24.6675C36.7111 25.0283 36.8842 25.5045 36.8607 25.9913C36.8373 26.4781 36.6192 26.9359 36.2543 27.2639C35.9153 27.5772 35.467 27.7488 35.0029 27.7431C34.7472 27.7436 34.4942 27.6917 34.26 27.5906C34.0257 27.4895 33.8152 27.3414 33.6419 27.1558ZM55.3546 27.2485C54.9898 26.9204 54.7717 26.4627 54.7482 25.9758C54.7248 25.489 54.8979 25.0129 55.2295 24.652C55.5615 24.2916 56.0248 24.0761 56.5176 24.0529C57.0104 24.0297 57.4923 24.2007 57.8575 24.5284C58.2187 24.8586 58.4342 25.3157 58.4576 25.8013C58.481 26.2869 58.3104 26.7622 57.9827 27.1248C57.8084 27.3145 57.5959 27.4661 57.3588 27.5699C57.1218 27.6737 56.8654 27.7274 56.6061 27.7276C56.142 27.7334 55.6936 27.5617 55.3546 27.2485ZM38.2723 23.5856C38.0929 23.1326 38.1024 22.6278 38.2989 22.1817C38.4953 21.7357 38.8626 21.3846 39.3204 21.2055C39.7789 21.0282 40.2898 21.0377 40.7413 21.2318C41.1928 21.4258 41.5481 21.7887 41.7294 22.241C41.8204 22.4651 41.8654 22.7048 41.8619 22.9463C41.8584 23.1877 41.8063 23.426 41.7088 23.6475C41.6113 23.8689 41.4703 24.069 41.2939 24.2361C41.1175 24.4032 40.9093 24.5341 40.6813 24.6211C40.4624 24.7068 40.2285 24.7488 39.993 24.7447C39.621 24.7473 39.2569 24.6377 38.9495 24.4306C38.6421 24.2235 38.4059 23.9287 38.2723 23.5856ZM50.9276 24.6211C50.4696 24.4417 50.1014 24.0915 49.9024 23.6463C49.7034 23.201 49.6896 22.6963 49.8639 22.241C49.9521 22.0157 50.0845 21.8097 50.2534 21.6349C50.4222 21.4602 50.6243 21.32 50.848 21.2224C51.0717 21.1248 51.3127 21.0717 51.5572 21.0661C51.8017 21.0606 52.0449 21.1027 52.2729 21.1901C52.501 21.2773 52.7094 21.408 52.8863 21.5748C53.0633 21.7417 53.2052 21.9413 53.3039 22.1623C53.4027 22.3834 53.4565 22.6215 53.4621 22.863C53.4677 23.1046 53.4251 23.3449 53.3367 23.5701C53.2009 23.9161 52.9625 24.2135 52.6526 24.4231C52.3427 24.6328 51.9758 24.7449 51.6003 24.7447C51.366 24.7165 51.1384 24.6486 50.9276 24.5438V24.6211ZM43.9195 21.8392C43.9195 21.3514 44.1156 20.8836 44.4647 20.5387C44.8138 20.1938 45.2873 20 45.781 20C46.2747 20 46.7482 20.1938 47.0973 20.5387C47.4464 20.8836 47.6425 21.3514 47.6425 21.8392C47.6188 22.3054 47.4165 22.7453 47.0766 23.0696C46.7367 23.3939 46.2847 23.5784 45.8123 23.5856C45.5665 23.5897 45.3224 23.5457 45.0939 23.456C44.8655 23.3664 44.6572 23.233 44.4813 23.0634C44.3053 22.8939 44.165 22.6915 44.0686 22.4682C43.9722 22.2448 43.9215 22.0047 43.9195 21.7619V21.8392Z" fill="#000035"/>
</g>
<g opacity="0.65">
<path d="M43.9677 48.3113C43.9677 47.8235 44.1639 47.3557 44.513 47.0108C44.8621 46.6659 45.3356 46.4721 45.8293 46.4721C46.323 46.4721 46.7965 46.6659 47.1456 47.0108C47.4947 47.3557 47.6908 47.8235 47.6908 48.3113C47.6908 48.7991 47.4947 49.2669 47.1456 49.6118C46.7965 49.9567 46.323 50.1505 45.8293 50.1505C45.3356 50.1505 44.8621 49.9567 44.513 49.6118C44.1639 49.2669 43.9677 48.7991 43.9677 48.3113ZM39.4469 48.4658C39.0368 48.2158 38.7408 47.8184 38.6212 47.3573C38.5016 46.8961 38.5677 46.407 38.8055 45.993C39.0512 45.5717 39.4556 45.2637 39.9305 45.1363C40.4054 45.0089 40.9121 45.0724 41.3397 45.313C41.7672 45.5586 42.0792 45.961 42.2081 46.4327C42.337 46.9044 42.2723 47.4073 42.028 47.8322C41.8678 48.1035 41.6399 48.3298 41.366 48.4894C41.0922 48.649 40.7815 48.7367 40.4637 48.744C40.1078 48.7586 39.7552 48.6728 39.4469 48.4967V48.4658ZM49.6619 47.7858C49.417 47.3652 49.3503 46.866 49.4763 46.3971C49.6023 45.9281 49.9108 45.5273 50.3345 45.2821C50.546 45.1599 50.7798 45.0801 51.0226 45.0474C51.2653 45.0147 51.5122 45.0296 51.7491 45.0913C51.986 45.1531 52.2082 45.2604 52.403 45.4072C52.5978 45.554 52.7614 45.7373 52.8843 45.9466C53.1292 46.3672 53.1959 46.8664 53.0699 47.3354C52.9439 47.8043 52.6354 48.2051 52.2117 48.4504C51.9262 48.6127 51.6025 48.698 51.2731 48.6977C50.9503 48.7015 50.632 48.6223 50.3495 48.4678C50.067 48.3134 49.83 48.089 49.6619 47.8167V47.7858ZM34.7852 43.8756C34.6615 43.6667 34.5808 43.4357 34.5477 43.1959C34.5146 42.956 34.5297 42.7121 34.5922 42.4781C34.6547 42.244 34.7633 42.0245 34.9119 41.832C35.0604 41.6395 35.246 41.4779 35.4579 41.3564C35.6681 41.2346 35.9008 41.1551 36.1423 41.1226C36.3838 41.0901 36.6295 41.1052 36.8651 41.167C37.1007 41.2287 37.3216 41.336 37.5151 41.4826C37.7085 41.6292 37.8706 41.8122 37.9921 42.021C38.1157 42.23 38.1964 42.461 38.2296 42.7008C38.2627 42.9406 38.2476 43.1845 38.1851 43.4186C38.1226 43.6526 38.0139 43.8722 37.8654 44.0646C37.7168 44.2571 37.5313 44.4187 37.3194 44.5402C37.0397 44.7027 36.7209 44.7881 36.3964 44.7875C36.0736 44.7913 35.7553 44.7121 35.4728 44.5576C35.1904 44.4032 34.9534 44.1788 34.7852 43.9065V43.8756ZM54.3235 44.5093C53.8998 44.264 53.5913 43.8632 53.4653 43.3943C53.3393 42.9253 53.406 42.4262 53.6509 42.0056C53.7723 41.7967 53.9344 41.6137 54.1279 41.4672C54.3213 41.3206 54.5422 41.2133 54.7778 41.1515C55.0134 41.0897 55.2591 41.0746 55.5006 41.1072C55.7421 41.1397 55.9748 41.2192 56.1851 41.341C56.6114 41.5837 56.9232 41.9833 57.0522 42.4525C57.1812 42.9217 57.1169 43.4223 56.8734 43.8447C56.7131 44.1161 56.4852 44.3423 56.2114 44.5019C55.9376 44.6616 55.6269 44.7492 55.309 44.7566C54.9667 44.7747 54.6259 44.6999 54.3235 44.5402V44.5093ZM33.0645 37.5699C33.0645 37.0821 33.2606 36.6143 33.6097 36.2694C33.9588 35.9245 34.4323 35.7307 34.926 35.7307C35.4184 35.7348 35.8895 35.9299 36.2378 36.2739C36.586 36.6179 36.7834 37.0834 36.7875 37.5699C36.7875 38.0577 36.5914 38.5255 36.2423 38.8704C35.8932 39.2153 35.4197 39.4091 34.926 39.4091C34.4376 39.4091 33.9688 39.2196 33.6206 38.8814C33.2724 38.5431 33.0727 38.0832 33.0645 37.6008V37.5699ZM54.8554 37.5699C54.8595 37.0834 55.0569 36.6179 55.4051 36.2739C55.7533 35.9299 56.2245 35.7348 56.7169 35.7307C57.2081 35.7387 57.6769 35.935 58.0243 36.2782C58.3717 36.6214 58.5704 37.0846 58.5785 37.5699C58.5785 38.0577 58.3823 38.5255 58.0332 38.8704C57.6841 39.2153 57.2106 39.4091 56.7169 39.4091C56.2232 39.4091 55.7497 39.2153 55.4006 38.8704C55.0515 38.5255 54.8554 38.0577 54.8554 37.5699ZM35.4422 33.8143C35.0147 33.5686 34.7027 33.1662 34.5738 32.6945C34.4449 32.2228 34.5096 31.7199 34.7539 31.2951C34.8769 31.0857 35.0404 30.9024 35.2353 30.7557C35.4301 30.6089 35.6523 30.5016 35.8892 30.4398C36.1261 30.3781 36.373 30.3632 36.6157 30.3959C36.8585 30.4286 37.0923 30.5083 37.3038 30.6305C37.7275 30.8758 38.0359 31.2766 38.1619 31.7456C38.2879 32.2145 38.2212 32.7137 37.9764 33.1343C37.8162 33.4056 37.5883 33.6319 37.3144 33.7915C37.0406 33.9511 36.73 34.0388 36.4121 34.0461C36.074 34.0523 35.74 33.9725 35.4422 33.8143ZM53.6509 33.1188C53.5272 32.9099 53.4465 32.6789 53.4133 32.439C53.3802 32.1992 53.3953 31.9553 53.4578 31.7213C53.5203 31.4872 53.629 31.2677 53.7775 31.0752C53.9261 30.8827 54.1116 30.7211 54.3235 30.5996C54.5347 30.4784 54.7682 30.3998 55.0104 30.3685C55.2526 30.3371 55.4987 30.3535 55.7344 30.4167C55.9701 30.48 56.1907 30.5888 56.3836 30.7369C56.5764 30.8851 56.7376 31.0695 56.8577 31.2797C56.981 31.4874 57.0614 31.7172 57.0944 31.9559C57.1273 32.1945 57.112 32.4372 57.0495 32.67C56.9869 32.9028 56.8784 33.121 56.73 33.3121C56.5816 33.5032 56.3964 33.6634 56.1851 33.7834C55.9004 33.9478 55.5762 34.0333 55.2465 34.0307C54.9226 34.0317 54.6043 33.9479 54.324 33.7877C54.0437 33.6275 53.8114 33.3967 53.6509 33.1188ZM38.8055 29.1932C38.6818 28.9843 38.6011 28.7532 38.568 28.5134C38.5349 28.2736 38.55 28.0297 38.6125 27.7956C38.675 27.5616 38.7836 27.342 38.9321 27.1496C39.0807 26.9571 39.2662 26.7955 39.4781 26.674C39.9039 26.4321 40.4091 26.3662 40.8838 26.4907C41.3584 26.6152 41.7641 26.9199 42.0123 27.3386C42.136 27.5475 42.2167 27.7785 42.2498 28.0183C42.283 28.2582 42.2679 28.5021 42.2054 28.7361C42.1429 28.9702 42.0342 29.1897 41.8857 29.3822C41.7371 29.5747 41.5516 29.7363 41.3397 29.8578C41.0606 30.0217 40.7414 30.1072 40.4167 30.1051C40.0909 30.1057 39.7706 30.0218 39.4878 29.8618C39.2051 29.7018 38.9698 29.4712 38.8055 29.1932ZM50.3971 29.8423C50.1857 29.7223 50.0005 29.5622 49.8521 29.3711C49.7038 29.18 49.5952 28.9617 49.5326 28.7289C49.4701 28.4962 49.4548 28.2534 49.4878 28.0148C49.5207 27.7762 49.6011 27.5463 49.7244 27.3386C49.9701 26.9173 50.3746 26.6093 50.8495 26.4819C51.3244 26.3544 51.831 26.4179 52.2586 26.6585C52.4705 26.78 52.6561 26.9416 52.8046 27.1341C52.9532 27.3266 53.0618 27.5461 53.1243 27.7802C53.1868 28.0142 53.2019 28.2581 53.1688 28.498C53.1357 28.7378 53.0549 28.9688 52.9313 29.1777C52.771 29.4491 52.5432 29.6753 52.2693 29.835C51.9955 29.9946 51.6848 30.0822 51.367 30.0896C51.0055 30.1108 50.646 30.0247 50.3345 29.8423H50.3971ZM43.999 26.7513C44.003 26.2674 44.1983 25.8042 44.5432 25.4606C44.8881 25.117 45.3552 24.9202 45.8449 24.9121C46.3386 24.9121 46.8121 25.1059 47.1612 25.4508C47.5103 25.7957 47.7065 26.2635 47.7065 26.7513C47.7065 27.2391 47.5103 27.7069 47.1612 28.0518C46.8121 28.3967 46.3386 28.5904 45.8449 28.5904C45.3538 28.6029 44.8776 28.4231 44.5201 28.0902C44.1626 27.7573 43.9528 27.2982 43.9365 26.8131L43.999 26.7513Z" fill="#000035"/>
</g>
<g opacity="0.8">
<path d="M43.9671 43.2881C43.9671 42.8004 44.1632 42.3326 44.5123 41.9877C44.8614 41.6427 45.3349 41.449 45.8286 41.449C46.0723 41.449 46.3137 41.4966 46.5386 41.5893C46.7636 41.6819 46.9678 41.8176 47.1394 41.9886C47.311 42.1596 47.4467 42.3624 47.5385 42.5855C47.6304 42.8085 47.6766 43.0473 47.6745 43.2881C47.6766 43.5289 47.6304 43.7677 47.5385 43.9908C47.4467 44.2138 47.311 44.4167 47.1394 44.5877C46.9678 44.7587 46.7636 44.8944 46.5386 44.987C46.3137 45.0796 46.0723 45.1273 45.8286 45.1273C45.3349 45.1273 44.8614 44.9335 44.5123 44.5886C44.1632 44.2437 43.9671 43.7759 43.9671 43.2881ZM39.2741 41.3562C39.1508 41.1485 39.0704 40.9187 39.0375 40.68C39.0046 40.4414 39.0198 40.1987 39.0823 39.9659C39.1449 39.7331 39.2535 39.5149 39.4018 39.3238C39.5502 39.1327 39.7354 38.9725 39.9468 38.8525C40.1571 38.7307 40.3897 38.6512 40.6312 38.6187C40.8728 38.5862 41.1185 38.6012 41.3541 38.663C41.5897 38.7248 41.8106 38.8321 42.004 38.9787C42.1974 39.1253 42.3595 39.3082 42.481 39.5171C42.6047 39.726 42.6854 39.957 42.7185 40.1968C42.7516 40.4367 42.7365 40.6806 42.674 40.9146C42.6115 41.1487 42.5029 41.3682 42.3543 41.5607C42.2058 41.7532 42.0202 41.9148 41.8083 42.0363C41.5264 42.1935 41.2091 42.2785 40.8854 42.2835C40.5478 42.292 40.2141 42.2104 39.9195 42.0472C39.6249 41.884 39.3803 41.6453 39.2116 41.3562H39.2741ZM49.9584 42.0208C49.532 41.7781 49.2203 41.3785 49.0913 40.9093C48.9623 40.4401 49.0266 39.9395 49.2701 39.5171C49.3918 39.3064 49.5544 39.1216 49.7486 38.9733C49.9429 38.825 50.1649 38.7161 50.4018 38.6529C50.6388 38.5897 50.8861 38.5735 51.1295 38.6051C51.3729 38.6366 51.6075 38.7155 51.82 38.837C52.2448 39.0853 52.5535 39.4888 52.6794 39.9603C52.8053 40.4318 52.7382 40.9333 52.4926 41.3562C52.3324 41.6276 52.1045 41.8538 51.8307 42.0135C51.5568 42.1731 51.2462 42.2607 50.9283 42.2681C50.5667 42.2912 50.2066 42.205 49.8958 42.0208H49.9584ZM39.9468 36.3333C39.7336 36.2131 39.5465 36.0524 39.3964 35.8605C39.2463 35.6687 39.1361 35.4493 39.0721 35.2152C39.0082 34.981 38.9917 34.7367 39.0237 34.4962C39.0557 34.2558 39.1355 34.024 39.2585 33.8141C39.3799 33.6053 39.5421 33.4223 39.7355 33.2757C39.9289 33.1291 40.1498 33.0218 40.3854 32.96C40.621 32.8983 40.8667 32.8832 41.1082 32.9157C41.3498 32.9482 41.5824 33.0277 41.7927 33.1495C42.0054 33.2682 42.1921 33.4274 42.342 33.618C42.4919 33.8085 42.6021 34.0265 42.6661 34.2594C42.7301 34.4923 42.7467 34.7354 42.715 34.9746C42.6832 35.2139 42.6037 35.4446 42.481 35.6533C42.3216 35.9265 42.0942 36.155 41.8205 36.3173C41.5468 36.4796 41.2357 36.5702 40.9167 36.5806C40.5559 36.5947 40.1984 36.509 39.8842 36.3333H39.9468ZM49.3327 35.6378C49.0879 35.2172 49.0212 34.7181 49.1472 34.2491C49.2732 33.7801 49.5816 33.3794 50.0054 33.1341C50.4335 32.8914 50.9411 32.8251 51.4183 32.9495C51.8955 33.0739 52.3039 33.3789 52.5552 33.7986C52.8008 34.2216 52.8679 34.7231 52.742 35.1946C52.6161 35.6661 52.3073 36.0696 51.8825 36.3178C51.597 36.4802 51.2733 36.5655 50.9439 36.5651C50.5959 36.5851 50.2491 36.5089 49.9424 36.3451C49.6357 36.1814 49.3813 35.9364 49.2076 35.6378H49.3327ZM44.0766 31.8822C44.0745 31.6414 44.1207 31.4026 44.2126 31.1795C44.3044 30.9565 44.4401 30.7536 44.6117 30.5826C44.7833 30.4117 44.9875 30.2759 45.2125 30.1833C45.4374 30.0907 45.6788 30.043 45.9225 30.043C46.1662 30.041 46.4079 30.0867 46.6337 30.1774C46.8594 30.2681 47.0648 30.4021 47.2379 30.5717C47.4109 30.7412 47.5483 30.943 47.642 31.1653C47.7358 31.3875 47.784 31.6259 47.784 31.8667C47.7861 32.1062 47.7404 32.3438 47.6495 32.5658C47.5586 32.7879 47.4244 32.9901 47.2544 33.1609C47.0845 33.3316 46.8822 33.4677 46.659 33.5612C46.4358 33.6547 46.1962 33.7039 45.9538 33.7059C45.6985 33.7274 45.4416 33.6961 45.1993 33.6141C44.9569 33.5321 44.7345 33.4012 44.5462 33.2296C44.3578 33.0581 44.2077 32.8497 44.1053 32.6177C44.0029 32.3858 43.9505 32.1353 43.9514 31.8822H44.0766Z" fill="#000035"/>
</g>
<path d="M43.9512 37.5716C43.9512 37.0838 44.1473 36.616 44.4964 36.2711C44.8455 35.9262 45.319 35.7324 45.8127 35.7324C46.0564 35.7324 46.2978 35.7801 46.5227 35.8727C46.7477 35.9653 46.9519 36.101 47.1235 36.272C47.2951 36.443 47.4308 36.6459 47.5226 36.8689C47.6144 37.092 47.6607 37.3308 47.6586 37.5716C47.6546 38.0555 47.4593 38.5187 47.1144 38.8623C46.7696 39.2059 46.3024 39.4027 45.8127 39.4108C45.319 39.4108 44.8455 39.217 44.4964 38.8721C44.1473 38.5272 43.9512 38.0594 43.9512 37.5716Z" fill="#000035"/>
<defs>
<filter id="filter0_d_302_1327" x="0" y="0" width="303" height="76" filterUnits="userSpaceOnUse" color-interpolation-filters="sRGB">
<feFlood flood-opacity="0" result="BackgroundImageFix"/>
<feColorMatrix in="SourceAlpha" type="matrix" values="0 0 0 0 0 0 0 0 0 0 0 0 0 0 0 0 0 0 127 0" result="hardAlpha"/>
<feOffset dy="1"/>
<feGaussianBlur stdDeviation="2"/>
<feComposite in2="hardAlpha" operator="out"/>
<feColorMatrix type="matrix" values="0 0 0 0 0 0 0 0 0 0 0 0 0 0 0 0 0 0 0.1 0"/>
<feBlend mode="normal" in2="BackgroundImageFix" result="effect1_dropShadow_302_1327"/>
<feBlend mode="normal" in="SourceGraphic" in2="effect1_dropShadow_302_1327" result="shape"/>
</filter>
<clipPath id="clip0_302_1327">
<rect width="61" height="58" fill="white" transform="translate(208 8)"/>
</clipPath>
</defs>
</svg>
