<svg width="80" height="80" viewBox="0 0 80 80" fill="none" xmlns="http://www.w3.org/2000/svg">
<path d="M12.0921 68.6755C5.75801 63.6061 1.14002 53.0486 0.267632 45.1034C-0.956294 33.9558 2.0253 23.4833 9.05599 14.7376C9.2591 14.4853 9.46534 14.2355 9.6747 13.988C9.88406 13.7404 10.0963 13.4959 10.3116 13.2542C10.5268 13.0126 10.7451 12.7733 10.9666 12.5363C11.188 12.2993 11.4121 12.0647 11.6386 11.8325C11.8651 11.6014 12.0948 11.373 12.3276 11.1474C12.5604 10.9218 12.7948 10.6993 13.0307 10.4799C13.2685 10.2602 13.5092 10.0434 13.7525 9.82946C13.9958 9.61558 14.2417 9.40481 14.4901 9.19718C14.7385 8.98955 14.9897 8.78485 15.2436 8.58309C15.4975 8.38132 15.7533 8.18287 16.0111 7.98776C16.2697 7.79224 16.5304 7.60025 16.7933 7.41178C17.0561 7.22331 17.3215 7.03777 17.5895 6.85516C17.8574 6.67255 18.1273 6.49347 18.3992 6.3179C18.6711 6.14233 18.9445 5.97009 19.2194 5.80117C19.4956 5.63224 19.7739 5.46665 20.0543 5.30438C20.3348 5.1421 20.617 4.98354 20.9009 4.8287C21.1853 4.67229 21.4714 4.52058 21.7593 4.37355C22.0471 4.22653 22.337 4.08204 22.6287 3.9401C22.9197 3.79855 23.2127 3.6617 23.5076 3.52953C23.8025 3.39737 24.0989 3.26716 24.397 3.1389C24.695 3.01221 24.9946 2.88943 25.2957 2.77056C25.5969 2.65169 25.8996 2.53634 26.2038 2.42451C26.5073 2.31268 26.8126 2.20476 27.1196 2.10074C27.4266 1.99673 27.7342 1.89624 28.0424 1.79927C28.3517 1.70229 28.662 1.60943 28.9734 1.52066C29.2847 1.4319 29.5971 1.34686 29.9108 1.26552C30.2233 1.18419 30.5375 1.10599 30.8535 1.03091C31.1695 0.955836 31.4857 0.886035 31.802 0.821516C32.1188 0.755825 32.4366 0.693853 32.7553 0.635591C33.074 0.577329 33.3933 0.523367 33.7132 0.473707C34.0331 0.423266 34.3536 0.37693 34.6746 0.3347C34.9957 0.29247 35.3172 0.253368 35.639 0.217394C35.9648 0.183375 36.2911 0.15346 36.6181 0.127653C36.945 0.101845 37.2723 0.0797524 37.6 0.0613745C37.9277 0.0433875 38.2552 0.0291164 38.5825 0.0185588C38.9099 0.00800127 39.2378 0.0021331 39.5663 0.000960039C39.894 -0.00138608 40.2219 0.000567587 40.55 0.00682392C40.8781 0.0130802 41.2058 0.0230518 41.5331 0.0367376C41.8604 0.0508143 42.1877 0.0689999 42.515 0.0912881C42.8424 0.113576 43.1693 0.139577 43.4958 0.169294C43.822 0.199012 44.1481 0.23303 44.4743 0.27135C44.8004 0.30967 45.1256 0.351706 45.4498 0.397456C45.7744 0.443596 46.0983 0.49365 46.4218 0.547611C46.7452 0.601572 47.068 0.660225 47.3902 0.72357C47.7125 0.785351 48.0337 0.851238 48.354 0.921231C48.6743 0.991224 48.9938 1.06474 49.3125 1.14177C49.6313 1.21997 49.9488 1.30149 50.2652 1.38635C50.5816 1.4712 50.8972 1.56055 51.212 1.65439C51.5264 1.74746 51.8389 1.84521 52.1494 1.94766C52.4599 2.05011 52.7707 2.1547 53.0816 2.26145C53.3917 2.37016 53.6999 2.48238 54.0061 2.59812C54.3123 2.71386 54.6176 2.83352 54.9219 2.95708C55.2257 3.08064 55.5281 3.20792 55.8288 3.33891C56.1296 3.4699 56.4286 3.60441 56.7258 3.74244C57.0235 3.88086 57.3191 4.02261 57.6129 4.16768C57.9066 4.31275 58.1995 4.46192 58.4917 4.6152C58.7823 4.7677 59.0707 4.92411 59.3571 5.08443C59.6434 5.24474 59.9279 5.40799 60.2107 5.57418C60.4931 5.74075 60.7734 5.91084 61.0515 6.08446C61.3296 6.25807 61.6057 6.43403 61.8799 6.61234C62.1533 6.7926 62.4252 6.97618 62.6955 7.16309C62.9658 7.35 63.2329 7.54023 63.497 7.73378C63.7618 7.92929 64.0241 8.12598 64.2838 8.32384C64.5436 8.52169 64.8012 8.72483 65.0566 8.93324C73.1337 15.4848 78.7079 25.5854 79.7777 35.9401C80.8862 46.6736 77.8302 56.7619 71.035 65.0865C69.8726 66.51 68.6083 67.93 67.2648 69.1846C59.4959 75.9174 51.4112 79.6736 41.0064 79.9768C30.0367 80.3041 20.0444 76.1925 12.0921 68.6755Z" fill="#FF6600"/>
<path d="M33.329 49.4903C34.5804 49.9443 35.6813 50.6218 36.9955 50.9848C40.3849 51.9197 43.7057 50.8886 46.6627 49.1953C46.6861 50.7314 46.4605 53.9163 47.1074 55.2225C52.8655 56.8425 58.7812 60.0808 63.084 64.2651C64.6319 65.7707 65.9725 67.4681 67.2702 69.1919C59.5013 75.9247 51.4166 79.6809 41.0118 79.9841C30.0345 80.3061 20.0421 76.1928 12.0898 68.6775C16.7307 61.3406 24.6613 57.3499 32.8245 55.2307C33.4362 53.416 33.1257 51.3842 33.329 49.4903Z" fill="#076B33"/>
<path d="M33.3287 49.4903C34.5801 49.9443 35.681 50.6218 36.9952 50.9848C40.3845 51.9197 43.7054 50.8886 46.6624 49.1953C46.6858 50.7314 46.4602 53.9163 47.1071 55.2225C45.0307 57.0337 42.7334 58.5657 39.8754 58.5657C36.9875 58.5628 34.8022 57.1979 32.8242 55.2319C33.4359 53.416 33.1254 51.3842 33.3287 49.4903Z" fill="#EFB589"/>
<path d="M22.7821 28.9777C21.6578 24.3441 21.7275 19.9451 24.2633 15.7274C26.5723 11.885 30.619 9.14417 34.9435 8.10249C35.2493 8.02428 35.5567 7.95546 35.8657 7.89603C36.1746 7.83659 36.4852 7.78322 36.7972 7.73591C37.1097 7.69055 37.4222 7.65301 37.7347 7.6233C38.0471 7.59358 38.3616 7.57168 38.6779 7.55761C38.9928 7.54353 39.3076 7.53746 39.6224 7.53942C39.9372 7.54138 40.2522 7.55135 40.5674 7.56933C40.8823 7.58693 41.1963 7.61254 41.5096 7.64617C41.8228 7.6798 42.1353 7.72105 42.447 7.76993C42.7595 7.8192 43.0692 7.87628 43.3762 7.94119C43.6832 8.0061 43.9896 8.07864 44.2955 8.1588C44.6009 8.23935 44.9036 8.32713 45.2036 8.42215C45.5036 8.51717 45.8012 8.62021 46.0965 8.73125C46.3918 8.84152 46.6847 8.95883 46.9753 9.08317C47.2659 9.20752 47.5518 9.33987 47.8331 9.48025C48.1155 9.61906 48.3944 9.7655 48.6697 9.91956C48.9451 10.0736 49.2164 10.2339 49.4835 10.4005C49.7179 10.5456 49.9479 10.6961 50.1737 10.8521C50.3995 11.0082 50.6215 11.1699 50.8399 11.3372C51.0586 11.505 51.2734 11.6778 51.4843 11.8557C51.6953 12.0336 51.8999 12.2168 52.0984 12.4053C52.2987 12.5941 52.494 12.7875 52.6842 12.9854C52.8745 13.1832 53.06 13.3862 53.2408 13.5942C53.4213 13.8018 53.5971 14.0137 53.7681 14.23C53.9392 14.4462 54.1035 14.6666 54.2609 14.891C54.4198 15.1154 54.573 15.344 54.7202 15.5767C54.8675 15.8093 55.0087 16.0451 55.1438 16.284C55.2797 16.5233 55.4092 16.7659 55.5323 17.0119C55.6553 17.2578 55.7725 17.5067 55.8838 17.7585C55.9947 18.01 56.0992 18.2641 56.1972 18.521C56.2953 18.7779 56.3869 19.0372 56.472 19.2988C56.5568 19.5604 56.6349 19.8239 56.7064 20.0894C56.7779 20.3549 56.8431 20.622 56.9021 20.8906C57.5278 23.6714 57.4733 26.3325 56.6964 29.0762C57.5237 29.532 57.9221 29.8687 58.3955 30.7127C58.4184 31.8417 58.4424 33.0125 58.051 34.0893C57.5928 35.351 56.5781 36.2953 55.8832 37.4226C55.2387 38.4713 54.7671 39.6584 54.1958 40.7517C53.9252 41.2601 53.6371 41.7565 53.3317 42.2409C53.0262 42.7254 52.704 43.2005 52.3649 43.6662C52.0259 44.1296 51.671 44.5806 51.3004 45.0193C50.9297 45.4581 50.544 45.8833 50.1432 46.295C49.0845 47.396 47.9251 48.3209 46.6707 49.1896C43.7113 50.8829 40.3905 51.914 37.0035 50.9791C35.6893 50.616 34.5884 49.9386 33.337 49.4846C30.5587 47.2347 28.0212 44.7407 26.1996 41.6409C25.4837 40.4239 24.9165 39.1188 24.1771 37.9164C23.5678 36.9258 22.6855 36.1234 22.0756 35.1316C21.4053 34.0406 20.8534 32.3438 21.2172 31.0658C21.4469 30.2399 22.0334 29.4147 22.7821 28.9777Z" fill="#FACFA9"/>
<path d="M56.6468 31.625L56.9825 31.8508C57.2528 32.4187 57.3442 33.0556 57.2444 33.6767C57.1501 34.2861 56.9884 34.6932 56.491 35.0679C56.3322 34.9841 56.1529 34.892 56.0264 34.7618C55.7797 34.509 55.6268 33.9747 55.625 33.6292C55.6209 32.7558 56.0826 32.2139 56.6468 31.625Z" fill="#F5A596"/>
<path d="M24.0218 30.9648L24.4348 32.0892C24.4219 32.1086 24.4096 32.1285 24.3956 32.1479C23.73 33.0165 24.3862 34.2166 23.7968 35.0254C23.6069 35.0571 23.5507 35.1087 23.3767 35.0055C22.8681 34.7028 22.0098 33.1673 21.9213 32.542C21.8704 32.179 21.9969 31.8875 22.2336 31.6182C22.5067 31.308 22.8523 31.0722 23.2736 31.0575C23.4959 31.0516 23.7174 31.0271 23.9356 30.9842L24.0218 30.9648Z" fill="#EFB589"/>
<path d="M22.7811 28.9777C21.6568 24.3441 21.7265 19.9451 24.2622 15.7274C26.5712 11.885 30.618 9.14417 34.9424 8.10249C35.2483 8.02428 35.5557 7.95546 35.8646 7.89603C36.1736 7.83659 36.4841 7.78322 36.7962 7.73591C37.1087 7.69055 37.4212 7.65301 37.7336 7.6233C38.0461 7.59358 38.3605 7.57168 38.6769 7.55761C38.9917 7.54353 39.3065 7.53746 39.6214 7.53942C39.9362 7.54138 40.2512 7.55135 40.5664 7.56933C40.8812 7.58693 41.1953 7.61254 41.5085 7.64617C41.8218 7.6798 42.1343 7.72105 42.4459 7.76993C42.7584 7.8192 43.0682 7.87628 43.3752 7.94119C43.6822 8.0061 43.9886 8.07864 44.2944 8.1588C44.5999 8.23935 44.9026 8.32713 45.2026 8.42215C45.5025 8.51717 45.8002 8.62021 46.0955 8.73125C46.3907 8.84152 46.6837 8.95883 46.9743 9.08317C47.2649 9.20752 47.5508 9.33987 47.832 9.48025C48.1144 9.61906 48.3933 9.7655 48.6687 9.91956C48.9441 10.0736 49.2153 10.2339 49.4825 10.4005C49.7169 10.5456 49.9469 10.6961 50.1727 10.8521C50.3984 11.0082 50.6205 11.1699 50.8388 11.3372C51.0576 11.505 51.2724 11.6778 51.4833 11.8557C51.6942 12.0336 51.8989 12.2168 52.0973 12.4053C52.2977 12.5941 52.493 12.7875 52.6832 12.9854C52.8734 13.1832 53.059 13.3862 53.2398 13.5942C53.4203 13.8018 53.596 14.0137 53.7671 14.23C53.9382 14.4462 54.1024 14.6666 54.2598 14.891C54.4188 15.1154 54.5719 15.344 54.7192 15.5767C54.8664 15.8093 55.0076 16.0451 55.1428 16.284C55.2787 16.5233 55.4082 16.7659 55.5312 17.0119C55.6543 17.2578 55.7715 17.5067 55.8828 17.7585C55.9937 18.01 56.0982 18.2641 56.1962 18.521C56.2943 18.7779 56.3858 19.0372 56.471 19.2988C56.5557 19.5604 56.6339 19.8239 56.7053 20.0894C56.7768 20.3549 56.8421 20.622 56.901 20.8906C57.5268 23.6714 57.4723 26.3325 56.6954 29.0762C56.2267 30.3215 55.1475 33.8272 54.0618 34.5855C52.9627 33.1192 55.5506 25.1917 50.3121 20.1123C49.2241 19.0565 47.8455 18.2284 46.3281 18.0008C44.5704 17.7345 42.7945 18.3216 41.3872 19.3715C40.6912 19.8906 40.1293 20.5164 39.5663 21.1716C38.009 19.4425 36.2267 18.0741 33.8246 17.9269C32.0288 17.816 30.3221 18.4776 28.9845 19.6659C26.6949 21.7006 25.2418 25.4867 25.0866 28.5226C24.9829 30.5502 25.3415 32.6811 25.5612 34.6982C25.1768 33.8336 24.7702 32.9732 24.4351 32.0881L24.022 30.9637C23.756 30.1783 23.2996 29.6112 22.7811 28.9777Z" fill="#060403"/>
</svg>
