<svg width="80" height="80" viewBox="0 0 80 80" fill="none" xmlns="http://www.w3.org/2000/svg">
<path d="M33.9042 51.3354C35.9313 52.2483 38.0306 52.5988 40.2541 52.5735C41.7121 52.5571 44.368 52.3052 45.4558 51.2109C45.7853 51.9524 45.8048 54.0212 45.5599 54.785C45.5261 54.8763 45.4847 54.9646 45.4363 55.0492C45.7149 55.6679 45.6321 56.3671 45.6185 57.0293C52.066 57.5964 57.9284 61.5738 62.0034 66.3853C62.7132 67.2254 64.981 70.0181 64.9018 71.1206C64.8976 71.1734 64.8846 71.2251 64.8757 71.2768C64.8681 71.3307 64.8559 71.384 64.8391 71.4358C64.6492 71.872 63.4662 72.5748 63.0592 72.8624C62.4992 73.2647 61.9286 73.651 61.3474 74.0213C60.7661 74.3915 60.1746 74.7459 59.5728 75.0845C58.9719 75.4226 58.362 75.7441 57.7433 76.049C57.1246 76.3539 56.4978 76.6417 55.8629 76.9126C55.228 77.1826 54.5862 77.4356 53.9375 77.6716C53.2888 77.9076 52.6338 78.1252 51.9725 78.3244C51.3116 78.524 50.6456 78.7057 49.9744 78.8692C49.3032 79.0328 48.6283 79.1778 47.9496 79.3043C38.6452 80.9422 28.9917 79.7516 20.707 75.0615C18.5261 73.8287 16.551 72.2718 14.4961 70.8447C15.1651 70.1878 16.8344 67.256 17.7902 66.0801C20.5555 62.678 24.5086 59.4956 28.716 58.0702C30.2942 57.5354 32.0007 57.307 33.5475 56.7346L33.7374 56.6624L34.0113 56.2661C34.0876 55.8041 34.0284 55.5217 33.8711 55.0838C33.8953 55.0286 33.9219 54.974 33.9444 54.9182C34.2514 54.1592 34.2011 52.0927 33.9042 51.3354Z" fill="#D52F2C"/>
<path d="M33.9018 51.3354C35.9289 52.2483 38.0282 52.5988 40.2516 52.5735C41.7097 52.5571 44.3656 52.3052 45.4534 51.2109C45.7829 51.9524 45.8024 54.0212 45.5575 54.785C45.5237 54.8763 45.4823 54.9646 45.4339 55.0492C45.7125 55.6679 45.6297 56.3671 45.6161 57.0293C45.3132 58.1588 44.6424 59.1028 43.7185 59.8231C42.332 60.9057 40.4959 61.3231 38.7593 61.0848C36.7481 60.8088 35.4291 59.7028 34.4548 57.9862C34.2401 57.6093 34.1325 57.118 33.8527 56.7904C33.8154 56.7464 33.7752 56.7053 33.7344 56.6624L34.0083 56.2661C34.0846 55.8041 34.0254 55.5217 33.8681 55.0838C33.8923 55.0286 33.9189 54.974 33.9414 54.9182C34.249 54.1592 34.1987 52.0927 33.9018 51.3354Z" fill="#FACFA9"/>
<path d="M14.4959 70.8438L14.4232 70.7669C12.583 68.8425 10.5322 67.1859 8.81739 65.12C2.79344 57.8703 -0.194281 48.2484 0.00979078 38.9129C0.0168889 38.5877 0.0277362 38.2626 0.0423268 37.9378C0.0569174 37.6129 0.0766345 37.2883 0.101478 36.9638C0.12435 36.6398 0.151157 36.3159 0.181915 35.9923C0.212674 35.6686 0.247574 35.3451 0.286614 35.0218C0.326048 34.6997 0.369027 34.3774 0.41556 34.0549C0.462092 33.7325 0.512967 33.4113 0.568174 33.0916C0.622988 32.771 0.682139 32.4513 0.745628 32.1323C0.809117 31.8133 0.875753 31.495 0.945552 31.1772C1.01653 30.8598 1.09126 30.5431 1.16974 30.2273C1.24821 29.9115 1.33064 29.5968 1.417 29.2833C1.50336 28.9702 1.59346 28.6571 1.68731 28.344C1.78116 28.0309 1.87975 27.7205 1.98307 27.4129C2.08481 27.1041 2.1903 26.7963 2.29953 26.4895C2.40876 26.1826 2.52174 25.8776 2.63846 25.5742C2.75677 25.2701 2.87744 24.9678 3.00048 24.6672C3.12351 24.3666 3.25167 24.0674 3.38496 23.7696C3.51667 23.4714 3.65212 23.1753 3.79132 22.8814C3.93052 22.5874 4.07327 22.2939 4.21957 22.0008C4.36588 21.7104 4.51593 21.4214 4.66972 21.1337C4.82351 20.846 4.98125 20.5607 5.14293 20.2778C5.30382 19.9944 5.46786 19.713 5.63506 19.4335C5.80226 19.1541 5.97341 18.8766 6.1485 18.6011C6.3228 18.3271 6.50025 18.0542 6.68086 17.7821C6.86147 17.5101 7.04601 17.2415 7.23451 16.9761C7.42221 16.7096 7.61327 16.4454 7.80768 16.1836C8.00209 15.9217 8.19926 15.6625 8.39919 15.4057C8.6003 15.1486 8.80438 14.8942 9.01141 14.6425C9.21844 14.3909 9.42862 14.1416 9.64196 13.8946C9.8549 13.6473 10.0718 13.4031 10.2926 13.162C10.5135 12.9209 10.7359 12.6819 10.9598 12.4452C11.1846 12.2103 11.4128 11.9769 11.6442 11.7448C11.8757 11.5127 12.1096 11.2851 12.3458 11.062C20.0242 3.81064 30.0941 -0.254193 40.7383 0.0123339C51.0578 0.270055 61.5773 4.89142 68.7008 12.3342C68.9319 12.5737 69.1603 12.816 69.3858 13.061C69.6114 13.306 69.8338 13.5539 70.0531 13.8048C70.2723 14.0549 70.4892 14.3081 70.7037 14.5645C70.9182 14.8208 71.128 15.0791 71.3331 15.3394C71.5389 15.6008 71.742 15.8644 71.9423 16.1301C72.1427 16.3959 72.3398 16.6642 72.5339 16.935C72.7275 17.2059 72.9173 17.4788 73.1035 17.754C73.2896 18.0291 73.4726 18.3068 73.6524 18.587C73.8322 18.8668 74.0083 19.149 74.1806 19.4335C74.3529 19.7181 74.5217 20.0044 74.687 20.2924C74.8526 20.5805 75.0145 20.8709 75.1726 21.1636C75.3307 21.4564 75.4853 21.7499 75.6363 22.0442C75.787 22.3409 75.934 22.6389 76.0776 22.9383C76.2211 23.2377 76.3607 23.5391 76.4964 23.8424C76.6324 24.1461 76.7645 24.4508 76.8927 24.7565C77.0209 25.0621 77.1455 25.3701 77.2665 25.6805C77.3872 25.9901 77.5039 26.301 77.6167 26.6133C77.7295 26.9256 77.8385 27.2388 77.9438 27.5526C78.0487 27.8677 78.1499 28.1839 78.2473 28.5013C78.3447 28.8187 78.4379 29.1373 78.527 29.4571C78.6166 29.7768 78.7017 30.0978 78.7826 30.4199C78.8634 30.742 78.9407 31.0646 79.0145 31.3879C79.0878 31.7116 79.1572 32.0362 79.2227 32.3619C79.2881 32.6875 79.3491 33.0135 79.4054 33.3399C79.4626 33.6671 79.5157 33.9947 79.5646 34.3226C79.6135 34.6506 79.6584 34.9796 79.6994 35.3095C79.7388 35.6383 79.7753 35.968 79.8088 36.2987C79.8424 36.6294 79.8708 36.9599 79.894 37.2903C79.9189 37.6214 79.9386 37.9525 79.9532 38.2836C79.9678 38.6147 79.9796 38.9462 79.9887 39.278C79.9969 39.6099 80.0007 39.9416 79.9999 40.2731C79.9991 40.6046 79.9946 40.9373 79.9863 41.2711C79.9768 41.6003 79.9634 41.9294 79.9461 42.2586C79.9287 42.5877 79.9072 42.9165 79.8816 43.2448C79.8568 43.5736 79.8274 43.9018 79.7935 44.2293C79.7596 44.5569 79.7219 44.8843 79.6805 45.2115C79.6411 45.5383 79.5957 45.8647 79.5445 46.1907C79.4932 46.5167 79.4395 46.8418 79.3836 47.1658C79.3256 47.4903 79.2639 47.8141 79.1984 48.1374C79.1329 48.4607 79.0633 48.7828 78.9896 49.1037C78.9162 49.4254 78.8388 49.746 78.7571 50.0653C78.6755 50.3847 78.5903 50.7031 78.5016 51.0205C78.4125 51.3375 78.3192 51.6537 78.2218 51.9692C78.1244 52.2846 78.0237 52.5977 77.9196 52.9085C77.8147 53.2216 77.706 53.5329 77.5937 53.8425C77.4813 54.1521 77.3651 54.4607 77.2452 54.7683C77.1269 55.0759 77.0031 55.3818 76.8738 55.6859C76.7444 55.99 76.6133 56.2927 76.4804 56.5941C76.3451 56.8946 76.2071 57.1938 76.0663 57.4917C75.9256 57.7895 75.7795 58.0856 75.6281 58.3799C75.479 58.6738 75.326 58.966 75.169 59.2564C75.0121 59.5468 74.8516 59.8354 74.6875 60.1223C74.5235 60.4088 74.3561 60.6933 74.1853 60.9759C74.0146 61.2585 73.8403 61.5389 73.6625 61.8172C73.4842 62.0954 73.3028 62.3715 73.1183 62.6455C72.9337 62.9195 72.7458 63.1909 72.5546 63.4598C72.3637 63.7294 72.1691 63.9965 71.9707 64.2611C71.7724 64.5257 71.5713 64.7877 71.3674 65.0472C71.1635 65.3074 70.9561 65.5648 70.7451 65.8192C70.5341 66.0736 70.3204 66.3258 70.1039 66.5759C69.8866 66.8256 69.6668 67.0723 69.4444 67.3162C69.222 67.56 68.9958 67.8015 68.7659 68.0406C68.5376 68.2797 68.3059 68.5157 68.0709 68.7486C67.8359 68.9815 67.5955 69.214 67.3498 69.446C66.6992 70.056 65.7244 71.0188 64.8744 71.2759C64.8832 71.2243 64.8962 71.1726 64.9004 71.1198C64.982 70.0173 62.7159 67.2246 62.002 66.3845C57.9259 61.5706 52.0646 57.5956 45.6171 57.0285C45.6307 56.3663 45.7135 55.6671 45.4349 55.0483C45.4834 54.9638 45.5247 54.8754 45.5586 54.7841C45.8034 54.021 45.7839 51.9516 45.4544 51.2101C44.3667 52.3044 41.7108 52.5562 40.2527 52.5727C38.0292 52.5979 35.9299 52.2474 33.9028 51.3346C34.1986 52.0919 34.25 54.1583 33.9448 54.9156C33.9223 54.9744 33.8957 55.026 33.8715 55.0812C34.0288 55.5191 34.088 55.8015 34.0116 56.2635L33.7378 56.6598L33.5479 56.732C32.0011 57.3026 30.2946 57.5328 28.7164 58.0676C24.509 59.493 20.5536 62.6754 17.7906 66.0775C16.8347 67.2557 15.1649 70.1869 14.4959 70.8438Z" fill="#33A8CF"/>
<path d="M22.5868 55.3254C22.5868 55.2738 22.5868 55.2221 22.5821 55.171C22.546 54.5963 21.8445 53.5454 21.5623 52.986C20.7997 51.4758 20.1349 49.9189 19.5719 48.3247C15.9234 38.0276 16.3186 25.5431 23.4759 16.7577C26.8475 12.6184 31.9652 9.76757 37.3119 9.21397C42.813 8.64394 48.1366 10.3411 52.389 13.8054C58.0036 18.3804 61.6662 25.7087 62.3512 32.8386C62.9752 39.3338 61.9519 45.4792 59.0872 51.368C58.5312 52.5099 57.9042 53.873 57.1199 54.8716C57.0076 55.007 56.8773 55.1265 56.7324 55.2268C52.9681 55.1423 49.2031 55.0826 45.4375 55.0477C45.486 54.9632 45.5273 54.8748 45.5611 54.7836C45.806 54.0204 45.7865 51.951 45.457 51.2095C44.3692 52.3038 41.7134 52.5557 40.2553 52.5721C38.0318 52.5973 35.9325 52.2469 33.9054 51.334C34.2012 52.0913 34.2526 54.1578 33.9474 54.9151C33.9249 54.9738 33.8983 55.0254 33.874 55.0806C33.3381 55.4317 23.9763 55.3331 22.5868 55.3254Z" fill="#060607"/>
<path d="M48.5312 29.7266C50.5278 30.0283 52.532 30.2659 54.544 30.4393C54.7894 30.9318 54.8119 31.3369 54.6404 31.8641C54.6138 31.9474 54.5812 32.0296 54.5516 32.1118C53.6543 32.494 52.5287 32.4106 51.5775 32.703C51.3149 32.0572 51.0333 31.4789 50.4046 31.1179L50.3454 30.879C49.8834 30.3541 49.1482 30.05 48.5312 29.7266Z" fill="#FACFA9"/>
<path d="M34.1753 19.5527C34.8377 20.1339 35.195 21.5605 35.6611 22.3501C38.1537 26.5717 41.9193 28.2336 46.4858 29.4295C45.4986 29.7817 44.5498 30.0236 43.617 30.5255C42.6114 31.3568 42.3535 32.4628 41.5348 33.2207C40.188 33.0834 38.8198 33.0857 37.4682 33.1421C37.4475 32.3683 36.7099 31.4044 36.1485 30.8848C34.998 29.8199 33.3885 29.3291 31.8352 29.4113C29.872 29.5152 28.7854 30.5854 27.5468 31.985L27.4285 32.1218L27.3782 32.2691C26.8565 32.5503 25.6953 32.2351 25.1133 32.1141C25.7012 31.2429 25.887 29.8193 26.2425 28.8131C27.6935 24.7101 30.5653 21.854 34.1753 19.5527Z" fill="#FACFA9"/>
<path d="M27.4234 32.1216L27.5417 31.9848C28.7803 30.5847 29.8669 29.5151 31.8302 29.4112C33.3835 29.329 34.993 29.8221 36.1434 30.8847C36.7048 31.4042 37.4448 32.3682 37.4631 33.1419C38.8147 33.0832 40.1841 33.0832 41.5298 33.2206C42.3484 32.465 42.6039 31.3567 43.6119 30.5254C44.5447 30.0235 45.4935 29.7839 46.4807 29.4293C47.1598 29.4945 47.8755 29.518 48.5262 29.7229C49.1431 30.0463 49.8783 30.3505 50.3421 30.8776L50.4012 31.1166C51.03 31.4753 51.3116 32.0559 51.5742 32.7016C52.5254 32.4081 53.651 32.4926 54.5483 32.1105C54.7098 32.5901 54.8086 32.822 54.5531 33.2969C54.5306 33.3392 54.5034 33.3785 54.4785 33.4196C55.1322 34.4558 54.4726 38.476 54.1828 39.7253C53.1802 44.0466 50.5266 48.2576 46.7002 50.6247C46.3145 50.8636 45.8933 51.0984 45.4509 51.2117C44.3631 52.306 41.7072 52.5579 40.2491 52.5743C38.0256 52.5995 35.9264 52.2491 33.8993 51.3362C33.4562 50.6693 31.4859 49.6337 30.7554 49.0549C27.1217 46.1782 25.0591 41.0045 24.7149 36.5111C24.635 35.4655 24.994 34.4006 24.8562 33.3709C24.8521 33.3409 24.8468 33.3122 24.842 33.2817C25.084 32.8631 25.1259 32.596 25.1076 32.1157C25.6897 32.2367 26.8508 32.5519 27.3725 32.2707L27.4234 32.1216Z" fill="#FACFA9"/>
<path d="M25.1093 32.1133C25.6914 32.2342 26.8525 32.5495 27.3742 32.2683L27.4245 32.1209C27.709 32.2747 27.7593 32.2589 27.8682 32.5553C27.8942 32.8536 27.8534 33.0397 27.7753 33.3291C27.5168 34.2878 27.8776 36.0566 27.6877 36.555C27.52 36.6159 27.3457 36.6574 27.1684 36.6789C27.1684 35.9157 27.0223 33.9496 26.7898 33.2874C26.1392 33.2768 25.492 33.281 24.8438 33.2792C25.0857 32.8606 25.1277 32.5935 25.1093 32.1133Z" fill="#434343"/>
<path d="M27.4313 32.1216L27.5496 31.9848C28.7882 30.5847 29.8749 29.5151 31.8381 29.4112C33.3914 29.329 35.0009 29.8221 36.1514 30.8847C36.7127 31.4042 37.4527 32.3682 37.471 33.1419C38.8226 33.0832 40.192 33.0832 41.5377 33.2206C42.3563 32.465 42.6119 31.3567 43.6198 30.5254L44.0623 30.5142L44.2001 30.8189C43.0898 32.1586 41.9937 33.1296 42.1647 35.0458C42.2274 35.7503 42.5255 36.4113 42.7266 37.0829C42.7799 37.259 42.7621 37.2003 42.7562 37.4199L42.92 37.532C44.3521 38.5335 45.4718 39.7916 47.4427 39.4693C48.0822 39.3642 48.9126 39.1329 49.4107 38.7114C49.9059 38.4291 50.327 38.0349 50.6399 37.5608C51.355 36.507 51.5999 35.1015 51.3497 33.8623C51.1166 32.7057 50.5216 31.7735 49.5326 31.1154C49.8041 31.1365 50.1513 31.214 50.4068 31.123C51.0356 31.4817 51.3171 32.0623 51.5798 32.7081C52.5309 32.4146 53.6566 32.4991 54.5539 32.1169C54.7154 32.5965 54.8142 32.8284 54.5586 33.3034C54.5362 33.3456 54.5089 33.385 54.4841 33.4261C53.6589 33.5388 52.8072 33.7043 51.9737 33.7032C52.2192 35.2366 52.0211 36.831 51.0811 38.1167C50.7481 38.5717 50.3743 38.9539 49.8319 39.1493L49.7863 39.3096C49.0883 39.9384 47.9284 40.1955 47.0062 40.2243C45.1134 40.283 43.7795 39.2221 42.4717 38.0087C42.186 37.2966 41.8802 36.6244 41.698 35.8759C41.5968 35.4614 41.6205 34.7605 41.4135 34.42C40.1494 34.3554 38.8794 34.2638 37.6148 34.2368C37.9283 34.9747 37.658 36.2616 37.3545 36.996C36.8334 38.2541 35.6592 39.3302 34.397 39.8268C32.7472 40.4726 31.1584 40.253 29.5726 39.5761C28.512 38.7149 27.8726 37.8566 27.1758 36.6872C27.3531 36.6658 27.5274 36.6242 27.6951 36.5633C28.0873 36.8892 29.6542 38.6134 29.8559 39.0073C30.27 39.1505 30.684 39.2938 31.1117 39.3748C32.442 39.6255 33.9427 39.4828 35.0748 38.6985C36.1573 37.9488 36.7902 36.7248 36.9907 35.4509C37.0902 34.8435 37.0668 34.2225 36.9219 33.6242C36.777 33.0259 36.5134 32.4622 36.1466 31.966C35.4073 30.968 34.2934 30.2694 33.0477 30.1086C31.6464 29.9278 30.2114 30.2964 29.1928 31.2886C28.8078 31.6637 28.4706 32.1392 28.0341 32.4527C27.9814 32.4903 27.9282 32.5267 27.875 32.5637C27.7661 32.2596 27.7158 32.2754 27.4313 32.1216Z" fill="#434343"/>
<path d="M27.8652 32.558C27.9185 32.521 27.9717 32.4846 28.0244 32.447C28.4609 32.1335 28.7981 31.658 29.1831 31.2829C30.2017 30.2907 31.6367 29.9221 33.038 30.1029C34.2837 30.2637 35.3975 30.9618 36.1369 31.9604C36.5037 32.4565 36.7673 33.0202 36.9122 33.6185C37.0571 34.2168 37.0805 34.8378 36.981 35.4452C36.7817 36.7191 36.1476 37.9431 35.0651 38.6928C33.9324 39.4771 32.4317 39.6198 31.102 39.3691C30.6726 39.2881 30.2579 39.1448 29.8462 39.0016C29.6445 38.6077 28.0776 36.8835 27.6854 36.5577C27.8753 36.0592 27.5145 34.2904 27.773 33.3317C27.8505 33.0423 27.8919 32.8556 27.8652 32.558Z" fill="#FACFA9"/>
<path d="M46.4799 29.4297C47.159 29.4949 47.8747 29.5183 48.5254 29.7232C49.1423 30.0467 49.8775 30.3508 50.3413 30.878L50.4004 31.1169C50.1449 31.2079 49.7977 31.1304 49.5262 31.1093C50.514 31.7674 51.1103 32.6996 51.3433 33.8562C51.593 35.096 51.3481 36.5015 50.6335 37.5546C50.3206 38.0288 49.8995 38.423 49.4043 38.7053C48.9063 39.1268 48.0758 39.3581 47.4364 39.4632C45.4655 39.7873 44.3457 38.5292 42.9137 37.5259L42.7498 37.4137C42.7558 37.1959 42.7735 37.2535 42.7203 37.0768C42.5192 36.4052 42.221 35.7424 42.1583 35.0397C41.9874 33.1253 43.0835 32.1543 44.1937 30.8128L44.0559 30.5081L43.6135 30.5193C44.5439 30.0238 45.4927 29.7843 46.4799 29.4297Z" fill="#FACFA9"/>
<path d="M46.4842 29.4297C47.1633 29.4949 47.879 29.5183 48.5297 29.7232C49.1466 30.0467 49.8819 30.3508 50.3456 30.878L50.4048 31.1169C50.1492 31.2079 49.802 31.1304 49.5305 31.1093C49.3745 30.9648 49.198 30.8439 49.0065 30.7506C47.394 29.9187 45.8442 30.288 44.1975 30.8169L44.0596 30.5122L43.6172 30.5234C44.5482 30.0238 45.497 29.7843 46.4842 29.4297Z" fill="#434343"/>
</svg>
