<svg width="80" height="80" viewBox="0 0 80 80" fill="none" xmlns="http://www.w3.org/2000/svg">
<path d="M23.572 60.2248C24.6947 59.9471 27.9307 57.8974 29.5695 57.267C31.0028 56.7152 32.7902 56.7487 34.1496 56.093L34.5606 56.4059C35.5212 56.0379 43.3913 56.0537 45.0307 56.1441C45.1675 56.2368 45.2151 56.2345 45.2738 56.3947L45.4112 56.0977C45.8512 56.1916 46.2884 56.2959 46.723 56.4106C47.1575 56.5252 47.5891 56.6501 48.0177 56.7851C48.4483 56.9209 48.8738 57.0662 49.2943 57.2212C49.7147 57.3762 50.1324 57.5417 50.5473 57.7178C50.9611 57.8935 51.3707 58.0788 51.7763 58.2737C52.1818 58.4685 52.5819 58.673 52.9765 58.8871C53.3715 59.1011 53.7614 59.3245 54.1462 59.5574C54.531 59.7902 54.9099 60.0319 55.2829 60.2823C55.7081 60.5911 56.1246 60.911 56.5325 61.242C56.9404 61.5731 57.3393 61.9145 57.7292 62.2663C58.1206 62.6185 58.5007 62.9808 58.8695 63.3534C59.2382 63.7259 59.5986 64.108 59.9505 64.4997C60.3005 64.8911 60.6397 65.2918 60.9681 65.7019C61.2965 66.112 61.614 66.5301 61.9205 66.9563C62.227 67.3828 62.5218 67.8174 62.8048 68.2599C63.0878 68.7025 63.3589 69.1525 63.6181 69.61C63.8958 70.106 64.335 70.7517 64.4677 71.2993C64.494 71.4009 64.4964 71.5072 64.4747 71.6098C64.4366 71.7566 64.4618 71.7108 64.3573 71.8505C63.8705 72.5167 62.3497 73.2551 61.624 73.6842C56.1573 76.9185 50.5038 79.1284 44.1528 79.7694C33.0609 80.8888 22.6918 77.9152 14.0508 70.8708C15.6949 67.7857 18.029 65.0145 20.5879 62.6531C21.3383 61.9605 23.1416 60.9779 23.572 60.2248Z" fill="#FFCC00"/>
<path d="M34.5625 56.4098C35.5231 56.0418 43.3932 56.0576 45.0326 56.148C45.1694 56.2407 45.217 56.2384 45.2757 56.3986C45.1418 57.0954 40.6281 63.8492 39.8489 64.513C39.8521 64.4815 39.8533 64.4497 39.8524 64.418C39.7849 63.7101 35.2695 57.0901 34.5625 56.4098Z" fill="#FACFA9"/>
<path d="M14.0549 70.8728C6.32934 64.24 0.923701 54.5965 0.14568 44.3502C-0.748017 32.5725 2.45449 22.5404 10.1866 13.6001C10.3964 13.3595 10.6091 13.1211 10.8248 12.8852C11.0405 12.6492 11.259 12.416 11.4801 12.1855C11.7017 11.9554 11.9258 11.7277 12.1525 11.5023C12.3791 11.2769 12.6085 11.0546 12.8406 10.8355C13.0732 10.6159 13.308 10.3991 13.5453 10.1851C13.7825 9.97103 14.0224 9.76011 14.2651 9.55232C14.5078 9.34375 14.7529 9.1385 15.0003 8.93658C15.2477 8.73466 15.4976 8.53567 15.7501 8.33962C16.0026 8.14396 16.2571 7.95084 16.5135 7.76027C16.7699 7.5697 17.0292 7.38284 17.2915 7.19971C17.5534 7.01618 17.817 6.83578 18.0824 6.65851C18.3478 6.48124 18.616 6.30711 18.8869 6.1361C19.157 5.96509 19.4293 5.79761 19.7037 5.63365C19.9781 5.46968 20.254 5.30885 20.5316 5.15115C20.8099 4.99462 21.09 4.84044 21.3719 4.68861C21.6537 4.53678 21.9371 4.38925 22.2221 4.24603C22.5075 4.10202 22.7946 3.96173 23.0835 3.82516C23.3724 3.68859 23.6629 3.55496 23.9549 3.42426C24.2469 3.29434 24.5405 3.16794 24.8357 3.04507C25.1308 2.92219 25.4274 2.80304 25.7253 2.6876C26.0232 2.5702 26.3224 2.45809 26.6231 2.35126C26.9237 2.24443 27.2257 2.13956 27.5291 2.03664C27.8321 1.93568 28.1364 1.83785 28.4422 1.74315C28.7479 1.64845 29.0546 1.55825 29.3623 1.47255C29.67 1.38607 29.9786 1.3035 30.2883 1.22485C30.5979 1.14619 30.9087 1.07106 31.2207 0.999448C31.5319 0.927836 31.8451 0.860137 32.1602 0.796352C32.4753 0.732567 32.7885 0.672501 33.0997 0.616151C33.4129 0.559801 33.7282 0.507362 34.0457 0.458839C34.3631 0.410315 34.6796 0.36551 34.9951 0.324422C35.3122 0.283333 35.6297 0.246157 35.9476 0.212894C36.2652 0.180024 36.5835 0.150088 36.9023 0.124848C37.2335 0.0982379 37.5649 0.0761299 37.8964 0.0585205C38.228 0.0409111 38.5598 0.027018 38.8917 0.0168437C39.2241 0.00745204 39.5568 0.00197364 39.8899 0.000408362C40.2231 -0.00115692 40.5558 0.00177762 40.8881 0.00921269C41.2197 0.0162564 41.5525 0.0274095 41.8864 0.0426709C42.2203 0.0579324 42.5516 0.0774983 42.8805 0.101369C43.2116 0.124848 43.5426 0.152632 43.8734 0.184721C44.2042 0.216809 44.5344 0.25281 44.864 0.292725C45.1936 0.331856 45.5228 0.376271 45.8516 0.425968C46.1804 0.475666 46.5083 0.528298 46.8352 0.583866C47.162 0.640216 47.4885 0.701067 47.8146 0.766417C48.1407 0.831767 48.4656 0.900639 48.7893 0.973033C49.1131 1.0466 49.436 1.12369 49.7582 1.2043C50.0803 1.28491 50.4013 1.37003 50.7212 1.45964C51.0414 1.54886 51.36 1.64219 51.6771 1.73963C51.9942 1.83707 52.3105 1.93822 52.626 2.0431C52.9411 2.14797 53.2543 2.25695 53.5655 2.37004C53.8767 2.48313 54.1875 2.60053 54.4979 2.72223C54.8076 2.84315 55.1154 2.96778 55.4216 3.09614C55.7277 3.22449 56.0322 3.35675 56.3352 3.49293C56.6382 3.62911 56.9392 3.76921 57.2383 3.91321C57.5374 4.05722 57.8351 4.20455 58.1314 4.35521C58.427 4.50586 58.7206 4.66063 59.0122 4.81951C59.3038 4.97838 59.5935 5.14058 59.8813 5.30611C60.169 5.47164 60.4545 5.64089 60.7379 5.81385C61.0214 5.98681 61.3026 6.16291 61.5817 6.34213C61.8612 6.52214 62.138 6.70567 62.412 6.89272C62.6861 7.07977 62.9583 7.27014 63.2288 7.46385C63.4985 7.65755 63.7655 7.85458 64.0297 8.05493C64.2939 8.25529 64.5562 8.45897 64.8165 8.66598C65.0761 8.87299 65.3331 9.08332 65.5875 9.29698C65.842 9.51064 66.0917 9.72743 66.3368 9.94735C73.9884 16.6031 79.2302 27.022 79.9043 37.135C80.5948 47.4823 77.606 58.0773 70.6855 65.9381C69.6873 67.0692 65.7009 71.2996 64.4772 71.6118C64.4988 71.5092 64.4964 71.4029 64.4701 71.3013C64.3374 70.7537 63.8982 70.108 63.6205 69.612C63.3617 69.1553 63.0906 68.7053 62.8072 68.262C62.5238 67.8186 62.229 67.384 61.9229 66.9583C61.6168 66.5313 61.2993 66.1132 60.9705 65.7039C60.6416 65.2946 60.3023 64.8935 59.9523 64.5006C59.6 64.1093 59.2396 63.7271 58.8713 63.3542C58.5029 62.9813 58.1228 62.6199 57.731 62.2701C57.3395 61.9179 56.9406 61.5765 56.5343 61.2458C56.128 60.9151 55.7114 60.5952 55.2847 60.2861C54.9113 60.0356 54.5324 59.794 54.148 59.5612C53.7636 59.3283 53.3737 59.1049 52.9783 58.8908C52.5833 58.6764 52.183 58.4719 51.7775 58.2774C51.3719 58.083 50.9625 57.8977 50.5491 57.7216C50.1353 57.5459 49.7177 57.3803 49.2961 57.225C48.8745 57.0696 48.4489 56.9243 48.0195 56.7889C47.5909 56.6539 47.1593 56.529 46.7248 56.4144C46.2903 56.2997 45.853 56.1954 45.413 56.1015L45.2756 56.3985C45.2169 56.2383 45.1693 56.2406 45.0325 56.1479C43.3931 56.0551 35.523 56.0416 34.5624 56.4097L34.1514 56.0968C32.7914 56.7501 31.0041 56.7167 29.5713 57.2708C27.9325 57.9012 24.6977 59.9509 23.5738 60.2286C23.1434 60.9828 21.3425 61.9643 20.5921 62.6557C18.0331 65.0165 15.6996 67.7877 14.0549 70.8728Z" fill="#D31888"/>
<path d="M58.8258 34.1758C58.9432 34.4106 59.009 34.5743 59.0231 34.8391C59.1317 36.9058 59.1335 56.0695 58.8822 56.7252C58.8581 56.7886 58.8234 56.849 58.7958 56.9107C58.5269 57.7283 56.0525 59.8749 55.2862 60.2852C54.9128 60.0347 54.5338 59.7931 54.1494 59.5603C53.765 59.3274 53.3751 59.104 52.9798 58.8899C52.5848 58.6755 52.1845 58.471 51.779 58.2766C51.3734 58.0821 50.964 57.8968 50.5506 57.7207C50.1368 57.545 49.7191 57.3795 49.2975 57.2241C48.8759 57.0687 48.4504 56.9234 48.021 56.788C47.5923 56.653 47.1608 56.5281 46.7262 56.4135C46.2917 56.2988 45.8545 56.1945 45.4145 56.1006C45.7633 54.9748 45.738 51.5809 45.4062 50.4656C49.0374 49.2089 52.6286 44.3335 53.5834 40.7218C53.874 39.6224 53.7596 38.1561 54.2675 37.1612C54.6785 37.0438 55.1524 37.005 55.547 36.8577C55.8793 36.7344 56.0167 36.4932 56.1382 36.1821L56.6597 36.313C57.6127 36.0083 58.2486 34.94 58.8258 34.1758Z" fill="black"/>
<path d="M34.492 10.2131C35.8843 9.264 37.2401 8.49447 38.9183 8.16987C42.8395 7.41267 46.5006 8.61833 49.7225 10.826C50.0161 11.0302 50.3044 11.2413 50.5874 11.4593C50.8704 11.6773 51.1478 11.9023 51.4195 12.1343C51.6915 12.3664 51.9577 12.6045 52.218 12.8487C52.4783 13.0929 52.7328 13.3441 52.9813 13.6024C53.2291 13.8595 53.4707 14.1224 53.7059 14.3913C53.9412 14.6601 54.1696 14.934 54.3912 15.213C54.6128 15.4936 54.8281 15.7791 55.0371 16.0694C55.2461 16.3598 55.4464 16.6554 55.6378 16.9564C55.8312 17.2577 56.0169 17.5629 56.195 17.872C56.3731 18.1812 56.5436 18.4942 56.7065 18.8112C56.8689 19.1294 57.0237 19.451 57.1709 19.7762C57.3181 20.1014 57.4569 20.4305 57.5872 20.7635C57.718 21.0957 57.8405 21.4311 57.9548 21.7696C58.0691 22.1081 58.1752 22.4491 58.2731 22.7927C58.3705 23.1363 58.4598 23.482 58.5408 23.8299C58.6219 24.1778 58.6939 24.5274 58.7569 24.8788C59.0675 26.5811 59.6019 33.0613 58.828 34.1707C58.2508 34.9338 57.6148 36.0032 56.6618 36.3061L56.1404 36.1752C56.4234 35.809 56.5238 35.4538 56.5814 34.9972C56.7088 33.9905 56.7429 32.4837 56.0283 31.6708C55.3548 30.9042 53.6208 31.0867 52.6672 31.0761C46.9386 31.0127 40.2964 28.4253 36.4744 24.07C35.3587 22.7974 34.2918 20.4935 33.3682 19.5825C33.3453 19.5602 33.3218 19.5391 33.2989 19.5173C33.4651 21.5647 28.0495 27.566 26.9115 29.5623C26.4611 30.3518 26.2163 31.1642 26.0254 32.0476C25.9842 32.0288 25.944 32.0078 25.905 31.9848C25.6984 31.8468 25.568 31.6784 25.322 31.5815C24.7806 31.369 23.9996 31.1665 23.4553 31.436C22.1858 32.0646 22.5804 33.69 22.2492 34.7365C22.231 34.7952 22.2105 34.8487 22.1905 34.9044C21.6703 34.949 20.9457 35.0688 20.4947 35.3241L20.4577 35.4304C20.3714 35.6786 20.3051 35.88 20.1289 36.0825C20.5059 35.1328 20.3996 33.7158 20.4031 32.6915C20.4201 27.7709 20.0367 23.1155 22.1776 18.5048C23.7835 15.0469 26.5169 11.5385 30.2062 10.2284C31.5872 9.73769 33.128 9.57275 34.492 10.2131Z" fill="black"/>
<path d="M33.2944 19.5234C33.3173 19.5452 33.3408 19.5663 33.3637 19.5886C34.2873 20.4996 35.3531 22.8035 36.4699 24.076C40.2919 28.4314 46.9341 31.0188 52.6627 31.0822C53.6169 31.0928 55.3503 30.9102 56.0238 31.6768C56.7384 32.4898 56.7043 33.9966 56.5769 35.0033C56.5182 35.4599 56.4189 35.815 56.1359 36.1813C56.0156 36.4924 55.877 36.7337 55.5446 36.8569C55.1501 37.0043 54.6791 37.0454 54.2652 37.1604C53.7555 38.1553 53.8717 39.6216 53.5811 40.721C52.6275 44.335 49.0351 49.2105 45.4039 50.4649C45.7357 51.5801 45.7609 54.9734 45.4121 56.0999L45.2748 56.3969C45.216 56.2366 45.1685 56.239 45.0316 56.1462C43.3922 56.0535 35.5222 56.04 34.5616 56.408L34.1505 56.0952C32.7906 56.7485 31.0032 56.715 29.5705 57.2691C27.9316 57.8995 24.6968 59.9493 23.573 60.2269C23.2054 59.4826 20.9506 57.6301 20.189 57.1265C20.5249 56.2912 20.4779 36.9344 20.125 36.0892C20.3012 35.8867 20.3675 35.6853 20.4538 35.437L20.4908 35.3308C20.9418 35.0754 21.6652 34.9557 22.1866 34.9111C22.206 34.8524 22.2265 34.7996 22.2453 34.7432C22.5765 33.6966 22.1819 32.0713 23.4514 31.4426C23.9957 31.1732 24.7767 31.3757 25.3181 31.5882C25.5641 31.6851 25.6944 31.8535 25.9011 31.9915C25.9401 32.0145 25.9803 32.0354 26.0215 32.0543C26.2123 31.1709 26.4572 30.3585 26.9076 29.569C28.045 27.5721 33.4606 21.5708 33.2944 19.5234Z" fill="#FACFA9"/>
<path d="M20.1571 36.2014C20.1508 36.1639 20.1521 36.1257 20.1609 36.0888C20.1697 36.0519 20.1858 36.0171 20.2082 35.9865C20.3256 35.8169 20.3844 35.642 20.4572 35.4353C20.4692 35.4002 20.4882 35.3677 20.5129 35.3399C20.5375 35.3121 20.5675 35.2895 20.601 35.2733C20.998 35.0826 21.5511 34.9798 22.0062 34.9276C22.0603 34.9214 22.115 34.931 22.1638 34.9553C22.2126 34.9796 22.2533 35.0175 22.2809 35.0644C22.7219 35.8139 23.1177 36.4144 24.0378 36.6739C24.2506 36.7323 24.4662 36.7799 24.6837 36.8165C24.7416 36.8269 24.7947 36.8551 24.8357 36.8972C24.8766 36.9393 24.9034 36.9932 24.9121 37.0513C25.6326 41.7659 27.4535 46.0145 31.4058 48.9599C32.138 49.5058 33.4293 49.9731 34.0071 50.6446C34.0299 50.6706 34.0472 50.7009 34.0581 50.7338C34.431 51.8349 34.5508 54.7839 34.1938 55.9761C34.1825 56.0138 34.1632 56.0486 34.1373 56.0781C34.1113 56.1077 34.0793 56.1314 34.0435 56.1475C32.6982 56.7474 30.9684 56.7309 29.5732 57.2674C28.0301 57.8609 25.0695 59.714 23.793 60.1595C23.735 60.1792 23.6722 60.1795 23.614 60.1603C23.5558 60.1411 23.5055 60.1036 23.4706 60.0532C22.9239 59.2837 21.0696 57.8227 20.2534 57.2528C20.2103 57.2229 20.1765 57.1815 20.1557 57.1334C20.135 57.0852 20.1281 57.0322 20.136 56.9804C20.4307 54.9583 20.4666 37.9347 20.1571 36.2014Z" fill="black"/>
</svg>
