<svg width="80" height="80" viewBox="0 0 80 80" fill="none" xmlns="http://www.w3.org/2000/svg">
<g filter="url(#filter0_d_138_6173)">
<path d="M31.5524 55.5635C32.3602 55.4646 33.1533 55.3609 33.9693 55.3868C33.9728 55.7402 33.9153 56.3662 34.1679 56.643C35.4069 58.0017 38.2097 58.1743 39.9028 58.1384C41.4484 58.1077 44.4816 57.825 45.586 56.5612C45.8363 56.275 45.9279 55.9234 46.0026 55.56C46.9444 55.4775 47.8916 55.4799 48.833 55.5671C55.9362 57.3981 62.4806 63.6861 66.8168 69.3652C58.457 76.7622 48.6256 80.6091 37.4107 79.9219C28.6732 79.3865 19.605 75.7169 13.2227 69.6455C17.2351 63.573 24.4193 57.4434 31.5524 55.5635Z" fill="#26306F"/>
<path d="M31.556 55.5635C32.3638 55.4646 33.1569 55.3609 33.9729 55.3868C33.9764 55.7402 33.9188 56.3662 34.1715 56.643C35.4104 58.0017 38.2133 58.1743 39.9064 58.1384C41.452 58.1077 44.4851 57.825 45.5896 56.5612C45.8399 56.275 45.9315 55.9234 46.0061 55.56C46.9479 55.4775 47.8952 55.4799 48.8366 55.5671C48.8366 55.7596 48.8295 55.9522 48.816 56.1442C48.722 57.4452 48.0006 58.5589 47.0236 59.3881C44.5169 61.5082 40.7647 61.7202 37.6323 61.4228C35.7153 61.2409 33.7614 60.6184 32.5036 59.0712C31.6383 58.0088 31.4009 56.9057 31.556 55.5635Z" fill="#060403"/>
<path d="M13.2276 69.6445C12.223 68.7548 11.2635 67.818 10.349 66.8341C10.1296 66.5953 9.91422 66.3539 9.70273 66.1097C9.49124 65.8655 9.28151 65.6185 9.07355 65.3688C8.86676 65.1191 8.6631 64.8672 8.46257 64.6132C8.26205 64.3592 8.06485 64.1022 7.87098 63.8423C7.67516 63.5827 7.48423 63.3211 7.29819 63.0572C7.11216 62.7934 6.9277 62.527 6.7448 62.258C6.56386 61.9895 6.38604 61.7186 6.21137 61.4453C6.03669 61.172 5.86554 60.8972 5.69791 60.6208C5.53068 60.346 5.36638 60.0668 5.20502 59.7833C5.04366 59.4999 4.887 59.2166 4.73504 58.9335C4.58112 58.6485 4.43073 58.3614 4.28387 58.0725C4.137 57.7835 3.99365 57.4928 3.85383 57.2003C3.7148 56.9074 3.5789 56.6129 3.44613 56.3169C3.31336 56.0208 3.18451 55.7234 3.05957 55.4246C2.93464 55.1258 2.81322 54.8255 2.69533 54.5236C2.57745 54.2216 2.46348 53.9181 2.35343 53.6131C2.24298 53.3088 2.13645 53.0027 2.03384 52.6949C1.93122 52.3871 1.83331 52.0783 1.7401 51.7685C1.64493 51.4587 1.55368 51.1478 1.46634 50.8356C1.379 50.5235 1.29538 50.2094 1.21549 49.8934C1.13716 49.5793 1.06118 49.2652 0.987548 48.9511C0.913918 48.637 0.845772 48.3201 0.783108 48.0005C0.719269 47.6825 0.65895 47.3639 0.602161 47.0447C0.545372 46.7255 0.492895 46.4055 0.444722 46.0847C0.396158 45.7643 0.351704 45.4434 0.311364 45.1218C0.271024 44.8003 0.234405 44.4781 0.201507 44.1554C0.168608 43.8326 0.139824 43.5097 0.11515 43.1866C0.0904759 42.8634 0.0695187 42.5399 0.0522861 42.216C0.0358368 41.8921 0.0231068 41.5682 0.0140988 41.2443C0.00509087 40.9203 0.00039165 40.596 0 40.2713C0 39.9474 0.0031352 39.6233 0.0094016 39.299C0.015668 38.9747 0.0266376 38.6506 0.0423036 38.3267C0.0591445 37.9941 0.0798982 37.6616 0.104572 37.329C0.129246 36.9965 0.158031 36.6645 0.190929 36.3331C0.223828 36.0014 0.260839 35.6702 0.301963 35.3396C0.343086 35.009 0.388128 34.6788 0.437085 34.349C0.486433 34.02 0.539695 33.6912 0.596876 33.3626C0.654057 33.0339 0.71535 32.7063 0.780756 32.3796C0.84577 32.0533 0.914898 31.7275 0.988136 31.402C1.06137 31.0765 1.1397 30.7524 1.22313 30.4297C1.3042 30.1069 1.38958 29.785 1.47926 29.4638C1.56895 29.1426 1.66197 28.8227 1.75831 28.5038C1.85544 28.185 1.95649 27.8676 2.06145 27.5515C2.16641 27.2355 2.27509 26.9214 2.3875 26.6092C2.50029 26.2951 2.61779 25.983 2.73998 25.6728C2.86218 25.3627 2.98614 25.0535 3.11186 24.7453C3.23993 24.4378 3.37172 24.1318 3.50723 23.8271C3.64274 23.5224 3.78197 23.2199 3.92492 22.9196C4.06748 22.6184 4.21396 22.3192 4.36435 22.022C4.51474 21.7248 4.66866 21.4303 4.8261 21.1386C4.98276 20.8453 5.14393 20.5538 5.30959 20.2641C5.47526 19.9743 5.64348 19.6869 5.81424 19.4019C5.98578 19.1168 6.16085 18.8335 6.33944 18.552C6.51803 18.2705 6.70015 17.9918 6.88579 17.7157C7.07143 17.4409 7.2604 17.1661 7.4527 16.8912C7.645 16.6164 7.84082 16.3471 8.04017 16.0832C8.23913 15.8158 8.44142 15.5512 8.64704 15.2893C8.85266 15.0274 9.06121 14.7681 9.2727 14.5113C9.48419 14.2546 9.6996 13.9994 9.91892 13.7457C10.1382 13.4921 10.3595 13.2432 10.5828 12.999C10.8072 12.7528 11.0343 12.5096 11.2642 12.2693C11.4941 12.029 11.7217 11.7916 11.9469 11.5573C12.1819 11.3217 12.4208 11.0898 12.6636 10.8617C12.9064 10.6336 13.151 10.4078 13.3974 10.1844C13.6359 9.96968 13.8769 9.75766 14.1205 9.5484C14.3641 9.33913 14.6105 9.1332 14.8596 8.9306C15.1083 8.72683 15.3593 8.52659 15.6127 8.32989C15.8661 8.13319 16.1223 7.93942 16.3811 7.74861C16.6392 7.5578 16.8997 7.37032 17.1625 7.18618C17.4253 7.00204 17.6902 6.82084 17.9573 6.64259C18.2244 6.46473 18.4939 6.29002 18.7657 6.11844C19.0375 5.94686 19.3117 5.77882 19.5882 5.61431C19.8623 5.44941 20.14 5.28804 20.4212 5.13021C20.7024 4.97237 20.9836 4.81788 21.2648 4.66672C21.548 4.51556 21.8331 4.36793 22.1202 4.22384C22.4073 4.07975 22.6955 3.93899 22.9849 3.80157C23.2752 3.66415 23.5669 3.53047 23.8603 3.40051C24.1536 3.27055 24.4476 3.14295 24.7421 3.0177C25.0382 2.89481 25.336 2.77545 25.6356 2.65963C25.9352 2.5438 26.236 2.43191 26.538 2.32394C26.8399 2.21557 27.1433 2.11094 27.448 2.01003C27.7527 1.90913 28.0584 1.81097 28.365 1.71557C28.6721 1.62251 28.9801 1.5328 29.2891 1.44642C29.5981 1.36005 29.9083 1.27779 30.2197 1.19966C30.531 1.12113 30.843 1.04654 31.1555 0.975863C31.4681 0.905191 31.7814 0.838053 32.0955 0.774449C32.4088 0.711629 32.7241 0.652735 33.0413 0.597768C33.3586 0.542801 33.6752 0.491171 33.9913 0.442878C34.3081 0.395371 34.6257 0.351398 34.9441 0.310957C35.2626 0.270517 35.5814 0.234199 35.9006 0.202004C36.2198 0.169809 36.5393 0.141343 36.8593 0.116608C37.1793 0.0918726 37.4995 0.0710638 37.8198 0.054181C38.1402 0.0376908 38.4608 0.024734 38.7815 0.0153111C39.1023 0.00588812 39.4231 0.000785246 39.7438 0C40.0646 0 40.3853 0.00274743 40.7061 0.00824415C41.0269 0.0137409 41.3474 0.0241453 41.6678 0.0394576C41.9972 0.0547699 42.3262 0.0744011 42.6548 0.0983511C42.9833 0.122301 43.3115 0.149981 43.6394 0.181391C43.968 0.213194 44.2956 0.248923 44.6222 0.288578C44.9488 0.328232 45.2755 0.372011 45.6021 0.419911C45.928 0.467811 46.2532 0.519636 46.5779 0.575388C46.9026 0.631141 47.2267 0.690034 47.5502 0.752069C47.8733 0.816459 48.1958 0.884382 48.5177 0.95584C48.8397 1.0273 49.1603 1.10327 49.4795 1.18376C49.799 1.26228 50.1178 1.34591 50.4359 1.43464C50.7539 1.52338 51.0703 1.61505 51.3852 1.70968C51.7005 1.80508 52.0138 1.90461 52.3252 2.00827C52.6365 2.11192 52.9481 2.21911 53.2598 2.32982C53.57 2.44094 53.8788 2.55578 54.1863 2.67435C54.4937 2.79292 54.7998 2.91542 55.1045 3.04185C55.4088 3.16827 55.7116 3.29823 56.0128 3.43172C56.3139 3.56521 56.6135 3.70263 56.9116 3.84398C57.2096 3.98532 57.5057 4.1302 57.7998 4.27861C58.094 4.42702 58.3863 4.57916 58.6769 4.73503C58.9679 4.89208 59.2566 5.05129 59.5429 5.21266C59.8292 5.37403 60.1137 5.5405 60.3965 5.71208C60.6792 5.88208 60.9597 6.05562 61.2377 6.23269C61.5158 6.40977 61.7917 6.58998 62.0655 6.77333C62.3397 6.95708 62.6113 7.14417 62.8803 7.33459C63.1494 7.52501 63.4161 7.71877 63.6805 7.91587C63.9448 8.11218 64.2068 8.31242 64.4665 8.51658C64.7262 8.72075 64.985 8.92943 65.2431 9.14262C65.4973 9.35307 65.749 9.56606 65.9981 9.78161C66.2471 9.99716 66.4937 10.2161 66.7377 10.4383C66.9813 10.6601 67.2221 10.8853 67.4603 11.1138C67.6984 11.3423 67.9334 11.5733 68.1652 11.807C68.3979 12.0425 68.6274 12.2795 68.8538 12.5178C69.0801 12.7561 69.3038 12.9986 69.5247 13.2451C69.7483 13.4937 69.969 13.7449 70.1867 13.999C70.4045 14.253 70.6199 14.5098 70.833 14.7693C71.0445 15.0284 71.2526 15.2903 71.4575 15.5549C71.6623 15.8196 71.864 16.0865 72.0625 16.3559C72.2607 16.6248 72.4566 16.8967 72.65 17.1716C72.8435 17.4464 73.0317 17.723 73.2146 18.0014C73.3991 18.2805 73.5806 18.5616 73.7592 18.8447C73.9378 19.1278 74.1121 19.4134 74.282 19.7016C74.4528 19.9898 74.62 20.2796 74.7837 20.5709C74.9474 20.8622 75.1076 21.1567 75.2643 21.4543C75.4209 21.7499 75.5739 22.0477 75.7231 22.3477C75.8723 22.6477 76.0178 22.949 76.1596 23.2517C76.3018 23.5548 76.4388 23.8597 76.5708 24.1663C76.7028 24.473 76.8334 24.7812 76.9627 25.091C77.0896 25.4007 77.2125 25.7121 77.3316 26.025C77.4507 26.3379 77.5658 26.652 77.677 26.9673C77.7883 27.2814 77.8956 27.5985 77.999 27.9184C78.1024 28.2384 78.202 28.558 78.298 28.8772C78.394 29.1984 78.4856 29.5203 78.5729 29.8431C78.6603 30.1658 78.7441 30.4899 78.8244 30.8154C78.9027 31.1405 78.9785 31.4668 79.0517 31.7942C79.125 32.1217 79.1927 32.4495 79.255 32.7777C79.3184 33.1064 79.3772 33.4358 79.4312 33.766C79.4853 34.0962 79.5368 34.427 79.5857 34.7583C79.6335 35.0901 79.6768 35.4221 79.7156 35.7542C79.7544 36.0864 79.7896 36.4201 79.8213 36.7554C79.8523 37.0895 79.8793 37.4233 79.9024 37.7566C79.9255 38.0899 79.9451 38.4237 79.9611 38.7578C79.9752 39.0923 79.9856 39.426 79.9923 39.759C79.9989 40.0919 80.0013 40.4266 79.9993 40.7631C79.9993 41.098 79.9933 41.4329 79.9811 41.7678C79.969 42.1027 79.9549 42.4365 79.9388 42.769C79.3578 52.9917 74.3907 62.5843 66.8193 69.3612C62.4832 63.6821 55.9387 57.394 48.8356 55.563C47.8942 55.4759 46.9469 55.4735 46.0051 55.556C45.9305 55.9199 45.8389 56.2715 45.5886 56.5571C44.4842 57.821 41.451 58.1037 39.9054 58.1343C38.2123 58.1673 35.4094 57.9977 34.1705 56.639C33.9178 56.3622 33.9754 55.7391 33.9719 55.3828C33.1559 55.3569 32.3628 55.4606 31.555 55.5595C24.4237 57.4429 17.2394 63.5725 13.2276 69.6445Z" fill="#FFD503"/>
<path d="M22.4215 31.2858C22.0373 28.4801 22.0879 25.1933 22.3146 22.3688C22.6407 18.3051 24.2786 15.0766 27.3875 12.4558C31.424 9.05412 36.9445 7.84857 42.1278 8.33327C46.9022 8.78145 51.1003 10.8504 54.1628 14.5954C57.6072 18.8075 57.3434 25.8317 56.8599 31.0226C57.4156 32.3353 57.7558 33.8006 57.2124 35.1798C56.7154 36.436 55.5674 36.9414 54.9347 38.0162C54.4295 38.8772 54.302 40.0774 53.9254 41.0197C52.3569 44.932 49.604 47.8414 45.9575 49.8879L45.9376 51.2566C45.9323 52.6317 45.7866 54.2125 46.0104 55.5605C45.9358 55.9245 45.8441 56.2761 45.5939 56.5617C44.4894 57.8256 41.4563 58.1082 39.9107 58.1389C38.2176 58.1719 35.4147 58.0022 34.1757 56.6436C33.9231 56.3668 33.9807 55.7437 33.9772 55.3874L34.0389 49.8414C28.771 47.0598 26.5192 43.5898 24.6798 38.035C23.8291 37.505 23.1483 36.8571 22.6571 35.9737C21.7929 34.4337 21.9527 32.9136 22.4215 31.2858Z" fill="#FACFA9"/>
<path d="M34.1211 49.8027C38.0813 51.3446 41.9521 51.2545 45.9487 49.8864L45.9287 51.255C45.3618 51.6467 44.7973 52.0277 44.1663 52.3151C40.9423 53.7928 37.3516 52.9865 34.1828 51.7816C34.1082 51.1337 34.1311 50.4565 34.1211 49.8027Z" fill="#E09957"/>
<path d="M22.4198 31.2858C22.0356 28.4801 22.0861 25.1933 22.3129 22.3688C22.6389 18.3051 24.2768 15.0766 27.3857 12.4558C31.4222 9.05412 36.9427 7.84857 42.126 8.33327C46.9004 8.78145 51.0985 10.8504 54.161 14.5954C57.6054 18.8075 57.3416 25.8317 56.8581 31.0226C56.5056 30.5367 56.1608 30.0361 55.7337 29.6091C55.4059 31.2305 55.3501 33.8854 54.4195 35.2099L54.067 35.4266C53.691 35.3253 53.6347 35.2741 53.3674 35.0144C53.0589 33.7187 53.2129 32.1245 53.2099 30.7923C53.2029 27.1904 52.492 22.9365 49.1563 20.8723C47.5073 19.8522 45.3624 19.5236 43.4825 19.98C41.9451 20.3528 40.8283 21.2474 39.7468 22.3593C38.2082 20.7663 36.7201 19.8269 34.4501 19.768C32.5332 19.7209 30.8136 20.1803 29.4031 21.5301C27.1413 23.6933 26.4322 26.9483 26.3923 29.966C26.3764 31.1822 26.7765 34.2234 26.0674 35.1575C25.7343 35.2505 25.7349 35.2258 25.4171 35.0791C24.5588 33.8277 24.6968 31.0072 24.1899 29.4142C23.4772 29.9088 22.8745 30.546 22.4198 31.2858Z" fill="#070707"/>
</g>
<defs>
<filter id="filter0_d_138_6173" x="0" y="0" width="80" height="80" filterUnits="userSpaceOnUse" color-interpolation-filters="sRGB">
<feFlood flood-opacity="0" result="BackgroundImageFix"/>
<feColorMatrix in="SourceAlpha" type="matrix" values="0 0 0 0 0 0 0 0 0 0 0 0 0 0 0 0 0 0 127 0" result="hardAlpha"/>
<feOffset/>
<feComposite in2="hardAlpha" operator="out"/>
<feColorMatrix type="matrix" values="0 0 0 0 1 0 0 0 0 0.835294 0 0 0 0 0.0117647 0 0 0 1 0"/>
<feBlend mode="normal" in2="BackgroundImageFix" result="effect1_dropShadow_138_6173"/>
<feBlend mode="normal" in="SourceGraphic" in2="effect1_dropShadow_138_6173" result="shape"/>
</filter>
</defs>
</svg>
