<svg width="80" height="80" viewBox="0 0 80 80" fill="none" xmlns="http://www.w3.org/2000/svg">
<path d="M46.5116 56.7988C52.1005 57.8036 57.9552 60.726 62.0252 64.6468C63.6861 66.2459 65.1129 68.0989 66.5433 69.8954C59.2063 76.7188 48.8754 80.2204 38.881 79.9893C38.3972 79.975 37.9137 79.9517 37.4306 79.9195C36.9475 79.8873 36.4645 79.8463 35.9814 79.7966C35.5003 79.7473 35.0199 79.6891 34.5404 79.622C34.0609 79.5548 33.5829 79.479 33.1065 79.3944C32.6301 79.3102 32.1555 79.2172 31.6826 79.1155C31.2097 79.0138 30.7381 78.9038 30.2676 78.7854C29.799 78.6667 29.3325 78.5396 28.8678 78.4041C28.4032 78.2687 27.9432 78.1239 27.4876 77.9699C27.0289 77.8181 26.5731 77.6576 26.1203 77.4884C25.6675 77.3192 25.2178 77.1422 24.7713 76.9575C24.3248 76.7724 23.8822 76.5783 23.4435 76.3753C23.0049 76.1724 22.5695 75.9634 22.1376 75.7484C21.7052 75.531 21.2781 75.3063 20.8564 75.0742C20.4346 74.8422 20.0162 74.6043 19.6011 74.3605C19.1872 74.1125 18.7778 73.8576 18.373 73.5956C17.9681 73.3336 17.5682 73.0633 17.1731 72.7846C15.7711 71.8177 14.382 70.8455 13.1992 69.6183C13.4744 69.1813 13.7644 68.7527 14.0695 68.3324C18.4231 62.3997 26.161 58.0394 33.4479 56.9222C33.4802 57.0495 33.5355 57.17 33.6112 57.2779C34.531 58.6373 36.2143 59.3061 37.785 59.592C40.1109 60.0164 43.3272 59.7567 45.3041 58.3695C45.8519 57.9841 46.4002 57.4724 46.5116 56.7988Z" fill="#62328A"/>
<path d="M13.2001 69.6182C12.0498 68.7339 11.0262 67.5655 10.0475 66.5019C9.71378 66.141 9.38714 65.774 9.06758 65.4011C8.74801 65.0281 8.43592 64.6489 8.13129 64.2635C7.82706 63.8786 7.53049 63.4877 7.24158 63.0911C6.95268 62.6945 6.67164 62.2924 6.39845 61.8849C6.12567 61.4781 5.86074 61.0656 5.60367 60.6472C5.34661 60.2289 5.09819 59.8064 4.85842 59.3799C4.61826 58.953 4.38694 58.5214 4.16446 58.0852C3.94198 57.649 3.72776 57.2087 3.5218 56.7643C3.31583 56.3203 3.1193 55.872 2.9322 55.4195C2.7451 54.967 2.56645 54.5116 2.39625 54.0532C2.22644 53.5945 2.06568 53.1325 1.91395 52.6671C1.76223 52.2018 1.62014 51.7341 1.48767 51.2641C1.35442 50.793 1.2308 50.3199 1.11682 49.8449C1.00283 49.3698 0.898072 48.8925 0.802557 48.4128C0.707042 47.9339 0.621157 47.453 0.544902 46.9702C0.468647 46.4874 0.402023 46.0035 0.345028 45.5183C0.301005 45.183 0.261698 44.8475 0.227108 44.5118C0.192518 44.1761 0.161073 43.8398 0.132772 43.5029C0.10565 43.1664 0.0824598 42.8296 0.0631995 42.4923C0.0439392 42.1551 0.0293945 41.8176 0.0195679 41.48C0.00895507 41.1423 0.00266736 40.8047 0.000702029 40.467C-0.00126331 40.1294 0.000897699 39.7915 0.00718677 39.4535C0.0138689 39.1158 0.0244822 38.7784 0.0390257 38.4411C0.0535692 38.1039 0.0732225 37.7666 0.0979857 37.4294C0.121177 37.0925 0.148691 36.7558 0.180529 36.4193C0.212368 36.0829 0.248137 35.747 0.287837 35.4116C0.327144 35.0763 0.371364 34.7414 0.420497 34.4068C0.469631 34.0723 0.522104 33.7387 0.577919 33.4061C0.634521 33.0731 0.695447 32.7407 0.760696 32.4089C0.825945 32.0771 0.895126 31.7472 0.968237 31.4193C1.04135 31.0898 1.11858 30.7599 1.19995 30.4296C1.28131 30.0993 1.367 29.7724 1.45701 29.4487C1.54663 29.1227 1.64018 28.7978 1.73766 28.4742C1.83514 28.1505 1.93695 27.8282 2.04308 27.5072C2.1492 27.1859 2.25907 26.8659 2.37266 26.5472C2.48626 26.2286 2.60418 25.9115 2.72642 25.596C2.84788 25.2805 2.97347 24.9663 3.10318 24.6535C3.23289 24.3407 3.36634 24.0302 3.50352 23.7221C3.64109 23.4116 3.7822 23.1038 3.92685 22.7988C4.0715 22.4937 4.22028 22.1895 4.37318 21.886C4.52608 21.584 4.68331 21.2836 4.84486 20.9848C5.00641 20.686 5.17032 20.3895 5.33659 20.0953C5.50403 19.8007 5.67502 19.5083 5.84954 19.218C6.02406 18.9277 6.20251 18.6395 6.3849 18.3535C6.56649 18.0679 6.75202 17.784 6.94148 17.5018C7.13094 17.2197 7.32334 16.9406 7.5187 16.6647C7.71523 16.3876 7.91471 16.113 8.11714 15.8409C8.31957 15.5689 8.52573 15.2995 8.73563 15.0329C15.0591 7.05746 24.6996 1.49969 34.9186 0.288817C45.6576 -0.98318 55.9903 1.97705 64.4847 8.56291C73.1595 15.2896 78.4624 25.1053 79.7471 35.8902C80.9157 45.6976 77.9978 56.6554 71.7539 64.4108C70.2327 66.3011 68.4645 68.3892 66.5501 69.8964C65.1197 68.0999 63.6929 66.2469 62.032 64.6478C57.9637 60.727 52.1072 57.8046 46.5184 56.7998C46.407 57.4734 45.8586 57.9851 45.3127 58.3716C43.3328 59.7618 40.1195 60.0214 37.7935 59.5941C36.2228 59.3083 34.5395 58.6394 33.6197 57.2801C33.5441 57.1722 33.4888 57.0517 33.4564 56.9244C26.1695 58.0404 18.4316 62.4007 14.078 68.3345C13.7698 68.7529 13.4772 69.1808 13.2001 69.6182Z" fill="#D7C1D6"/>
<path d="M23.0702 29.9242C21.8067 25.4522 21.7908 19.9415 24.161 15.8444C26.155 12.398 29.2463 10.304 33.0975 9.29576C37.4541 8.15533 43.8188 7.66575 47.8258 9.96698C49.2844 10.8059 50.0238 12.2071 51.1688 13.3533C51.9005 14.0857 52.8409 14.6923 53.6451 15.3548C53.888 15.5589 54.1225 15.7724 54.3485 15.9951C54.5745 16.2179 54.7907 16.4488 54.9971 16.6879C55.2046 16.927 55.4025 17.174 55.5908 17.429C55.7791 17.684 55.9569 17.9453 56.1244 18.2131C56.291 18.4813 56.4483 18.7557 56.5961 19.0363C56.7439 19.3169 56.8781 19.6025 56.9988 19.8932C57.1218 20.1843 57.233 20.4794 57.3325 20.7787C57.4319 21.0779 57.5194 21.3808 57.5948 21.6874C58.3401 24.6796 57.8625 27.6934 57.0701 30.617C56.6226 32.2674 55.5808 33.905 54.7707 35.4139C54.7636 32.4216 54.4098 29.3887 53.368 26.5652C52.3969 23.9304 50.8327 21.95 48.229 20.7629C41.2564 24.1575 35.542 24.5347 28.0594 22.7684C26.3661 27.2952 25.4433 31.4425 25.7835 36.2988C24.6733 34.2822 23.5731 32.176 23.0702 29.9242Z" fill="#070707"/>
<path d="M48.2283 20.7578C50.8331 21.9448 52.3962 23.9253 53.3672 26.5601C54.4091 29.3858 54.7628 32.4188 54.7699 35.4088C55.5794 33.8998 56.6213 32.2652 57.0693 30.6119C58.0917 31.7762 58.2963 33.2961 58.1961 34.7998C58.0917 36.36 57.5263 38.1815 56.2946 39.2457C55.9249 39.5647 55.4739 39.7906 55.0358 40.0025C53.0406 45.0131 51.0761 48.3814 46.3386 51.3265C46.3581 52.3342 46.4212 53.364 46.3451 54.3688C46.3451 55.0412 46.2095 56.2078 46.5137 56.7934C46.4023 57.467 45.854 57.9787 45.308 58.3652C43.3281 59.7554 40.1148 60.0151 37.7888 59.5878C36.2181 59.3019 34.5348 58.633 33.615 57.2737C33.5394 57.1658 33.4841 57.0453 33.4517 56.918C33.7153 55.2374 33.5107 53.2348 33.5696 51.5168C33.3928 50.93 29.9731 48.2335 29.1724 47.3795C27.3028 45.3856 26.1507 42.3852 25.1218 39.8983C25.047 39.8867 24.9721 39.8739 24.8966 39.8674C24.1343 39.8017 23.8011 39.7138 23.2457 39.1648C22.0141 37.9545 21.5235 36.0101 21.5436 34.3394C21.5607 32.877 21.9787 30.9664 23.0765 29.9179C23.5794 32.1697 24.6796 34.2759 25.7887 36.2901C25.4485 31.4356 26.3712 27.2866 28.0645 22.7598C35.5413 24.5296 41.2557 24.1523 48.2283 20.7578Z" fill="#EFB589"/>
<path d="M33.5615 51.5234C34.5048 51.8366 35.4093 52.2913 36.3668 52.5556C39.6143 53.4527 43.179 52.9299 46.2078 51.5549C46.2385 52.4822 46.2078 53.4579 46.3387 54.3754C46.3387 55.0478 46.2031 56.2144 46.5073 56.8C46.3959 57.4736 45.8476 57.9853 45.3016 58.3719C43.3217 59.762 40.1084 60.0217 37.7824 59.5944C36.2117 59.3085 34.5284 58.6396 33.6086 57.2803C33.533 57.1724 33.4777 57.0519 33.4453 56.9246C33.7106 55.244 33.5084 53.2414 33.5615 51.5234Z" fill="#E09957"/>
</svg>
