<svg width="81" height="80" viewBox="0 0 81 80" fill="none" xmlns="http://www.w3.org/2000/svg">
<path d="M13.8116 69.5252C12.5737 68.517 11.5127 67.2509 10.4846 66.0376C5.35623 59.9855 1.90899 52.4035 1.12204 44.4968C0.0250328 33.4858 2.80617 22.9778 9.93644 14.373C10.1408 14.1248 10.3481 13.8794 10.5583 13.6367C10.7686 13.3941 10.9816 13.1536 11.1973 12.9152C11.4135 12.6772 11.6325 12.4427 11.8546 12.2118C12.0766 11.9808 12.3016 11.7511 12.5295 11.5225C12.7571 11.2954 12.9875 11.0711 13.221 10.8496C13.4544 10.628 13.6902 10.4096 13.9283 10.1942C14.1665 9.97853 14.4076 9.76576 14.6516 9.55591C14.8957 9.34607 15.1423 9.13915 15.3914 8.93517C15.6402 8.73158 15.8915 8.53091 16.1454 8.33318C16.3992 8.13545 16.6547 7.94007 16.9117 7.74703C17.1706 7.55594 17.4316 7.36778 17.6945 7.18256C17.9574 6.99733 18.2231 6.81543 18.4915 6.63684C18.7591 6.45787 19.0291 6.28202 19.3014 6.1093C19.5737 5.93658 19.8488 5.76776 20.1267 5.60286C20.4017 5.43756 20.68 5.27559 20.9614 5.11693C21.2427 4.95828 21.5251 4.80314 21.8084 4.65152C22.0926 4.50029 22.3784 4.35219 22.6661 4.20722C22.9538 4.06224 23.2432 3.92097 23.5344 3.78342C23.8256 3.64548 24.1186 3.51145 24.4133 3.38132C24.708 3.25119 25.0042 3.12419 25.3016 3.00032C25.5995 2.87644 25.8988 2.75667 26.1994 2.641C26.5 2.52533 26.8028 2.41357 27.1078 2.30572C27.4116 2.19669 27.7163 2.09157 28.0221 1.99036C28.3278 1.88915 28.6349 1.79146 28.9434 1.69728C29.2519 1.6035 29.5614 1.51343 29.8718 1.42707C30.1823 1.34071 30.4939 1.25825 30.8067 1.17971C31.1211 1.10155 31.4355 1.02672 31.7499 0.955207C32.0643 0.883696 32.3787 0.816483 32.693 0.753569C33.0074 0.690264 33.3244 0.631648 33.6439 0.577721C33.9634 0.523795 34.2817 0.472018 34.5988 0.422389C34.9179 0.374324 35.2374 0.330167 35.5573 0.289917C35.8772 0.249668 36.1975 0.213522 36.5181 0.181479C47.7181 -0.858366 58.199 2.60349 66.8171 9.71535C74.3977 15.9726 79.799 25.8107 80.7068 35.5708C81.7272 46.5466 78.4827 57.1227 71.3802 65.5927C70.1617 67.0463 68.836 68.5375 67.3588 69.7374C60.9212 75.2807 52.965 79.1071 44.4153 79.8363C32.4561 80.8545 22.8783 77.0872 13.8116 69.5252Z" fill="#00B140"/>
<path d="M23.8637 29.6484C24.4491 31.0734 25.6321 34.9772 27.0569 35.5892C26.8105 35.5716 26.491 35.4766 26.2947 35.6372C25.6734 36.1466 25.6593 37.9103 25.5785 38.6905C25.2384 38.7415 24.8582 38.8177 24.5139 38.7896C23.8655 38.7374 23.1817 38.2192 22.7573 37.7486C21.8619 36.755 21.662 35.3008 21.7552 34.0177C21.8896 32.2058 22.4903 30.8442 23.8637 29.6484Z" fill="#FACFA9"/>
<path d="M28.4715 14.893C30.4351 11.5454 33.1814 9.01143 37.0348 8.01438C37.2965 7.9458 37.5588 7.88425 37.8235 7.82915C38.0882 7.77405 38.354 7.72482 38.6193 7.68203C38.8846 7.63924 39.154 7.60348 39.4222 7.57418C39.6904 7.54487 39.9598 7.52142 40.2292 7.50501C40.4985 7.48859 40.7685 7.47863 41.0385 7.4757C41.3085 7.47277 41.5785 7.4757 41.8484 7.48508C42.1184 7.49446 42.3878 7.51087 42.6572 7.53373C42.9266 7.55659 43.1942 7.58531 43.4618 7.62107C43.7294 7.65682 43.9965 7.69961 44.2617 7.74826C44.527 7.79691 44.7923 7.85201 45.0546 7.91356C45.3169 7.97511 45.5786 8.0431 45.838 8.11696C46.0974 8.19081 46.3555 8.2717 46.6108 8.35845C46.866 8.44521 47.1201 8.53782 47.3712 8.63688C47.6223 8.73594 47.8705 8.84028 48.1163 8.95165C48.3621 9.06302 48.6056 9.17966 48.8455 9.30334C49.0854 9.42702 49.3224 9.5548 49.5564 9.68903C53.3326 11.9059 56.2446 15.6045 57.2915 19.8548C58.1226 23.2299 57.7713 26.391 57.0439 29.721C56.4108 32.0492 55.8296 34.4484 54.5203 36.5111C54.4437 33.1952 55.1381 28.4461 52.7183 25.9204C44.4068 26.1548 38.1625 26.1079 31.2709 20.9579C28.5499 23.8172 26.4614 26.588 26.5823 30.7304C26.63 32.3282 27.1717 34.0058 27.0568 35.5896C25.6332 34.9777 24.449 31.0762 23.8636 29.6489C22.6074 26.0587 21.8134 21.1883 23.5465 17.6233C24.1448 16.3923 25.1481 15.3226 26.4897 14.9058C27.1535 14.6995 27.7989 14.7845 28.4715 14.893Z" fill="#070707"/>
<path d="M27.0577 35.5918C27.1756 34.0092 26.6309 32.3305 26.5832 30.7326C26.4623 26.5902 28.5508 23.8194 31.2718 20.959C38.1634 26.109 44.4065 26.1547 52.7192 25.9214C55.139 28.4501 54.4446 33.198 54.5213 36.5121C55.8305 34.4494 56.4117 32.0503 57.0448 29.7221C58.38 30.9682 59.1404 32.4559 59.184 34.3023C59.2076 35.2988 58.9429 36.7864 58.2497 37.5561C57.6307 38.2436 56.6216 38.4488 56.0268 39.0373C55.7597 39.3022 55.1673 41.042 54.9699 41.4939C53.1584 45.6327 50.5606 48.9715 46.7019 51.4076C45.7705 51.7364 44.8922 52.2177 43.9479 52.5359C40.5543 53.6795 37.7466 53.0201 34.6425 51.4726C29.8553 48.2623 27.0813 44.1873 25.5781 38.6932C25.6589 37.913 25.673 36.1493 26.2943 35.6399C26.4918 35.4793 26.8113 35.5743 27.0577 35.5918Z" fill="#FACFA9"/>
<path d="M46.7012 51.4062C46.598 53.2409 46.5037 55.1536 46.654 56.9847C53.2237 57.4085 60.4984 61.4606 64.7986 66.3205C65.7418 67.389 66.5452 68.5643 67.3546 69.736C60.9169 75.2793 52.9608 79.1058 44.4111 79.8349C32.453 80.8549 22.8753 77.0876 13.8086 69.5256C14.8178 68.4183 15.7185 67.2273 16.7719 66.1546C21.7458 61.0872 27.5227 58.1764 34.482 56.8622C34.6258 55.0791 34.6111 53.2597 34.6418 51.4696C37.7459 53.017 40.5536 53.6764 43.9472 52.5328C44.8915 52.2163 45.7698 51.7351 46.7012 51.4062Z" fill="#1065A5"/>
<path d="M46.7036 51.4062C46.6004 53.2409 46.5061 55.1536 46.6564 56.9847C46.2143 58.1043 45.0265 58.9718 43.959 59.4601C43.8411 59.5152 43.7204 59.5673 43.597 59.6166C43.4756 59.6658 43.3524 59.7115 43.228 59.7549C43.1037 59.7983 42.9787 59.8381 42.8525 59.8751C42.7264 59.912 42.5991 59.946 42.4711 59.9765C42.3432 60.007 42.2153 60.0351 42.0856 60.0591C41.956 60.0832 41.8269 60.1043 41.6966 60.1224C41.5663 60.1406 41.4354 60.1552 41.3046 60.1664C41.1737 60.1775 41.0423 60.1863 40.9108 60.1916C40.7794 60.1969 40.6479 60.1986 40.5165 60.1969C40.385 60.1951 40.2536 60.191 40.1221 60.1828C39.9906 60.1746 39.8598 60.164 39.7289 60.15C39.5981 60.1359 39.4684 60.1177 39.3381 60.0966C39.2078 60.0755 39.0793 60.0521 38.9502 60.0251C38.8211 59.9982 38.6938 59.9665 38.5665 59.9343C38.4392 59.902 38.3136 59.8639 38.188 59.8247C38.0625 59.7854 37.9381 59.742 37.8149 59.6963C36.4049 59.1781 35.1222 58.2455 34.4844 56.8622C34.6282 55.0791 34.6135 53.2597 34.6441 51.4696C37.7483 53.017 40.556 53.6764 43.9495 52.5328C44.8939 52.2163 45.7722 51.7351 46.7036 51.4062Z" fill="#EFB589"/>
</svg>
